<svg xmlns="http://www.w3.org/2000/svg" xmlns:xlink="http://www.w3.org/1999/xlink" width="1200" zoomAndPan="magnify" viewBox="0 0 900 1274.999945" height="1700" preserveAspectRatio="xMidYMid meet" version="1.0"><defs><g/><clipPath id="17dc28695d"><path d="M 190.226562 378 L 722 378 L 722 722.707031 L 190.226562 722.707031 Z M 190.226562 378 " clip-rule="nonzero"/></clipPath></defs><rect x="-90" width="1080" fill="#ffffff" y="-127.499994" height="1529.999934" fill-opacity="1"/><rect x="-90" width="1080" fill="#ffffff" y="-127.499994" height="1529.999934" fill-opacity="1"/><rect x="-90" width="1080" fill="#ffab91" y="-127.499994" height="1529.999934" fill-opacity="1"/><g clip-path="url(#17dc28695d)"><path fill="#563a2c" d="M 718.726562 496.738281 C 714.042969 486.382812 702.984375 482.226562 685.824219 484.363281 C 678.335938 485.417969 671.136719 487.488281 664.230469 490.574219 C 660.554688 492.148438 657.269531 493.710938 654.210938 495.351562 C 652.585938 496.230469 650.863281 497.183594 649.195312 498.3125 C 639.53125 485.960938 628.46875 475.023438 616.011719 465.507812 C 609.054688 460.1875 601.765625 455.371094 594.144531 451.058594 C 595.625 448.527344 596.878906 445.886719 597.90625 443.136719 C 598.695312 441.042969 599.5625 438.96875 600.484375 436.765625 C 602.058594 433.179688 603.453125 429.523438 604.660156 425.800781 C 605.550781 422.878906 606.21875 419.902344 606.65625 416.878906 C 606.835938 415.871094 607.078125 414.878906 607.378906 413.902344 C 607.847656 412.402344 608.191406 410.878906 608.410156 409.324219 C 608.671875 407.152344 609.191406 399.554688 604.832031 394.300781 C 600.734375 389.316406 594.566406 388.871094 589.65625 388.535156 L 587.652344 388.382812 C 580.195312 387.515625 572.789062 387.839844 565.4375 389.359375 C 552.058594 392.335938 539.941406 399.257812 528.675781 406.085938 C 522.125 410.023438 515.800781 414.300781 509.703125 418.917969 C 504.445312 422.917969 499.574219 427.34375 495.089844 432.195312 C 475.40625 436.535156 459.121094 446.492188 447.945312 461.089844 C 446.480469 463.011719 445.09375 465.019531 443.804688 467.105469 C 442.140625 464.429688 440.308594 461.875 438.308594 459.441406 C 434.007812 454.21875 429.101562 449.652344 423.582031 445.742188 C 418.066406 441.832031 412.132812 438.71875 405.785156 436.394531 C 393.945312 410.113281 364.589844 395.839844 340.847656 384.289062 L 336.71875 382.269531 C 331.296875 379.589844 323.125 375.542969 315.980469 381.023438 C 311.644531 384.398438 309.324219 390.292969 309.0625 399.0625 C 308.898438 407.039062 309.4375 414.960938 310.691406 422.835938 C 311.808594 429.351562 313.570312 435.6875 315.980469 441.84375 C 299.441406 448.75 284.265625 457.917969 270.449219 469.339844 C 264.734375 474.054688 259.3125 479.089844 254.1875 484.441406 C 247.011719 478.152344 239.242188 472.726562 230.867188 468.15625 L 228.851562 467.070312 C 220.40625 462.273438 206.28125 454.25 196.425781 462.730469 C 192.394531 465.988281 190.421875 471.207031 190.226562 478.535156 C 190.214844 484.960938 190.605469 491.363281 191.398438 497.738281 L 191.59375 499.636719 C 191.992188 503.589844 192.320312 507.648438 192.675781 511.578125 C 193.246094 520.886719 194.332031 530.136719 195.929688 539.324219 C 199.300781 556.691406 204.09375 570.402344 210.554688 581.179688 C 210.554688 600.722656 216.582031 618.316406 227.898438 632.199219 C 243.261719 650.96875 267.316406 661.304688 295.632812 661.292969 C 297.972656 661.292969 300.359375 661.226562 302.753906 661.085938 C 304.054688 671.722656 312.152344 682.1875 320.304688 687.464844 C 322.21875 688.679688 324.21875 689.726562 326.304688 690.605469 C 328.390625 691.484375 330.535156 692.1875 332.742188 692.710938 C 334.945312 693.234375 337.175781 693.570312 339.433594 693.71875 C 341.695312 693.871094 343.949219 693.832031 346.203125 693.609375 C 349.554688 702.445312 358.28125 709.433594 369.914062 712.476562 C 381.328125 715.460938 396.960938 719.542969 410.683594 714.960938 C 412.234375 714.441406 413.742188 713.820312 415.207031 713.09375 C 417.980469 716.035156 422.199219 718.457031 427.804688 720.324219 C 432.910156 721.914062 438.140625 722.667969 443.488281 722.582031 C 446.339844 722.582031 448.976562 722.417969 451.199219 722.222656 L 452.066406 722.148438 C 463.988281 721.125 480.390625 719.726562 487.613281 706.277344 C 488.222656 705.136719 488.753906 703.964844 489.214844 702.757812 C 490.570312 703.355469 491.96875 703.84375 493.390625 704.386719 C 499.054688 706.460938 504.902344 707.609375 510.929688 707.828125 C 513.820312 707.953125 516.707031 707.863281 519.582031 707.554688 C 522.460938 707.246094 525.296875 706.722656 528.097656 705.988281 C 530.894531 705.25 533.625 704.308594 536.28125 703.164062 C 538.9375 702.015625 541.496094 700.675781 543.949219 699.144531 C 555.441406 691.785156 571.5625 674.492188 571.410156 656.417969 C 577.074219 657.367188 582.777344 657.953125 588.519531 658.175781 C 590.078125 658.230469 591.660156 658.265625 593.234375 658.265625 C 623.347656 658.265625 648.457031 647.125 663.9375 626.902344 C 667.488281 622.242188 670.453125 617.230469 672.832031 611.875 C 675.214844 606.515625 676.945312 600.957031 678.03125 595.195312 C 681.199219 592.339844 684.089844 589.222656 686.703125 585.847656 L 687.929688 584.351562 C 692.449219 578.929688 696.6875 573.292969 700.632812 567.4375 C 707.851562 556.691406 712.492188 545.445312 717.242188 531.855469 C 722.269531 517.484375 722.757812 505.683594 718.726562 496.738281 Z M 718.726562 496.738281 " fill-opacity="1" fill-rule="nonzero"/></g><path fill="#fffcf8" d="M 445.050781 497.738281 C 444.414062 492.136719 443.328125 486.621094 441.796875 481.195312 C 441.199219 479.328125 440.496094 477.503906 439.691406 475.71875 C 438.890625 473.933594 437.988281 472.195312 436.992188 470.511719 C 435.996094 468.824219 434.90625 467.199219 433.730469 465.636719 C 432.550781 464.074219 431.289062 462.578125 429.945312 461.15625 C 428.601562 459.734375 427.179688 458.390625 425.6875 457.125 C 424.191406 455.859375 422.632812 454.683594 421.007812 453.59375 C 419.382812 452.503906 417.699219 451.503906 415.964844 450.601562 C 414.226562 449.699219 412.445312 448.898438 410.621094 448.195312 C 408.542969 447.539062 406.558594 446.667969 404.667969 445.589844 C 401.417969 443.417969 399.421875 439.878906 397.394531 436.546875 C 381.71875 410.746094 354.398438 391.84375 324.4375 388.351562 C 323.320312 388.113281 322.238281 388.210938 321.183594 388.644531 C 319.761719 389.390625 319.253906 391.152344 318.917969 392.734375 C 317.519531 399.484375 316.964844 406.304688 317.253906 413.191406 C 317.542969 420.078125 318.667969 426.824219 320.628906 433.433594 C 322.09375 438.339844 323.882812 444.210938 320.53125 448.117188 C 319.046875 449.878906 316.824219 450.800781 314.710938 451.699219 C 304.402344 456.132812 294.726562 461.667969 285.683594 468.316406 C 276.636719 474.960938 268.460938 482.542969 261.148438 491.0625 C 261.148438 491.0625 245.96875 629.367188 245.96875 631.472656 C 246.101562 638.34375 253.429688 642.457031 259.726562 645.152344 C 264.675781 647.4375 269.78125 649.28125 275.046875 650.6875 C 280.566406 651.875 286.148438 652.40625 291.792969 652.28125 C 298.136719 652.265625 304.449219 651.851562 310.738281 651.039062 C 317.027344 650.226562 323.238281 649.023438 329.375 647.425781 C 335.515625 645.828125 341.527344 643.851562 347.414062 641.496094 C 353.304688 639.144531 359.023438 636.425781 364.570312 633.351562 C 375.15625 627.609375 384.648438 620.421875 393.046875 611.78125 C 393.601562 611.207031 394.132812 610.597656 394.664062 609.96875 C 395.0625 609.6875 395.453125 609.40625 395.84375 609.101562 C 400.679688 605.289062 404.09375 599.984375 408.648438 595.835938 C 414.457031 590.527344 422.046875 587.152344 426.882812 580.964844 C 430.523438 576.296875 432.238281 570.433594 433.875 564.734375 L 443.089844 532.582031 C 444.59375 527.914062 445.675781 523.148438 446.339844 518.285156 C 447 511.425781 446.070312 504.523438 445.050781 497.738281 Z M 445.050781 497.738281 " fill-opacity="1" fill-rule="nonzero"/><path fill="#fffcf8" d="M 645.386719 597.453125 C 643.003906 583.339844 633.691406 520.914062 635.632812 503.925781 C 635.953125 502.273438 635.976562 500.613281 635.695312 498.953125 C 635.007812 496.957031 633.878906 495.246094 632.316406 493.828125 C 627.230469 488.402344 606.6875 468.34375 602.425781 465.84375 L 585.6875 456.074219 C 585.070312 455.71875 584.277344 451.332031 585.332031 449.910156 C 595.085938 436.882812 601.65625 420.710938 600.625 404.394531 C 600.644531 403.261719 600.355469 402.210938 599.757812 401.246094 C 598.972656 400.363281 598.007812 399.78125 596.863281 399.5 C 592.359375 397.972656 587.730469 397.109375 582.980469 396.910156 C 578.226562 396.714844 573.542969 397.1875 568.929688 398.335938 C 563.132812 399.996094 557.535156 402.167969 552.136719 404.851562 L 536.957031 411.796875 C 532.621094 413.773438 515.949219 425.410156 511.863281 429.023438 C 502.613281 437.199219 468.953125 453.992188 468.953125 453.992188 C 457.410156 462.828125 445.203125 473.898438 444.691406 488.433594 C 444.53125 492.832031 447.457031 513.46875 447.261719 519.457031 C 447.054688 525.972656 446.179688 532.59375 446.71875 539.128906 C 447.488281 548.3125 451.054688 557.0625 455.457031 565.179688 C 470.472656 592.621094 495.570312 613.28125 522.605469 629.019531 C 536.699219 637.25 551.757812 644.414062 567.875 646.984375 C 581.808594 649.15625 594.980469 651.632812 609.070312 650.132812 C 616.152344 649.375 624.355469 644.835938 630.980469 642.199219 C 637.605469 639.558594 643.71875 634.894531 646.546875 628.347656 C 650.679688 618.644531 647.121094 607.742188 645.386719 597.453125 Z M 645.386719 597.453125 " fill-opacity="1" fill-rule="nonzero"/><path fill="#ffa05f" d="M 311.089844 653.703125 C 311.566406 655.691406 312.175781 657.632812 312.925781 659.53125 C 313.675781 661.429688 314.554688 663.265625 315.566406 665.039062 C 316.574219 666.8125 317.703125 668.507812 318.953125 670.121094 C 320.203125 671.734375 321.558594 673.25 323.023438 674.671875 C 324.488281 676.09375 326.046875 677.402344 327.695312 678.601562 C 329.34375 679.800781 331.070312 680.878906 332.875 681.832031 C 334.675781 682.789062 336.535156 683.609375 338.457031 684.300781 C 340.375 684.992188 342.332031 685.542969 344.328125 685.957031 C 345.769531 686.132812 347.152344 686.515625 348.480469 687.105469 C 349.589844 687.796875 350.585938 688.628906 351.460938 689.601562 C 353.34375 691.421875 355.335938 693.109375 357.4375 694.667969 C 359.539062 696.226562 361.730469 697.644531 364.015625 698.921875 C 366.296875 700.195312 368.652344 701.320312 371.082031 702.289062 C 373.511719 703.261719 375.992188 704.070312 378.523438 704.722656 C 381.058594 705.371094 383.621094 705.855469 386.21875 706.175781 C 388.8125 706.492188 391.417969 706.640625 394.035156 706.621094 C 396.648438 706.601562 399.253906 706.414062 401.84375 706.058594 C 404.433594 705.703125 406.992188 705.183594 409.515625 704.496094 C 411.382812 703.828125 413.308594 703.445312 415.292969 703.34375 C 417.90625 703.34375 420.34375 704.5625 422.738281 705.59375 C 427.714844 707.730469 432.867188 709.28125 438.195312 710.238281 C 443.523438 711.195312 448.890625 711.535156 454.296875 711.257812 C 462.917969 710.8125 472.433594 708.054688 476.574219 700.480469 C 477.230469 698.980469 478.035156 697.570312 478.992188 696.246094 C 482.765625 691.902344 489.734375 694.074219 495.253906 695.789062 C 518.257812 702.792969 545.566406 691.351562 556.351562 669.835938 C 559.84375 662.878906 561.535156 654.042969 557.199219 647.582031 C 552.246094 647.472656 548.167969 643.890625 543.84375 641.460938 C 536.621094 637.421875 528.101562 636.488281 520.4375 633.375 C 513.066406 630.378906 506.679688 625.4375 500.394531 620.554688 C 488.46875 611.335938 476.476562 601.980469 467.285156 590.070312 C 461.179688 582.167969 456.445312 573.3125 451.761719 564.496094 L 443.554688 549.070312 C 441.878906 553.410156 440.023438 557.664062 437.984375 561.84375 C 435.945312 566.023438 433.734375 570.105469 431.347656 574.09375 C 428.960938 578.085938 426.410156 581.964844 423.695312 585.734375 C 420.980469 589.507812 418.105469 593.15625 415.082031 596.683594 C 412.054688 600.210938 408.882812 603.601562 405.566406 606.855469 C 402.25 610.113281 398.804688 613.21875 395.222656 616.183594 C 391.644531 619.144531 387.945312 621.945312 384.125 624.59375 C 380.304688 627.238281 376.382812 629.714844 372.351562 632.027344 C 353.921875 642.535156 333.5625 649.296875 313.378906 655.910156 " fill-opacity="1" fill-rule="nonzero"/><path fill="#ffd2a1" d="M 266.9375 484.289062 C 266.753906 483.8125 265.210938 485.375 264.996094 485.589844 C 262.652344 487.761719 260.355469 490.019531 257.925781 492.105469 C 253.527344 495.925781 248.746094 492.453125 244.996094 489.476562 C 241.242188 486.503906 237.578125 482.964844 233.601562 479.96875 C 224.699219 473.402344 213.914062 470.601562 203.34375 468.015625 C 203.164062 467.960938 203.007812 468 202.878906 468.136719 C 199.984375 471.414062 198.898438 475.375 198.3125 479.664062 C 197.53125 485.789062 197.171875 491.941406 197.230469 498.117188 C 197.226562 510.710938 198.71875 523.121094 201.71875 535.351562 C 204.472656 546.5625 208.082031 559.460938 214.726562 569.089844 C 216.265625 571.261719 219.007812 582.898438 219.421875 586.402344 C 220.210938 593.046875 226.46875 617.6875 229.417969 622.570312 C 232.363281 627.457031 236.65625 631.386719 241.027344 635 C 243.359375 636.933594 246.5 640.527344 249.917969 639.472656 C 254.035156 638.191406 256.875 631.148438 258.816406 627.816406 C 261.964844 622.359375 264.757812 616.726562 267.195312 610.914062 C 269.363281 605.671875 272.019531 599.929688 272.617188 594.195312 C 273.214844 588.464844 270.132812 584.15625 268.59375 578.804688 C 266.699219 572.292969 266.027344 562.023438 271.335938 556.746094 C 273.453125 554.652344 280.011719 548.929688 280.238281 547.214844 C 280.878906 540.820312 279.4375 533.777344 278.492188 527.449219 C 276.269531 512.625 272.417969 498.238281 266.9375 484.289062 Z M 266.9375 484.289062 " fill-opacity="1" fill-rule="nonzero"/><path fill="#ffd2a1" d="M 711.128906 496.945312 C 703.179688 485.65625 687.386719 490.203125 676.640625 493.472656 C 670.136719 495.449219 663.632812 497.5625 657.757812 501.070312 C 656.175781 502.027344 654.652344 503.070312 653.195312 504.207031 C 651.222656 505.738281 650.894531 506.59375 648.183594 506.074219 C 643.6875 505.21875 640.042969 499.714844 637.550781 496.132812 C 637.40625 495.917969 637.214844 495.855469 636.976562 495.945312 L 636.238281 494.058594 L 636.402344 493.765625 C 636.652344 493.308594 635.945312 492.894531 635.695312 493.351562 C 632.445312 499.300781 629.128906 505.292969 626.90625 511.707031 C 624.605469 518.363281 623.96875 525.210938 623.730469 532.191406 C 623.125 545.921875 623.40625 559.628906 624.574219 573.324219 C 625.628906 586.164062 628.242188 598.683594 632.421875 610.871094 C 634.519531 616.792969 637.109375 622.488281 640.195312 627.957031 C 642.027344 631.214844 643.882812 635.238281 647.96875 632.851562 C 657.105469 627.511719 665.507812 617.949219 669.238281 608.039062 C 670.199219 605.152344 670.921875 602.210938 671.40625 599.210938 C 672.21875 594.996094 673.929688 591.183594 676.535156 587.769531 C 681.207031 581.453125 685.976562 575.199219 690.703125 568.914062 C 699.09375 557.746094 707.703125 546.75 711.660156 533.09375 C 713.507812 526.710938 714.429688 520.199219 714.421875 513.554688 C 714.445312 508.125 714.359375 501.527344 711.128906 496.945312 Z M 711.128906 496.945312 " fill-opacity="1" fill-rule="nonzero"/><path fill="#ffd2a1" d="M 433.0625 538.269531 C 425.039062 539.519531 419.292969 545.675781 417.460938 553.46875 C 415.367188 562.402344 418.945312 571.433594 424.148438 578.609375 C 424.074219 578.792969 425.167969 578.78125 425.101562 578.695312 C 430.578125 568.632812 435.945312 558.179688 440.441406 547.671875 C 441.265625 545.761719 444.398438 540.855469 442.613281 538.640625 C 440.824219 536.425781 435.230469 537.902344 433.0625 538.269531 Z M 433.0625 538.269531 " fill-opacity="1" fill-rule="nonzero"/><path fill="#ffd2a1" d="M 480.042969 446.816406 C 476.207031 448.464844 472.4375 450.273438 468.738281 452.242188 C 466.722656 453.328125 461.984375 456.347656 462.234375 456.738281 C 467.023438 465.324219 479.449219 471.292969 489.011719 467.234375 C 499.070312 462.945312 503.546875 449.867188 503.101562 439.761719 C 503.058594 439.390625 487.265625 443.710938 480.042969 446.816406 Z M 480.042969 446.816406 " fill-opacity="1" fill-rule="nonzero"/><path fill="#d32d4d" d="M 532.144531 581.539062 C 531.757812 582.160156 531.246094 582.648438 530.605469 583.003906 C 528.785156 584.207031 526.929688 585.363281 525.042969 586.480469 C 523.699219 587.28125 522.335938 588.054688 520.96875 588.800781 C 517.28125 590.820312 513.378906 592.699219 509.164062 592.71875 C 508.476562 592.796875 507.847656 592.640625 507.277344 592.253906 C 506.375 591.527344 506.507812 590.082031 506.765625 588.996094 C 508.636719 580.847656 512.019531 573.386719 516.914062 566.613281 L 518.453125 567.753906 C 519.945312 569.15625 521.703125 569.984375 523.734375 570.238281 C 524.828125 570.242188 525.871094 570.46875 526.867188 570.921875 C 527.511719 571.417969 528.015625 572.027344 528.371094 572.757812 C 529.347656 574.386719 530.335938 576.015625 531.3125 577.652344 C 532.027344 578.835938 532.796875 580.292969 532.144531 581.539062 Z M 532.144531 581.539062 " fill-opacity="1" fill-rule="nonzero"/><path fill="#ff5f76" d="M 525.042969 586.480469 C 523.699219 587.28125 522.335938 588.054688 520.96875 588.800781 C 517.28125 590.820312 513.378906 592.699219 509.164062 592.71875 C 508.476562 592.796875 507.847656 592.640625 507.277344 592.253906 C 506.375 591.527344 506.507812 590.082031 506.765625 588.996094 C 507.890625 584.082031 509.597656 579.378906 511.882812 574.886719 C 513.761719 575.371094 515.347656 576.332031 516.644531 577.773438 C 517.8125 579.054688 518.226562 580.507812 519.613281 581.527344 C 520.902344 582.269531 522.125 583.105469 523.277344 584.046875 C 523.980469 584.777344 524.566406 585.585938 525.042969 586.480469 Z M 525.042969 586.480469 " fill-opacity="1" fill-rule="nonzero"/><path fill="#cca37a" d="M 224.265625 548.03125 C 217.761719 533.332031 214.140625 511.535156 213.847656 495.480469 C 213.792969 492.746094 214.554688 489.171875 217.273438 488.902344 C 218.683594 488.761719 219.964844 489.683594 221.070312 490.574219 C 227.746094 495.925781 233.847656 501.875 239.367188 508.417969 C 239.800781 509.742188 239.824219 511.070312 239.433594 512.402344 C 233.03125 523.703125 227.96875 535.578125 224.257812 548.03125 " fill-opacity="1" fill-rule="nonzero"/><path fill="#cca37a" d="M 657.292969 522.03125 C 665.636719 516.621094 674.617188 512.640625 684.230469 510.089844 C 686.800781 509.40625 689.953125 509.003906 691.710938 511.003906 C 692.558594 512.15625 692.980469 513.445312 692.980469 514.878906 C 693.328125 520.078125 691.765625 525.222656 689.890625 530.074219 C 685.402344 541.757812 679.179688 552.429688 671.222656 562.085938 C 668.550781 548.871094 663.90625 536.390625 657.292969 524.648438 " fill-opacity="1" fill-rule="nonzero"/><path fill="#ffd2a1" d="M 338.8125 440.683594 C 339.09375 440.988281 338.289062 440.910156 338.171875 440.507812 C 335.09375 430.46875 333.578125 420.195312 333.617188 409.691406 C 333.617188 408.921875 333.75 407.976562 334.464844 407.703125 C 334.875 407.59375 335.277344 407.625 335.667969 407.792969 C 340.914062 409.441406 345.25 412.957031 349.585938 416.398438 C 356.992188 422.371094 364.515625 428.472656 369.792969 436.394531 C 363.527344 437.816406 341.183594 439.152344 338.898438 442.910156 " fill-opacity="1" fill-rule="nonzero"/><path fill="#ffd2a1" d="M 526.34375 437.609375 C 540.003906 427.679688 556.972656 418.429688 573.328125 414.25 C 573.9375 414.015625 574.566406 413.902344 575.21875 413.917969 C 575.871094 413.929688 576.492188 414.066406 577.089844 414.328125 C 578.359375 415.097656 578.675781 416.800781 578.683594 418.289062 C 578.75 425.886719 574.523438 432.683594 570.445312 439.042969 C 569.003906 441.289062 567.367188 443.691406 564.832031 444.472656 C 562.898438 444.90625 560.984375 444.84375 559.085938 444.285156 L 526.34375 437.601562 " fill-opacity="1" fill-rule="nonzero"/><path fill="#000000" d="M 447.152344 480.652344 C 451.488281 484.15625 453.886719 489.585938 454.980469 495.046875 C 456.074219 500.503906 456.066406 506.128906 456.359375 511.699219 C 457.898438 537.75 468 563.03125 483.167969 584.308594 C 498.332031 605.582031 518.410156 623.070312 540.460938 637.085938 C 531.789062 632.894531 523.253906 628.449219 514.855469 623.746094 C 509.976562 621.007812 505.152344 618.199219 500.578125 614.996094 C 477.996094 599.15625 463.078125 574.832031 448.789062 551.230469 C 446.816406 547.976562 444.800781 544.578125 444.390625 540.800781 C 444.042969 537.597656 444.886719 534.394531 445.472656 531.238281 C 448.726562 514.683594 446.375 497.585938 443.964844 480.890625 " fill-opacity="0.149" fill-rule="nonzero"/><path fill="#000000" d="M 426.816406 460.363281 C 431.640625 466.398438 432.929688 474.476562 434.046875 482.074219 C 435.414062 491.441406 436.789062 500.851562 436.648438 510.296875 C 436.335938 532.929688 427.347656 554.804688 414.4375 573.386719 C 401.523438 591.972656 384.808594 607.570312 367.558594 622.234375 C 359.609375 628.964844 351.53125 635.53125 343.320312 641.925781 L 372.191406 626.914062 C 375.394531 625.34375 378.472656 623.554688 381.425781 621.550781 C 383.511719 620.007812 385.511719 618.359375 387.433594 616.613281 C 400.722656 604.921875 414.121094 593.132812 424.777344 579 C 435.273438 565.09375 443.035156 548.777344 444.910156 531.453125 C 445.886719 522.464844 445.277344 513.390625 444.660156 504.382812 C 444.449219 499.851562 443.964844 495.347656 443.207031 490.878906 C 442.359375 486.394531 440.996094 482.070312 439.125 477.910156 C 437.25 473.75 434.917969 469.867188 432.128906 466.257812 " fill-opacity="0.149" fill-rule="nonzero"/><path fill="#d6844c" d="M 562.140625 653.464844 C 562.054688 652.75 559.972656 646.953125 558.371094 645.550781 C 556.363281 643.804688 538.53125 637.476562 532.144531 635.21875 C 528.359375 633.964844 524.648438 632.515625 521.011719 630.875 C 517.964844 629.410156 484.976562 605.703125 473.855469 592.96875 C 472.769531 594.914062 465.722656 618.523438 465.972656 619.238281 C 467.132812 622.5625 450.578125 649.632812 440.269531 660.347656 C 437.460938 663.277344 434.449219 666.253906 433.105469 670.117188 C 432.542969 671.96875 432.144531 673.855469 431.902344 675.773438 C 431.007812 680.898438 429.46875 685.816406 427.273438 690.53125 C 425.082031 695.246094 422.3125 699.59375 418.96875 703.574219 C 418.753906 704.140625 418.753906 704.710938 418.96875 705.277344 C 420.183594 706.808594 424.605469 711.703125 425.417969 710.902344 C 425.417969 710.902344 433.082031 703.507812 434.761719 699.46875 C 436.988281 694.101562 438.640625 688.5625 439.726562 682.851562 C 439.953125 681.261719 440.3125 679.707031 440.8125 678.183594 C 441.730469 676.0625 442.9375 674.125 444.433594 672.363281 L 464.507812 646.191406 C 469.636719 656.058594 474.484375 666.210938 476.597656 677.121094 C 478.765625 688.515625 477.734375 701 471.351562 710.671875 C 472.460938 709.960938 473.523438 709.1875 474.539062 708.34375 C 475.554688 707.503906 476.515625 706.601562 477.417969 705.644531 C 478.324219 704.683594 479.167969 703.671875 479.945312 702.609375 C 480.726562 701.542969 481.4375 700.4375 482.082031 699.285156 C 482.726562 698.136719 483.300781 696.949219 483.796875 695.726562 C 484.296875 694.503906 484.71875 693.257812 485.0625 691.984375 C 485.410156 690.710938 485.675781 689.421875 485.863281 688.113281 C 486.046875 686.808594 486.15625 685.496094 486.179688 684.175781 C 486.179688 679.832031 472.421875 640.101562 470.917969 635.664062 C 472.335938 631.929688 476.835938 620.164062 478.503906 618.621094 C 479.519531 617.664062 480.71875 617.121094 482.105469 616.992188 C 489.507812 626.382812 513.183594 641.6875 526.0625 647.570312 C 532.960938 650.667969 540.164062 652.621094 547.679688 653.421875 C 548.488281 653.820312 549.167969 654.371094 549.71875 655.082031 C 550.269531 655.792969 550.640625 656.589844 550.824219 657.472656 C 551.171875 659.71875 549.816406 661.8125 548.460938 663.667969 C 545.261719 667.898438 541.6875 671.78125 537.742188 675.320312 C 533.792969 678.855469 529.539062 681.980469 524.988281 684.695312 C 520.4375 687.410156 515.667969 689.660156 510.679688 691.449219 C 505.691406 693.242188 500.578125 694.535156 495.339844 695.335938 C 500.535156 697.121094 505.875 698.148438 511.363281 698.410156 C 516.847656 698.671875 522.261719 698.160156 527.601562 696.875 C 537.445312 694.5 546.75 689.351562 553.308594 681.679688 C 559.867188 674.003906 563.398438 663.527344 562.140625 653.464844 Z M 562.140625 653.464844 " fill-opacity="1" fill-rule="nonzero"/><path fill="#d6844c" d="M 406.835938 601.851562 C 395.996094 611.78125 385.15625 621.746094 372.949219 629.996094 C 353.609375 643.121094 330.820312 651.707031 307.460938 652.164062 C 308.230469 656.097656 309.511719 659.855469 311.296875 663.441406 C 311.296875 663.441406 317.800781 673.027344 321.464844 675.644531 C 322.550781 676.371094 328.847656 682.351562 331.753906 682.535156 C 330.253906 681.011719 329.050781 679.28125 328.136719 677.34375 C 327.226562 675.40625 326.660156 673.375 326.441406 671.246094 C 326.136719 669.214844 326.460938 667.289062 327.417969 665.472656 C 327.601562 665.179688 327.808594 664.90625 328.035156 664.648438 C 335.40625 664.34375 342.558594 662.925781 349.488281 660.390625 C 353.082031 659.09375 356.585938 657.582031 359.992188 655.855469 C 365.820312 653.824219 371.347656 651.171875 376.574219 647.890625 C 381.800781 644.605469 386.59375 640.78125 390.953125 636.414062 C 394.097656 633.230469 396.984375 629.800781 399.855469 626.371094 C 407.921875 616.753906 416.019531 607.09375 422.46875 596.324219 C 425.058594 591.980469 426.609375 585.535156 427.175781 580.550781 C 423.304688 584.199219 410.566406 598.441406 406.835938 601.851562 Z M 406.835938 601.851562 " fill-opacity="1" fill-rule="nonzero"/><path fill="#d6844c" d="M 471.644531 588.789062 C 470.6875 585.980469 468.585938 583.722656 466.582031 581.527344 C 456.941406 570.988281 446.601562 558.917969 444.703125 544.761719 C 442.394531 550.742188 432.984375 567.65625 431.21875 570.816406 C 429.601562 573.734375 426.761719 586.652344 425.894531 589.941406 C 424.3125 595.890625 416.722656 623.59375 412.171875 631.453125 C 410.269531 634.851562 408.167969 638.128906 405.871094 641.277344 C 403.066406 644.882812 400.011719 648.257812 396.699219 651.402344 C 383.101562 664.785156 368.265625 676.617188 352.199219 686.898438 C 353.667969 691.035156 355.949219 694.652344 359.050781 697.753906 C 359.429688 698.144531 359.835938 698.507812 360.265625 698.839844 C 360.699219 700.199219 362.195312 701.011719 363.515625 701.488281 C 369.707031 703.738281 376.527344 703.738281 382.75 705.832031 C 385.449219 706.753906 388.222656 708.101562 391.03125 707.535156 L 384.082031 703.085938 C 381.359375 701.335938 378.335938 699.089844 378.195312 695.855469 C 378.175781 694.644531 378.460938 693.507812 379.039062 692.445312 C 385.742188 687.898438 391.714844 682.082031 397.285156 676.164062 C 399.683594 673.601562 402.046875 671.007812 404.265625 668.292969 C 411.496094 659.492188 417.242188 649.804688 421.503906 639.234375 C 426.675781 651.609375 429.523438 664.496094 430.046875 677.902344 C 431.835938 658.21875 433.027344 637.964844 427.511719 619.035156 C 427.75 617.785156 433.636719 590.539062 437.398438 578.273438 C 439.042969 577.207031 440.660156 576.101562 442.242188 574.949219 C 443.742188 577.90625 445.457031 580.722656 447.398438 583.410156 C 449.335938 586.09375 451.472656 588.609375 453.804688 590.960938 C 456.136719 593.308594 458.636719 595.464844 461.308594 597.421875 C 463.976562 599.378906 466.78125 601.113281 469.722656 602.632812 C 471.46875 598.257812 473.171875 593.328125 471.644531 588.789062 Z M 471.644531 588.789062 " fill-opacity="1" fill-rule="nonzero"/><path fill="#563a2c" d="M 372.9375 582.484375 C 372.953125 582.292969 372.90625 582.117188 372.804688 581.953125 C 372.703125 581.792969 372.5625 581.675781 372.382812 581.609375 C 372.207031 581.539062 372.023438 581.53125 371.839844 581.582031 C 371.65625 581.632812 371.503906 581.734375 371.386719 581.886719 C 368.96875 585.273438 363.582031 587.316406 360.15625 585.480469 C 357.835938 584.242188 353.445312 578.675781 352.675781 578.066406 C 354.496094 573.375 355.742188 566.625 352.285156 562.695312 C 348.046875 557.875 342.746094 562.273438 339.082031 565.398438 C 336.199219 567.851562 330.410156 574.082031 333.183594 578.28125 C 334.605469 580.453125 345.109375 581.539062 347.429688 581.148438 C 347.996094 582.136719 348.613281 583.09375 349.28125 584.015625 C 350.980469 586.460938 351.996094 589.164062 352.328125 592.125 C 352.609375 595.121094 352.144531 597.617188 349.371094 599.15625 C 347.519531 600.132812 345.582031 600.878906 343.558594 601.40625 C 343.367188 601.460938 343.214844 601.570312 343.097656 601.730469 C 342.984375 601.890625 342.929688 602.074219 342.9375 602.269531 C 342.945312 602.46875 343.011719 602.644531 343.140625 602.796875 C 343.269531 602.949219 343.429688 603.046875 343.625 603.085938 C 348.339844 604.085938 357.585938 602.828125 358.539062 595.597656 C 358.683594 594.324219 358.683594 593.050781 358.539062 591.777344 C 360.070312 592.390625 361.660156 592.675781 363.3125 592.621094 C 363.941406 592.554688 364.5625 592.429688 365.167969 592.25 C 365.777344 592.070312 366.367188 591.839844 366.933594 591.558594 C 367.503906 591.277344 368.042969 590.945312 368.550781 590.570312 C 369.0625 590.191406 369.535156 589.773438 369.972656 589.3125 C 370.410156 588.851562 370.804688 588.359375 371.152344 587.828125 C 371.503906 587.300781 371.804688 586.742188 372.058594 586.160156 C 372.3125 585.578125 372.511719 584.980469 372.660156 584.359375 C 372.808594 583.742188 372.898438 583.117188 372.9375 582.484375 Z M 372.9375 582.484375 " fill-opacity="1" fill-rule="nonzero"/><path fill="#563a2c" d="M 307.609375 551.894531 C 304.808594 550.113281 301.824219 548.714844 298.664062 547.699219 C 295.503906 546.679688 292.269531 546.074219 288.953125 545.878906 C 283.046875 545.425781 275.152344 545.640625 270.125 549.222656 C 264.433594 553.261719 262.308594 562.25 263.46875 570.152344 C 263.46875 573.277344 266.285156 584.382812 267.714844 587.023438 C 268.332031 588.734375 269.207031 590.304688 270.339844 591.730469 C 271.46875 593.15625 272.800781 594.359375 274.328125 595.347656 C 285.929688 602.25 299.261719 588.648438 306.289062 580.8125 C 310.203125 576.46875 314.734375 571.140625 315.046875 565.019531 C 315.351562 559.472656 312.066406 554.878906 307.609375 551.894531 Z M 277.179688 578.261719 C 276.640625 578.261719 276.101562 578.207031 275.570312 578.101562 C 275.039062 577.996094 274.527344 577.835938 274.027344 577.628906 C 273.523438 577.421875 273.050781 577.164062 272.601562 576.863281 C 272.152344 576.5625 271.734375 576.21875 271.351562 575.835938 C 270.96875 575.453125 270.628906 575.035156 270.328125 574.582031 C 270.027344 574.132812 269.773438 573.65625 269.566406 573.15625 C 269.359375 572.652344 269.203125 572.136719 269.097656 571.605469 C 268.992188 571.074219 268.941406 570.535156 268.941406 569.992188 C 268.941406 569.449219 268.996094 568.914062 269.101562 568.382812 C 269.207031 567.851562 269.363281 567.335938 269.570312 566.832031 C 269.78125 566.332031 270.035156 565.855469 270.335938 565.40625 C 270.636719 564.957031 270.980469 564.539062 271.363281 564.15625 C 271.746094 563.773438 272.160156 563.429688 272.613281 563.128906 C 273.0625 562.828125 273.539062 562.574219 274.039062 562.367188 C 274.539062 562.160156 275.054688 562.003906 275.585938 561.898438 C 276.117188 561.792969 276.652344 561.738281 277.195312 561.738281 C 277.738281 561.738281 278.273438 561.792969 278.804688 561.898438 C 279.335938 562.003906 279.851562 562.160156 280.351562 562.371094 C 280.851562 562.578125 281.328125 562.832031 281.777344 563.132812 C 282.226562 563.433594 282.644531 563.777344 283.027344 564.160156 C 283.410156 564.542969 283.75 564.960938 284.050781 565.414062 C 284.351562 565.863281 284.605469 566.339844 284.8125 566.839844 C 285.019531 567.339844 285.175781 567.859375 285.28125 568.390625 C 285.390625 568.921875 285.441406 569.457031 285.441406 570 C 285.441406 570.542969 285.386719 571.082031 285.28125 571.613281 C 285.175781 572.144531 285.019531 572.664062 284.8125 573.164062 C 284.605469 573.664062 284.351562 574.140625 284.050781 574.59375 C 283.746094 575.042969 283.40625 575.460938 283.019531 575.847656 C 282.636719 576.230469 282.21875 576.570312 281.769531 576.871094 C 281.316406 577.175781 280.84375 577.429688 280.339844 577.636719 C 279.839844 577.84375 279.324219 578 278.792969 578.105469 C 278.261719 578.210938 277.722656 578.261719 277.179688 578.261719 Z M 289.105469 570.914062 C 288.785156 570.914062 288.480469 570.851562 288.183594 570.730469 C 287.890625 570.605469 287.628906 570.433594 287.402344 570.207031 C 287.175781 569.980469 287.003906 569.71875 286.882812 569.421875 C 286.757812 569.125 286.699219 568.820312 286.699219 568.5 C 286.699219 568.179688 286.761719 567.871094 286.882812 567.578125 C 287.007812 567.28125 287.179688 567.019531 287.40625 566.792969 C 287.632812 566.570312 287.894531 566.394531 288.191406 566.273438 C 288.484375 566.152344 288.792969 566.09375 289.113281 566.09375 C 289.433594 566.09375 289.738281 566.15625 290.035156 566.28125 C 290.328125 566.402344 290.589844 566.578125 290.8125 566.804688 C 291.039062 567.03125 291.210938 567.292969 291.332031 567.589844 C 291.453125 567.886719 291.515625 568.195312 291.511719 568.511719 C 291.511719 568.832031 291.453125 569.136719 291.328125 569.429688 C 291.207031 569.726562 291.035156 569.984375 290.8125 570.210938 C 290.585938 570.433594 290.328125 570.609375 290.035156 570.730469 C 289.738281 570.851562 289.433594 570.914062 289.117188 570.914062 Z M 289.105469 570.914062 " fill-opacity="1" fill-rule="nonzero"/><path fill="#563a2c" d="M 381.988281 495.449219 C 379.429688 493.335938 376.644531 491.578125 373.636719 490.171875 C 370.628906 488.765625 367.496094 487.761719 364.230469 487.152344 C 358.421875 485.972656 350.5625 485.199219 345.132812 488.121094 C 338.984375 491.375 335.753906 500.0625 335.917969 508.0625 C 335.503906 511.15625 337 522.519531 338.085938 525.332031 C 338.484375 527.105469 339.160156 528.773438 340.105469 530.328125 C 341.050781 531.882812 342.222656 533.246094 343.613281 534.417969 C 354.269531 542.699219 369.152344 530.867188 377.132812 523.976562 C 381.554688 520.144531 386.714844 515.441406 387.789062 509.40625 C 388.722656 503.9375 386.035156 498.964844 381.988281 495.449219 Z M 348.503906 517.820312 C 347.964844 517.75 347.441406 517.632812 346.925781 517.460938 C 346.414062 517.289062 345.921875 517.066406 345.449219 516.796875 C 344.980469 516.53125 344.542969 516.21875 344.132812 515.863281 C 343.722656 515.507812 343.351562 515.113281 343.023438 514.6875 C 342.691406 514.257812 342.402344 513.800781 342.160156 513.316406 C 341.917969 512.832031 341.726562 512.328125 341.582031 511.804688 C 341.441406 511.28125 341.351562 510.75 341.3125 510.210938 C 341.273438 509.667969 341.289062 509.128906 341.355469 508.589844 C 341.425781 508.054688 341.542969 507.527344 341.714844 507.011719 C 341.886719 506.5 342.105469 506.007812 342.375 505.535156 C 342.640625 505.0625 342.953125 504.625 343.308594 504.214844 C 343.660156 503.804688 344.054688 503.433594 344.480469 503.101562 C 344.90625 502.769531 345.363281 502.480469 345.847656 502.238281 C 346.332031 501.996094 346.835938 501.800781 347.355469 501.660156 C 347.878906 501.515625 348.410156 501.425781 348.949219 501.386719 C 349.492188 501.347656 350.027344 501.359375 350.566406 501.429688 C 351.105469 501.496094 351.628906 501.613281 352.144531 501.785156 C 352.65625 501.957031 353.148438 502.175781 353.621094 502.445312 C 354.089844 502.710938 354.53125 503.023438 354.941406 503.378906 C 355.347656 503.734375 355.71875 504.125 356.050781 504.550781 C 356.386719 504.980469 356.671875 505.4375 356.914062 505.921875 C 357.15625 506.40625 357.351562 506.910156 357.496094 507.429688 C 357.640625 507.953125 357.730469 508.484375 357.769531 509.027344 C 357.808594 509.566406 357.792969 510.105469 357.726562 510.644531 C 357.660156 511.183594 357.542969 511.710938 357.371094 512.226562 C 357.203125 512.742188 356.984375 513.238281 356.714844 513.710938 C 356.445312 514.183594 356.136719 514.625 355.78125 515.035156 C 355.425781 515.445312 355.035156 515.820312 354.605469 516.152344 C 354.175781 516.484375 353.71875 516.773438 353.234375 517.015625 C 352.746094 517.257812 352.242188 517.453125 351.71875 517.597656 C 351.195312 517.738281 350.664062 517.828125 350.121094 517.867188 C 349.582031 517.90625 349.039062 517.890625 348.503906 517.820312 Z M 361.261719 512.011719 C 360.945312 511.972656 360.648438 511.875 360.367188 511.71875 C 360.089844 511.5625 359.851562 511.355469 359.65625 511.105469 C 359.460938 510.851562 359.320312 510.570312 359.234375 510.261719 C 359.148438 509.953125 359.125 509.640625 359.164062 509.324219 C 359.203125 509.003906 359.300781 508.707031 359.460938 508.429688 C 359.617188 508.152344 359.824219 507.914062 360.074219 507.71875 C 360.328125 507.519531 360.609375 507.378906 360.917969 507.296875 C 361.226562 507.210938 361.539062 507.1875 361.855469 507.230469 C 362.171875 507.269531 362.46875 507.367188 362.746094 507.527344 C 363.023438 507.6875 363.261719 507.890625 363.457031 508.144531 C 363.652344 508.398438 363.792969 508.679688 363.875 508.988281 C 363.960938 509.296875 363.980469 509.609375 363.941406 509.929688 C 363.898438 510.242188 363.796875 510.535156 363.640625 510.8125 C 363.484375 511.085938 363.28125 511.320312 363.03125 511.515625 C 362.78125 511.710938 362.503906 511.851562 362.199219 511.9375 C 361.894531 512.023438 361.585938 512.046875 361.273438 512.011719 Z M 361.261719 512.011719 " fill-opacity="1" fill-rule="nonzero"/><path fill="#563a2c" d="M 537.597656 508.257812 C 539.367188 511.699219 540.199219 515.714844 542.28125 518.960938 C 542.402344 519.15625 542.566406 519.300781 542.773438 519.402344 C 542.980469 519.5 543.199219 519.535156 543.425781 519.503906 C 543.652344 519.476562 543.855469 519.386719 544.03125 519.238281 C 544.207031 519.089844 544.328125 518.90625 544.394531 518.6875 C 547.09375 510.601562 540.816406 500.320312 535.441406 494.753906 C 528.273438 487.328125 519.601562 484.546875 509.511719 484.691406 C 508.144531 484.691406 507.730469 486.859375 509.175781 487.164062 C 513.34375 488.023438 517.296875 489.46875 521.035156 491.503906 C 524.773438 493.535156 528.140625 496.070312 531.125 499.105469 C 533.722656 501.847656 535.878906 504.894531 537.597656 508.257812 Z M 537.597656 508.257812 " fill-opacity="1" fill-rule="nonzero"/><path fill="#563a2c" d="M 589.167969 556.355469 C 588.820312 556.371094 588.515625 556.5 588.257812 556.734375 C 588 556.972656 587.84375 557.261719 587.796875 557.609375 C 587.75 557.957031 587.816406 558.277344 588.003906 558.578125 C 588.1875 558.875 588.445312 559.078125 588.777344 559.1875 C 592.257812 560.148438 595.554688 561.542969 598.667969 563.371094 C 601.785156 565.203125 604.609375 567.40625 607.140625 569.980469 C 609.640625 572.4375 611.808594 575.15625 613.648438 578.140625 C 615.71875 581.832031 616.128906 586.261719 618.15625 589.953125 C 618.601562 590.765625 619.640625 590.277344 619.738281 589.519531 C 620.824219 581.179688 616.953125 571.0625 611.066406 565.191406 C 609.648438 563.734375 608.09375 562.4375 606.40625 561.304688 C 604.71875 560.171875 602.933594 559.226562 601.046875 558.464844 C 599.160156 557.703125 597.21875 557.144531 595.21875 556.789062 C 593.214844 556.433594 591.199219 556.289062 589.167969 556.355469 Z M 589.167969 556.355469 " fill-opacity="1" fill-rule="nonzero"/><path fill="#563a2c" d="M 714.78125 498.519531 C 709.914062 487.761719 696.566406 487.394531 686.367188 488.664062 C 679.277344 489.671875 672.46875 491.640625 665.933594 494.566406 C 662.679688 495.96875 659.425781 497.488281 656.261719 499.171875 C 654.445312 500.113281 652.691406 501.167969 651.003906 502.328125 C 650.109375 503.011719 649.277344 503.761719 648.511719 504.585938 C 638.476562 491.050781 626.765625 479.171875 613.375 468.949219 C 605.355469 462.785156 596.886719 457.328125 587.964844 452.570312 C 590.414062 449.164062 592.375 445.5 593.851562 441.574219 C 596.019531 435.917969 598.75 430.25 600.527344 424.488281 C 601.34375 421.765625 601.957031 419.003906 602.371094 416.195312 C 602.742188 413.652344 603.804688 411.320312 604.105469 408.757812 C 604.574219 404.9375 604.019531 400.074219 601.492188 397.023438 C 598.101562 392.898438 592.074219 393.105469 587.214844 392.679688 C 580.234375 391.871094 573.296875 392.152344 566.402344 393.527344 C 553.75 396.339844 541.933594 403.070312 530.941406 409.734375 C 524.53125 413.601562 518.347656 417.808594 512.394531 422.347656 C 506.964844 426.472656 501.964844 431.066406 497.402344 436.132812 C 478.203125 440.054688 462.339844 449.464844 451.4375 463.707031 C 448.472656 467.566406 445.941406 471.691406 443.847656 476.082031 C 441.441406 471.089844 438.480469 466.449219 434.96875 462.164062 C 430.707031 457.007812 425.820312 452.53125 420.3125 448.734375 C 414.804688 444.9375 408.886719 441.964844 402.554688 439.816406 C 391.441406 412.851562 360.492188 398.71875 335.949219 386.765625 C 330.777344 384.234375 324.023438 380.351562 318.601562 384.496094 C 314.375 387.753906 313.53125 394.265625 313.378906 399.226562 C 313.226562 406.925781 313.753906 414.578125 314.960938 422.1875 C 316.121094 429.871094 318.734375 437.078125 321.464844 444.296875 C 303.871094 451.175781 287.792969 460.640625 273.234375 472.695312 C 266.515625 478.199219 260.21875 484.148438 254.339844 490.539062 C 246.601562 483.214844 238.0625 477.003906 228.710938 471.902344 C 221.121094 467.691406 207.429688 458.875 199.191406 465.890625 C 195.550781 469.015625 194.683594 474.074219 194.5625 478.644531 C 194.578125 485.546875 195.019531 492.421875 195.886719 499.269531 C 197.21875 512.402344 197.609375 525.570312 200.136719 538.5625 C 202.867188 552.675781 207.160156 567.6875 214.835938 580.03125 C 214.628906 598.972656 220.167969 615.992188 231.203125 629.476562 C 245.851562 647.367188 268.496094 656.984375 295.589844 656.984375 C 298.335938 656.984375 301.121094 656.886719 303.945312 656.691406 C 304.945312 656.613281 305.941406 656.539062 306.9375 656.441406 C 305.855469 666.925781 314.527344 678.640625 322.605469 683.839844 C 324.570312 685.078125 326.636719 686.125 328.800781 686.972656 C 330.964844 687.820312 333.1875 688.457031 335.472656 688.886719 C 337.757812 689.3125 340.0625 689.523438 342.386719 689.511719 C 344.710938 689.503906 347.011719 689.277344 349.292969 688.832031 C 351.300781 699.316406 361.066406 705.710938 370.976562 708.296875 C 382.988281 711.433594 397.089844 714.9375 409.285156 710.867188 C 411.808594 710.023438 414.183594 708.878906 416.421875 707.4375 C 418.589844 712.03125 424.667969 714.742188 429.148438 716.230469 C 436.050781 718.542969 443.621094 718.542969 450.828125 717.925781 C 462.535156 716.914062 477.539062 715.90625 483.796875 704.246094 C 485.101562 701.765625 486.003906 699.144531 486.503906 696.386719 C 489.117188 698.054688 491.902344 699.355469 494.851562 700.296875 C 496.761719 700.984375 498.699219 701.566406 500.671875 702.039062 C 502.644531 702.511719 504.636719 702.871094 506.648438 703.117188 C 508.664062 703.363281 510.683594 703.496094 512.710938 703.515625 C 514.738281 703.535156 516.761719 703.441406 518.777344 703.234375 C 520.792969 703.023438 522.792969 702.703125 524.773438 702.269531 C 526.753906 701.835938 528.707031 701.292969 530.625 700.640625 C 532.546875 699.984375 534.421875 699.226562 536.257812 698.359375 C 538.09375 697.496094 539.871094 696.53125 541.597656 695.464844 C 554.726562 687.050781 570.359375 667.914062 566.445312 651.046875 C 573.777344 652.589844 581.183594 653.511719 588.667969 653.8125 C 590.199219 653.867188 591.714844 653.898438 593.222656 653.898438 C 622.003906 653.898438 645.777344 643.457031 660.433594 624.234375 C 663.941406 619.625 666.847656 614.664062 669.148438 609.347656 C 671.449219 604.035156 673.078125 598.519531 674.039062 592.808594 C 678.09375 589.671875 681.335938 585.457031 684.589844 581.550781 C 689.027344 576.257812 693.1875 570.757812 697.066406 565.039062 C 704.339844 554.183594 708.914062 542.644531 713.175781 530.445312 C 716.535156 520.785156 719.171875 508.257812 714.78125 498.519531 Z M 533.738281 416.074219 C 545.957031 408.855469 559.367188 401.417969 573.664062 399.640625 C 577.628906 399.175781 581.601562 398.9375 585.589844 398.921875 C 588.953125 398.921875 593.449219 398.316406 596.527344 399.726562 C 601.6875 402.105469 600.984375 411.242188 599.726562 415.824219 C 597.894531 422.46875 596.226562 430.445312 592.355469 436.222656 C 589.242188 440.847656 585.546875 445.113281 582.242188 449.617188 C 562.878906 440.207031 542.714844 434.886719 523.210938 434.148438 C 517.226562 433.914062 511.261719 434.15625 505.316406 434.863281 C 514.625 428.40625 523.929688 421.847656 533.683594 416.074219 Z M 467.71875 595.054688 C 467.417969 598.804688 466.859375 602.511719 466.039062 606.179688 C 465.289062 609.6875 464.324219 613.160156 463.371094 616.613281 C 462.289062 620.507812 461.367188 624.742188 459.664062 628.390625 C 456.503906 635.148438 452.613281 641.453125 448 647.3125 C 444.214844 652.097656 439.761719 656.484375 435.5 660.945312 C 435.714844 656.058594 435.714844 651.347656 435.640625 647.0625 C 435.203125 630.882812 432.605469 615.0625 427.855469 599.59375 C 427.988281 599.070312 428.105469 598.507812 428.238281 598.007812 C 430.40625 588.824219 433.332031 579.554688 434.46875 570.140625 C 438.308594 563.28125 441.5625 556.152344 444.226562 548.757812 C 450.003906 563.636719 457.953125 577.242188 468.078125 589.574219 C 467.835938 591.308594 467.75 593.109375 467.664062 595.054688 Z M 320.046875 405.566406 C 319.957031 402.441406 319.828125 399.347656 319.613281 396.242188 C 319.375 392.984375 319.6875 388.015625 324.121094 387.816406 C 327.472656 387.65625 331.09375 390.25 334.007812 391.648438 C 337.09375 393.097656 340.167969 394.609375 343.234375 396.1875 C 354.972656 402.128906 365.925781 409.273438 376.09375 417.625 C 383.449219 423.894531 390.28125 430.699219 396.582031 438.035156 C 385.296875 435.097656 373.839844 434.09375 362.214844 435.027344 C 349.164062 436.011719 336.496094 438.777344 324.21875 443.320312 C 320.738281 431.347656 320.402344 417.855469 320.046875 405.566406 Z M 215.648438 568.511719 C 213.023438 558.386719 209.847656 548.355469 207.421875 538.183594 C 203.886719 523.421875 200.40625 508.875 200.527344 493.582031 C 200.527344 490.097656 200.675781 486.589844 200.753906 483.09375 C 200.753906 480.03125 200.578125 476.296875 201.730469 473.324219 C 204.796875 465.53125 215.671875 471.933594 220.515625 474.410156 C 231.339844 480.015625 241.234375 486.953125 250.199219 495.21875 C 235.183594 512.78125 224.355469 532.472656 218.835938 552.664062 C 217.402344 557.871094 216.339844 563.15625 215.648438 568.511719 Z M 295.71875 650.003906 C 271.597656 650.003906 250.296875 641.796875 236.570312 625.035156 C 221.902344 607.125 217.980469 582.070312 225.511719 554.476562 C 230.585938 535.9375 240.410156 517.789062 254.003906 501.449219 C 254.75 500.550781 259.085938 495.609375 259.421875 495.230469 C 265.089844 489.078125 271.15625 483.355469 277.625 478.058594 C 306.960938 453.980469 340.828125 441.617188 370.453125 441.617188 C 394.574219 441.617188 415.878906 449.824219 429.601562 466.582031 C 444.269531 484.503906 448.195312 509.546875 440.660156 537.140625 C 432.996094 565.136719 414.492188 592.277344 388.546875 613.574219 C 359.214844 637.628906 325.347656 650.003906 295.71875 650.003906 Z M 335.828125 681.929688 C 332.53125 680.992188 329.476562 679.539062 326.664062 677.570312 C 323.855469 675.601562 321.445312 673.226562 319.4375 670.445312 C 316.066406 665.785156 314.9375 660.75 313.203125 655.636719 C 340.632812 651.695312 368.601562 638.867188 392.894531 618.914062 C 405.171875 608.898438 415.933594 597.453125 425.179688 584.578125 C 424.746094 586.75 424.300781 588.835938 423.824219 590.917969 C 423.347656 593.003906 419.164062 607.203125 418.261719 609.664062 C 413.796875 621.90625 407.5625 633.164062 399.550781 643.4375 C 391.226562 653.738281 381.796875 662.910156 371.269531 670.941406 C 360.851562 679.105469 349.425781 685.707031 335.871094 681.929688 Z M 386.707031 704.617188 C 379.84375 703.390625 372.191406 702.066406 365.835938 699.121094 C 360.417969 696.636719 357.164062 692.035156 353.378906 687.8125 C 355.855469 687.085938 358.238281 686.125 360.523438 684.933594 C 367.203125 681.484375 373.15625 676.523438 379.074219 671.910156 C 385.261719 667.304688 391.132812 662.324219 396.679688 656.960938 C 401.804688 651.785156 406.410156 646.179688 410.484375 640.140625 C 414.5625 634.101562 418.042969 627.734375 420.929688 621.042969 C 422.015625 618.578125 422.933594 616.113281 423.78125 613.628906 C 426.496094 624.886719 428.300781 636.285156 429.203125 647.832031 C 430.285156 662.019531 431.371094 678.867188 423.585938 691.511719 C 415.488281 704.832031 401.132812 707.242188 386.75 704.617188 Z M 481.097656 695.878906 C 476.542969 707.90625 463.359375 708.609375 452.421875 709.71875 C 446.003906 710.367188 439.414062 710.714844 433.15625 709.164062 C 428.757812 708.078125 425.136719 705.289062 421.136719 703.628906 C 429.375 695.628906 433.0625 683.414062 434.558594 671.0625 C 435.46875 671.011719 436.230469 670.652344 436.84375 669.976562 C 442.523438 664.167969 446.925781 657.808594 451.445312 651.152344 C 456.300781 644.238281 460.691406 637.042969 464.617188 629.5625 C 464.921875 628.964844 465.226562 628.378906 465.539062 627.804688 C 467.285156 638.214844 470.960938 648.570312 474.09375 658.511719 C 477.777344 670.140625 485.84375 683.449219 481.140625 695.878906 Z M 560.027344 661.769531 C 558.910156 666.058594 557.078125 670.019531 554.53125 673.644531 C 553.28125 675.390625 551.929688 677.054688 550.480469 678.636719 C 549.027344 680.214844 547.484375 681.703125 545.851562 683.09375 C 544.21875 684.488281 542.507812 685.777344 540.71875 686.960938 C 538.929688 688.144531 537.074219 689.214844 535.15625 690.175781 C 533.234375 691.132812 531.265625 691.972656 529.246094 692.691406 C 527.222656 693.410156 525.164062 694 523.074219 694.46875 C 520.980469 694.9375 518.863281 695.277344 516.730469 695.484375 C 514.597656 695.695312 512.457031 695.777344 510.3125 695.726562 C 505.664062 695.585938 501.105469 694.882812 496.632812 693.621094 C 493.519531 692.738281 490.332031 691.078125 487.089844 690.363281 C 487.285156 682.027344 485.042969 673.34375 483.394531 665.558594 C 481.746094 657.777344 479.242188 650.363281 476.890625 642.871094 C 474.644531 635.542969 472.554688 628.128906 468.945312 621.335938 C 469.367188 620.476562 469.777344 619.609375 470.148438 618.707031 C 471.609375 615.070312 472.695312 611.320312 473.398438 607.460938 C 474.097656 604.234375 474.628906 600.976562 474.992188 597.691406 C 482.164062 605.476562 489.953125 612.585938 498.355469 619.023438 C 507.253906 625.941406 516.734375 631.933594 526.800781 637 C 536.867188 642.0625 547.328125 646.105469 558.183594 649.125 C 560.222656 653.109375 561.167969 657.222656 560.070312 661.769531 Z M 654.929688 620.011719 C 635.859375 644.976562 600.335938 652.402344 562.78125 643.097656 C 561.308594 642.699219 560.082031 642.351562 558.910156 642.089844 C 548.707031 639.164062 538.871094 635.296875 529.40625 630.484375 C 519.9375 625.675781 511.011719 620.015625 502.625 613.496094 C 475.46875 592.65625 456.011719 565.734375 447.652344 537.511719 C 452.5625 518.65625 452.421875 500.851562 447.433594 485.40625 C 449.640625 479.117188 452.765625 473.328125 456.8125 468.039062 C 470.90625 449.648438 494.355469 440.097656 522.875 441.171875 C 541.847656 441.886719 561.535156 447.21875 580.332031 456.5625 C 580.832031 457.027344 581.417969 457.320312 582.089844 457.445312 C 591.601562 462.328125 600.59375 468.03125 609.070312 474.550781 C 663.761719 516.386719 684.316406 581.679688 654.972656 620.011719 Z M 711.667969 518.425781 C 710.6875 525.667969 708.640625 532.589844 705.523438 539.195312 C 702.359375 545.4375 698.773438 551.429688 694.769531 557.167969 C 690.433594 563.53125 685.707031 569.535156 680.859375 575.484375 C 679.070312 577.652344 677.128906 579.824219 675.277344 581.996094 C 675.664062 570.066406 674.035156 558.417969 670.398438 547.054688 C 665.929688 532.957031 659.425781 519.878906 650.882812 507.8125 C 651.859375 507.578125 652.8125 507.277344 653.746094 506.910156 C 655.394531 506.203125 657 505.402344 658.625 504.621094 C 662.074219 502.960938 665.5 501.363281 669.074219 499.941406 C 675.894531 497.308594 682.921875 495.488281 690.160156 494.480469 C 697.164062 493.515625 706.28125 492.746094 710.128906 499.996094 C 713.066406 505.488281 712.546875 512.457031 711.667969 518.425781 Z M 711.667969 518.425781 " fill-opacity="1" fill-rule="nonzero"/><path fill="#563a2c" d="M 534.855469 548.84375 C 533.902344 548.566406 532.996094 548.675781 532.132812 549.167969 C 529.035156 552.144531 529.390625 560.316406 530.550781 562.75 C 530.019531 563.324219 526.378906 566.375 524.65625 566.644531 C 519.9375 567.382812 516.9375 563.390625 515.484375 559.242188 C 515.414062 559.058594 515.296875 558.914062 515.128906 558.808594 C 514.964844 558.703125 514.78125 558.660156 514.585938 558.679688 C 514.390625 558.699219 514.21875 558.777344 514.078125 558.910156 C 513.933594 559.046875 513.84375 559.210938 513.8125 559.40625 C 513.109375 563.800781 513.8125 570.140625 520.816406 572.886719 C 522.570312 573.269531 524.320312 573.269531 526.074219 572.886719 C 526.171875 574.660156 526.484375 576.394531 527.007812 578.085938 C 530.117188 584.222656 536.179688 585.609375 540.839844 584.859375 C 541.03125 584.828125 541.195312 584.738281 541.328125 584.589844 C 541.460938 584.445312 541.535156 584.277344 541.550781 584.078125 C 541.566406 583.882812 541.523438 583.703125 541.417969 583.539062 C 541.3125 583.371094 541.164062 583.257812 540.980469 583.191406 C 535.484375 581.246094 532.082031 577.914062 532.113281 573.421875 C 532.113281 571.878906 535.246094 568.070312 536.058594 567.136719 C 541.902344 570.175781 547.984375 569.621094 550.03125 567.253906 C 551.203125 562.46875 546.335938 559.003906 543.367188 555.605469 C 540.199219 552.011719 536.375 549.191406 534.855469 548.84375 Z M 534.855469 548.84375 " fill-opacity="1" fill-rule="nonzero"/><path fill="#ff5f76" d="M 602.730469 599.984375 C 600.132812 596.390625 596.929688 593.460938 593.125 591.191406 C 590.890625 589.898438 585.320312 587.128906 582.640625 588.445312 C 580.613281 589.441406 581.558594 592.503906 582.21875 594.164062 C 582.402344 594.644531 582.621094 595.105469 582.871094 595.554688 C 583.488281 597.800781 585.285156 599.636719 586.957031 601.425781 C 590.207031 604.945312 593.667969 607.777344 598.339844 609.144531 C 600.507812 609.753906 604.648438 611.316406 605.863281 608.613281 C 607 606.09375 604.105469 601.851562 602.730469 599.984375 Z M 602.730469 599.984375 " fill-opacity="1" fill-rule="nonzero"/><path fill="#ff5f76" d="M 493.769531 492.515625 C 491.535156 491.226562 485.953125 488.457031 483.285156 489.769531 C 481.257812 490.769531 482.203125 493.820312 482.863281 495.492188 C 483.046875 495.964844 483.265625 496.425781 483.511719 496.871094 C 484.132812 499.117188 485.929688 500.949219 487.601562 502.753906 C 490.851562 506.269531 494.3125 509.101562 498.984375 510.460938 C 501.097656 511.078125 505.292969 512.632812 506.507812 509.9375 C 507.644531 507.421875 504.75 503.175781 503.375 501.308594 C 500.78125 497.710938 497.582031 494.78125 493.769531 492.515625 Z M 493.769531 492.515625 " fill-opacity="1" fill-rule="nonzero"/><path fill="#ff5f76" d="M 412.128906 515.105469 C 409.710938 513.261719 405.003906 515.703125 402.835938 516.929688 C 398.984375 519.054688 395.710938 521.855469 393.015625 525.332031 C 391.410156 527.503906 388.050781 532.5625 388.960938 535.449219 C 389.535156 537.273438 391.671875 537.121094 393.296875 536.882812 C 394.210938 536.75 395.097656 536.511719 395.953125 536.164062 C 398.71875 535.796875 401.179688 533.691406 403.421875 531.984375 C 406.765625 529.648438 409.324219 526.640625 411.097656 522.964844 C 411.976562 521.109375 414.316406 516.808594 412.128906 515.105469 Z M 412.128906 515.105469 " fill-opacity="1" fill-rule="nonzero"/><path fill="#ff5f76" d="M 302.320312 601.949219 C 299.890625 600.101562 295.199219 602.542969 293.03125 603.761719 C 289.179688 605.894531 285.902344 608.699219 283.199219 612.171875 C 281.605469 614.34375 278.242188 619.402344 279.152344 622.277344 C 279.726562 624.113281 281.863281 623.960938 283.488281 623.722656 C 284.402344 623.59375 285.285156 623.351562 286.136719 622.996094 C 288.910156 622.636719 291.359375 620.53125 293.617188 618.828125 C 296.953125 616.484375 299.511719 613.480469 301.289062 609.804688 C 302.167969 607.9375 304.511719 603.640625 302.320312 601.949219 Z M 302.320312 601.949219 " fill-opacity="1" fill-rule="nonzero"/><path fill="#ff5f76" d="M 347.863281 566.710938 C 347.421875 566.472656 346.953125 566.367188 346.457031 566.394531 C 345.957031 566.417969 345.5 566.570312 345.085938 566.851562 C 342.503906 568.117188 340.457031 569.976562 338.941406 572.421875 C 338.519531 573.105469 338.191406 574.082031 338.714844 574.667969 L 338.398438 574.59375 L 338.765625 574.722656 C 339.050781 574.941406 339.375 575.042969 339.730469 575.027344 C 341.347656 575.527344 342.992188 575.851562 344.675781 576.003906 C 345.371094 576.121094 346.050781 576.058594 346.714844 575.820312 C 347.183594 575.542969 347.574219 575.179688 347.882812 574.726562 C 348.191406 574.277344 348.390625 573.785156 348.480469 573.246094 C 348.925781 571.570312 348.96875 569.882812 348.601562 568.1875 C 348.523438 567.613281 348.277344 567.121094 347.863281 566.710938 Z M 347.863281 566.710938 " fill-opacity="1" fill-rule="nonzero"/><path fill="#ff5f76" d="M 543.636719 563.171875 C 543.101562 561.347656 542.148438 559.78125 540.773438 558.472656 C 539.433594 557.195312 537.988281 556.054688 536.4375 555.042969 C 536.21875 554.839844 535.964844 554.761719 535.667969 554.804688 C 535.320312 554.902344 535.222656 555.324219 535.191406 555.683594 C 535.050781 557.183594 535.175781 558.660156 535.570312 560.113281 C 535.652344 561.003906 536.011719 561.765625 536.65625 562.390625 C 537.242188 562.859375 537.898438 563.179688 538.628906 563.347656 C 539.476562 563.585938 540.335938 563.777344 541.207031 563.921875 C 541.929688 564.109375 542.652344 564.109375 543.375 563.921875 C 543.488281 563.886719 543.582031 563.824219 543.660156 563.738281 C 543.746094 563.546875 543.742188 563.355469 543.636719 563.171875 Z M 543.636719 563.171875 " fill-opacity="1" fill-rule="nonzero"/><g fill="#563a2c" fill-opacity="1"><g transform="translate(260.29847, 888.473092)"><g><path d="M 14.546875 0.40625 C 11.984375 0.40625 9.789062 -0.0234375 7.96875 -0.890625 C 6.15625 -1.753906 4.75 -3.019531 3.75 -4.6875 C 2.757812 -6.351562 2.210938 -8.382812 2.109375 -10.78125 C 2.078125 -11.90625 2.0625 -13.113281 2.0625 -14.40625 C 2.0625 -15.707031 2.078125 -16.953125 2.109375 -18.140625 C 2.210938 -20.503906 2.765625 -22.519531 3.765625 -24.1875 C 4.773438 -25.851562 6.1875 -27.125 8 -28 C 9.820312 -28.882812 12.003906 -29.328125 14.546875 -29.328125 C 16.410156 -29.328125 18.09375 -29.09375 19.59375 -28.625 C 21.101562 -28.15625 22.40625 -27.476562 23.5 -26.59375 C 24.601562 -25.71875 25.460938 -24.6875 26.078125 -23.5 C 26.703125 -22.320312 27.03125 -21.003906 27.0625 -19.546875 C 27.082031 -19.296875 27.003906 -19.085938 26.828125 -18.921875 C 26.648438 -18.753906 26.4375 -18.671875 26.1875 -18.671875 L 21.4375 -18.671875 C 21.113281 -18.671875 20.851562 -18.742188 20.65625 -18.890625 C 20.457031 -19.046875 20.304688 -19.316406 20.203125 -19.703125 C 19.785156 -21.359375 19.09375 -22.484375 18.125 -23.078125 C 17.164062 -23.671875 15.972656 -23.96875 14.546875 -23.96875 C 12.859375 -23.96875 11.519531 -23.5 10.53125 -22.5625 C 9.539062 -21.625 9.003906 -20.078125 8.921875 -17.921875 C 8.835938 -15.671875 8.835938 -13.359375 8.921875 -10.984375 C 9.003906 -8.835938 9.539062 -7.296875 10.53125 -6.359375 C 11.519531 -5.421875 12.859375 -4.953125 14.546875 -4.953125 C 15.972656 -4.953125 17.175781 -5.253906 18.15625 -5.859375 C 19.132812 -6.472656 19.816406 -7.59375 20.203125 -9.21875 C 20.304688 -9.601562 20.457031 -9.867188 20.65625 -10.015625 C 20.851562 -10.171875 21.113281 -10.25 21.4375 -10.25 L 26.1875 -10.25 C 26.4375 -10.25 26.648438 -10.164062 26.828125 -10 C 27.003906 -9.832031 27.082031 -9.625 27.0625 -9.375 C 27.03125 -7.914062 26.703125 -6.59375 26.078125 -5.40625 C 25.460938 -4.226562 24.601562 -3.195312 23.5 -2.3125 C 22.40625 -1.425781 21.101562 -0.75 19.59375 -0.28125 C 18.09375 0.175781 16.410156 0.40625 14.546875 0.40625 Z M 14.546875 0.40625 "/></g></g></g><g fill="#563a2c" fill-opacity="1"><g transform="translate(307.516399, 888.473092)"><g><path d="M 1.359375 0 C 1.109375 0 0.898438 -0.0859375 0.734375 -0.265625 C 0.578125 -0.441406 0.5 -0.644531 0.5 -0.875 C 0.5 -1.007812 0.507812 -1.128906 0.53125 -1.234375 L 10.375 -27.796875 C 10.457031 -28.097656 10.617188 -28.359375 10.859375 -28.578125 C 11.109375 -28.804688 11.453125 -28.921875 11.890625 -28.921875 L 17.1875 -28.921875 C 17.625 -28.921875 17.96875 -28.804688 18.21875 -28.578125 C 18.46875 -28.359375 18.644531 -28.097656 18.75 -27.796875 L 28.546875 -1.234375 C 28.597656 -1.128906 28.625 -1.007812 28.625 -0.875 C 28.625 -0.644531 28.535156 -0.441406 28.359375 -0.265625 C 28.179688 -0.0859375 27.96875 0 27.71875 0 L 23.390625 0 C 22.992188 0 22.695312 -0.09375 22.5 -0.28125 C 22.3125 -0.476562 22.191406 -0.660156 22.140625 -0.828125 L 20.359375 -5.453125 L 8.71875 -5.453125 L 6.984375 -0.828125 C 6.898438 -0.660156 6.769531 -0.476562 6.59375 -0.28125 C 6.414062 -0.09375 6.117188 0 5.703125 0 Z M 10.28125 -10.78125 L 18.796875 -10.78125 L 14.546875 -22.640625 Z M 10.28125 -10.78125 "/></g></g></g><g fill="#563a2c" fill-opacity="1"><g transform="translate(355.188636, 888.473092)"><g><path d="M 10.453125 0 C 10.148438 0 9.898438 -0.09375 9.703125 -0.28125 C 9.515625 -0.476562 9.421875 -0.726562 9.421875 -1.03125 L 9.421875 -23.140625 L 1.90625 -23.140625 C 1.625 -23.140625 1.382812 -23.234375 1.1875 -23.421875 C 1 -23.617188 0.90625 -23.867188 0.90625 -24.171875 L 0.90625 -27.890625 C 0.90625 -28.191406 1 -28.4375 1.1875 -28.625 C 1.382812 -28.820312 1.625 -28.921875 1.90625 -28.921875 L 23.546875 -28.921875 C 23.847656 -28.921875 24.09375 -28.820312 24.28125 -28.625 C 24.476562 -28.4375 24.578125 -28.191406 24.578125 -27.890625 L 24.578125 -24.171875 C 24.578125 -23.867188 24.476562 -23.617188 24.28125 -23.421875 C 24.09375 -23.234375 23.847656 -23.140625 23.546875 -23.140625 L 16.078125 -23.140625 L 16.078125 -1.03125 C 16.078125 -0.726562 15.976562 -0.476562 15.78125 -0.28125 C 15.582031 -0.09375 15.332031 0 15.03125 0 Z M 10.453125 0 "/></g></g></g><g fill="#563a2c" fill-opacity="1"><g transform="translate(399.267648, 888.473092)"><g/></g></g><g fill="#563a2c" fill-opacity="1"><g transform="translate(426.991291, 888.473092)"><g><path d="M 4.046875 0 C 3.773438 0 3.539062 -0.09375 3.34375 -0.28125 C 3.15625 -0.476562 3.0625 -0.726562 3.0625 -1.03125 L 3.0625 -27.890625 C 3.0625 -28.191406 3.15625 -28.4375 3.34375 -28.625 C 3.539062 -28.820312 3.773438 -28.921875 4.046875 -28.921875 L 16.359375 -28.921875 C 18.640625 -28.921875 20.515625 -28.585938 21.984375 -27.921875 C 23.460938 -27.265625 24.546875 -26.328125 25.234375 -25.109375 C 25.929688 -23.898438 26.28125 -22.484375 26.28125 -20.859375 C 26.28125 -19.835938 26.09375 -18.941406 25.71875 -18.171875 C 25.34375 -17.398438 24.882812 -16.765625 24.34375 -16.265625 C 23.8125 -15.773438 23.296875 -15.40625 22.796875 -15.15625 C 23.878906 -14.664062 24.832031 -13.847656 25.65625 -12.703125 C 26.476562 -11.554688 26.890625 -10.203125 26.890625 -8.640625 C 26.890625 -6.898438 26.5 -5.378906 25.71875 -4.078125 C 24.9375 -2.785156 23.785156 -1.78125 22.265625 -1.0625 C 20.753906 -0.351562 18.910156 0 16.734375 0 Z M 9.625 -4.875 L 15.953125 -4.875 C 17.296875 -4.875 18.3125 -5.25 19 -6 C 19.6875 -6.757812 20.03125 -7.648438 20.03125 -8.671875 C 20.03125 -9.742188 19.675781 -10.644531 18.96875 -11.375 C 18.269531 -12.101562 17.265625 -12.46875 15.953125 -12.46875 L 9.625 -12.46875 Z M 9.625 -17.234375 L 15.578125 -17.234375 C 16.867188 -17.234375 17.835938 -17.554688 18.484375 -18.203125 C 19.128906 -18.847656 19.453125 -19.679688 19.453125 -20.703125 C 19.453125 -21.710938 19.128906 -22.519531 18.484375 -23.125 C 17.835938 -23.738281 16.867188 -24.046875 15.578125 -24.046875 L 9.625 -24.046875 Z M 9.625 -17.234375 "/></g></g></g><g fill="#563a2c" fill-opacity="1"><g transform="translate(474.291816, 888.473092)"><g><path d="M 4.046875 0 C 3.773438 0 3.539062 -0.09375 3.34375 -0.28125 C 3.15625 -0.476562 3.0625 -0.726562 3.0625 -1.03125 L 3.0625 -27.890625 C 3.0625 -28.191406 3.15625 -28.4375 3.34375 -28.625 C 3.539062 -28.820312 3.773438 -28.921875 4.046875 -28.921875 L 8.71875 -28.921875 C 8.988281 -28.921875 9.21875 -28.820312 9.40625 -28.625 C 9.601562 -28.4375 9.703125 -28.191406 9.703125 -27.890625 L 9.703125 -5.578125 L 22.515625 -5.578125 C 22.816406 -5.578125 23.0625 -5.476562 23.25 -5.28125 C 23.445312 -5.09375 23.546875 -4.847656 23.546875 -4.546875 L 23.546875 -1.03125 C 23.546875 -0.726562 23.445312 -0.476562 23.25 -0.28125 C 23.0625 -0.09375 22.816406 0 22.515625 0 Z M 4.046875 0 "/></g></g></g><g fill="#563a2c" fill-opacity="1"><g transform="translate(517.173095, 888.473092)"><g><path d="M 14.546875 0.40625 C 12.035156 0.40625 9.867188 -0.00390625 8.046875 -0.828125 C 6.234375 -1.648438 4.816406 -2.894531 3.796875 -4.5625 C 2.773438 -6.226562 2.222656 -8.328125 2.140625 -10.859375 C 2.117188 -12.046875 2.109375 -13.222656 2.109375 -14.390625 C 2.109375 -15.566406 2.117188 -16.757812 2.140625 -17.96875 C 2.222656 -20.445312 2.78125 -22.53125 3.8125 -24.21875 C 4.851562 -25.914062 6.285156 -27.191406 8.109375 -28.046875 C 9.941406 -28.898438 12.085938 -29.328125 14.546875 -29.328125 C 16.960938 -29.328125 19.085938 -28.898438 20.921875 -28.046875 C 22.753906 -27.191406 24.191406 -25.914062 25.234375 -24.21875 C 26.285156 -22.53125 26.851562 -20.445312 26.9375 -17.96875 C 26.988281 -16.757812 27.015625 -15.566406 27.015625 -14.390625 C 27.015625 -13.222656 26.988281 -12.046875 26.9375 -10.859375 C 26.851562 -8.328125 26.296875 -6.226562 25.265625 -4.5625 C 24.234375 -2.894531 22.804688 -1.648438 20.984375 -0.828125 C 19.171875 -0.00390625 17.023438 0.40625 14.546875 0.40625 Z M 14.546875 -4.953125 C 16.140625 -4.953125 17.453125 -5.429688 18.484375 -6.390625 C 19.515625 -7.359375 20.0625 -8.921875 20.125 -11.078125 C 20.175781 -12.285156 20.203125 -13.421875 20.203125 -14.484375 C 20.203125 -15.546875 20.175781 -16.664062 20.125 -17.84375 C 20.09375 -19.28125 19.828125 -20.453125 19.328125 -21.359375 C 18.835938 -22.265625 18.1875 -22.925781 17.375 -23.34375 C 16.5625 -23.757812 15.617188 -23.96875 14.546875 -23.96875 C 13.492188 -23.96875 12.554688 -23.757812 11.734375 -23.34375 C 10.910156 -22.925781 10.25 -22.265625 9.75 -21.359375 C 9.25 -20.453125 8.972656 -19.28125 8.921875 -17.84375 C 8.890625 -16.664062 8.875 -15.546875 8.875 -14.484375 C 8.875 -13.421875 8.890625 -12.285156 8.921875 -11.078125 C 9.003906 -8.921875 9.554688 -7.359375 10.578125 -6.390625 C 11.597656 -5.429688 12.921875 -4.953125 14.546875 -4.953125 Z M 14.546875 -4.953125 "/></g></g></g><g fill="#563a2c" fill-opacity="1"><g transform="translate(564.804025, 888.473092)"><g><path d="M 14.671875 0.40625 C 12.078125 0.40625 9.863281 -0.0234375 8.03125 -0.890625 C 6.195312 -1.753906 4.773438 -3.019531 3.765625 -4.6875 C 2.765625 -6.351562 2.222656 -8.367188 2.140625 -10.734375 C 2.117188 -11.921875 2.109375 -13.1875 2.109375 -14.53125 C 2.109375 -15.882812 2.117188 -17.171875 2.140625 -18.390625 C 2.222656 -20.703125 2.765625 -22.671875 3.765625 -24.296875 C 4.773438 -25.921875 6.207031 -27.164062 8.0625 -28.03125 C 9.925781 -28.894531 12.128906 -29.328125 14.671875 -29.328125 C 16.703125 -29.328125 18.488281 -29.066406 20.03125 -28.546875 C 21.570312 -28.023438 22.875 -27.34375 23.9375 -26.5 C 25 -25.65625 25.796875 -24.738281 26.328125 -23.75 C 26.867188 -22.757812 27.15625 -21.796875 27.1875 -20.859375 C 27.1875 -20.609375 27.101562 -20.398438 26.9375 -20.234375 C 26.769531 -20.078125 26.550781 -20 26.28125 -20 L 21.15625 -20 C 20.875 -20 20.65625 -20.050781 20.5 -20.15625 C 20.351562 -20.269531 20.226562 -20.4375 20.125 -20.65625 C 19.925781 -21.125 19.613281 -21.617188 19.1875 -22.140625 C 18.757812 -22.660156 18.1875 -23.09375 17.46875 -23.4375 C 16.757812 -23.789062 15.828125 -23.96875 14.671875 -23.96875 C 12.929688 -23.96875 11.554688 -23.507812 10.546875 -22.59375 C 9.546875 -21.6875 9.003906 -20.210938 8.921875 -18.171875 C 8.835938 -15.804688 8.835938 -13.398438 8.921875 -10.953125 C 9.003906 -8.828125 9.566406 -7.296875 10.609375 -6.359375 C 11.660156 -5.421875 13.039062 -4.953125 14.75 -4.953125 C 15.875 -4.953125 16.882812 -5.148438 17.78125 -5.546875 C 18.675781 -5.953125 19.382812 -6.570312 19.90625 -7.40625 C 20.4375 -8.25 20.703125 -9.332031 20.703125 -10.65625 L 20.703125 -11.6875 L 16.1875 -11.6875 C 15.914062 -11.6875 15.679688 -11.789062 15.484375 -12 C 15.296875 -12.207031 15.203125 -12.445312 15.203125 -12.71875 L 15.203125 -15.375 C 15.203125 -15.675781 15.296875 -15.921875 15.484375 -16.109375 C 15.679688 -16.304688 15.914062 -16.40625 16.1875 -16.40625 L 26.359375 -16.40625 C 26.660156 -16.40625 26.90625 -16.304688 27.09375 -16.109375 C 27.289062 -15.921875 27.390625 -15.675781 27.390625 -15.375 L 27.390625 -10.859375 C 27.390625 -8.492188 26.863281 -6.46875 25.8125 -4.78125 C 24.769531 -3.101562 23.289062 -1.816406 21.375 -0.921875 C 19.46875 -0.0351562 17.234375 0.40625 14.671875 0.40625 Z M 14.671875 0.40625 "/></g></g></g><g fill="#563a2c" fill-opacity="1"><g transform="translate(612.72406, 888.473092)"><g><path d="M 13.46875 0.40625 C 10.820312 0.40625 8.609375 0.0195312 6.828125 -0.75 C 5.054688 -1.519531 3.71875 -2.523438 2.8125 -3.765625 C 1.90625 -5.003906 1.421875 -6.320312 1.359375 -7.71875 C 1.359375 -7.96875 1.441406 -8.175781 1.609375 -8.34375 C 1.773438 -8.507812 1.984375 -8.59375 2.234375 -8.59375 L 6.6875 -8.59375 C 7.050781 -8.59375 7.328125 -8.523438 7.515625 -8.390625 C 7.710938 -8.253906 7.894531 -8.070312 8.0625 -7.84375 C 8.25 -7.351562 8.554688 -6.882812 8.984375 -6.4375 C 9.410156 -6 9.988281 -5.640625 10.71875 -5.359375 C 11.445312 -5.085938 12.363281 -4.953125 13.46875 -4.953125 C 15.257812 -4.953125 16.601562 -5.238281 17.5 -5.8125 C 18.394531 -6.394531 18.84375 -7.1875 18.84375 -8.1875 C 18.84375 -8.875 18.597656 -9.4375 18.109375 -9.875 C 17.628906 -10.3125 16.875 -10.707031 15.84375 -11.0625 C 14.8125 -11.425781 13.441406 -11.800781 11.734375 -12.1875 C 9.671875 -12.65625 7.914062 -13.238281 6.46875 -13.9375 C 5.019531 -14.644531 3.929688 -15.554688 3.203125 -16.671875 C 2.472656 -17.785156 2.109375 -19.171875 2.109375 -20.828125 C 2.109375 -22.472656 2.5625 -23.9375 3.46875 -25.21875 C 4.375 -26.5 5.65625 -27.503906 7.3125 -28.234375 C 8.96875 -28.960938 10.9375 -29.328125 13.21875 -29.328125 C 15.0625 -29.328125 16.691406 -29.078125 18.109375 -28.578125 C 19.535156 -28.085938 20.722656 -27.441406 21.671875 -26.640625 C 22.617188 -25.847656 23.335938 -24.992188 23.828125 -24.078125 C 24.328125 -23.171875 24.59375 -22.289062 24.625 -21.4375 C 24.625 -21.1875 24.546875 -20.972656 24.390625 -20.796875 C 24.242188 -20.617188 24.03125 -20.53125 23.75 -20.53125 L 19.125 -20.53125 C 18.851562 -20.53125 18.601562 -20.582031 18.375 -20.6875 C 18.15625 -20.800781 17.96875 -21 17.8125 -21.28125 C 17.664062 -22.019531 17.1875 -22.648438 16.375 -23.171875 C 15.5625 -23.703125 14.507812 -23.96875 13.21875 -23.96875 C 11.875 -23.96875 10.804688 -23.722656 10.015625 -23.234375 C 9.234375 -22.753906 8.84375 -22.003906 8.84375 -20.984375 C 8.84375 -20.328125 9.046875 -19.769531 9.453125 -19.3125 C 9.867188 -18.851562 10.546875 -18.453125 11.484375 -18.109375 C 12.421875 -17.765625 13.6875 -17.398438 15.28125 -17.015625 C 17.675781 -16.523438 19.628906 -15.925781 21.140625 -15.21875 C 22.660156 -14.519531 23.78125 -13.625 24.5 -12.53125 C 25.21875 -11.445312 25.578125 -10.078125 25.578125 -8.421875 C 25.578125 -6.578125 25.066406 -4.992188 24.046875 -3.671875 C 23.023438 -2.347656 21.601562 -1.335938 19.78125 -0.640625 C 17.96875 0.0546875 15.863281 0.40625 13.46875 0.40625 Z M 13.46875 0.40625 "/></g></g></g><g fill="#563a2c" fill-opacity="1"><g transform="translate(257.885306, 822.08434)"><g><path d="M 41.953125 -54.28125 C 36.191406 -54.28125 31.773438 -52.519531 28.703125 -49 C 25.640625 -45.488281 24.109375 -40.519531 24.109375 -34.09375 C 24.109375 -27.59375 25.804688 -22.582031 29.203125 -19.0625 C 32.609375 -15.550781 37.191406 -13.796875 42.953125 -13.796875 C 46.015625 -13.796875 48.613281 -14.207031 50.75 -15.03125 C 52.882812 -15.851562 54.921875 -16.785156 56.859375 -17.828125 C 58.128906 -16.785156 59.117188 -15.535156 59.828125 -14.078125 C 60.546875 -12.617188 60.90625 -10.914062 60.90625 -8.96875 C 60.90625 -5.90625 59.203125 -3.304688 55.796875 -1.171875 C 52.390625 0.953125 47.210938 2.015625 40.265625 2.015625 C 35.253906 2.015625 30.539062 1.304688 26.125 -0.109375 C 21.71875 -1.535156 17.867188 -3.722656 14.578125 -6.671875 C 11.285156 -9.628906 8.6875 -13.367188 6.78125 -17.890625 C 4.875 -22.410156 3.921875 -27.8125 3.921875 -34.09375 C 3.921875 -39.925781 4.835938 -45.066406 6.671875 -49.515625 C 8.503906 -53.960938 11.007812 -57.71875 14.1875 -60.78125 C 17.363281 -63.851562 21.082031 -66.171875 25.34375 -67.734375 C 29.601562 -69.304688 34.164062 -70.09375 39.03125 -70.09375 C 45.90625 -70.09375 51.226562 -68.972656 55 -66.734375 C 58.78125 -64.492188 60.671875 -61.613281 60.671875 -58.09375 C 60.671875 -56.15625 60.1875 -54.472656 59.21875 -53.046875 C 58.25 -51.628906 57.128906 -50.507812 55.859375 -49.6875 C 53.910156 -50.957031 51.832031 -52.039062 49.625 -52.9375 C 47.425781 -53.832031 44.867188 -54.28125 41.953125 -54.28125 Z M 41.953125 -54.28125 "/></g></g></g><g fill="#563a2c" fill-opacity="1"><g transform="translate(315.1893, 822.08434)"><g><path d="M 21.765625 -65.953125 C 23.035156 -66.691406 24.957031 -67.398438 27.53125 -68.078125 C 30.113281 -68.753906 32.710938 -69.09375 35.328125 -69.09375 C 39.066406 -69.09375 42.375 -68.546875 45.25 -67.453125 C 48.132812 -66.367188 49.988281 -64.671875 50.8125 -62.359375 C 52.15625 -58.472656 53.609375 -53.945312 55.171875 -48.78125 C 56.742188 -43.625 58.316406 -38.296875 59.890625 -32.796875 C 61.460938 -27.304688 62.992188 -21.890625 64.484375 -16.546875 C 65.984375 -11.203125 67.296875 -6.472656 68.421875 -2.359375 C 67.515625 -1.304688 66.164062 -0.460938 64.375 0.171875 C 62.582031 0.804688 60.453125 1.125 57.984375 1.125 C 56.191406 1.125 54.675781 0.972656 53.4375 0.671875 C 52.207031 0.367188 51.195312 -0.078125 50.40625 -0.671875 C 49.625 -1.265625 48.988281 -2.046875 48.5 -3.015625 C 48.019531 -3.992188 47.59375 -5.117188 47.21875 -6.390625 L 45.203125 -14.125 L 24.90625 -14.125 C 24.300781 -11.882812 23.695312 -9.566406 23.09375 -7.171875 C 22.5 -4.785156 21.90625 -2.46875 21.3125 -0.21875 C 20.257812 0.15625 19.15625 0.472656 18 0.734375 C 16.84375 0.992188 15.441406 1.125 13.796875 1.125 C 9.984375 1.125 7.160156 0.472656 5.328125 -0.828125 C 3.492188 -2.140625 2.578125 -3.957031 2.578125 -6.28125 C 2.578125 -7.320312 2.726562 -8.363281 3.03125 -9.40625 C 3.332031 -10.457031 3.664062 -11.695312 4.03125 -13.125 C 4.5625 -15.144531 5.289062 -17.648438 6.21875 -20.640625 C 7.15625 -23.628906 8.179688 -26.859375 9.296875 -30.328125 C 10.421875 -33.804688 11.617188 -37.378906 12.890625 -41.046875 C 14.160156 -44.710938 15.359375 -48.171875 16.484375 -51.421875 C 17.609375 -54.671875 18.632812 -57.566406 19.5625 -60.109375 C 20.5 -62.648438 21.234375 -64.597656 21.765625 -65.953125 Z M 35.21875 -51.484375 C 34.164062 -48.335938 32.984375 -44.835938 31.671875 -40.984375 C 30.367188 -37.140625 29.195312 -33.234375 28.15625 -29.265625 L 42.0625 -29.265625 C 41.007812 -33.304688 39.941406 -37.25 38.859375 -41.09375 C 37.773438 -44.945312 36.785156 -48.410156 35.890625 -51.484375 Z M 35.21875 -51.484375 "/></g></g></g><g fill="#563a2c" fill-opacity="1"><g transform="translate(378.773317, 822.08434)"><g><path d="M 4.15625 -52.265625 C 3.625 -53.085938 3.132812 -54.207031 2.6875 -55.625 C 2.238281 -57.050781 2.015625 -58.546875 2.015625 -60.109375 C 2.015625 -63.023438 2.664062 -65.117188 3.96875 -66.390625 C 5.28125 -67.660156 6.984375 -68.296875 9.078125 -68.296875 L 57.984375 -68.296875 C 58.503906 -67.472656 58.988281 -66.351562 59.4375 -64.9375 C 59.882812 -63.519531 60.109375 -62.023438 60.109375 -60.453125 C 60.109375 -57.535156 59.453125 -55.441406 58.140625 -54.171875 C 56.835938 -52.898438 55.140625 -52.265625 53.046875 -52.265625 L 40.59375 -52.265625 L 40.59375 -0.453125 C 39.769531 -0.222656 38.476562 0 36.71875 0.21875 C 34.96875 0.445312 33.234375 0.5625 31.515625 0.5625 C 29.796875 0.5625 28.28125 0.429688 26.96875 0.171875 C 25.664062 -0.0859375 24.5625 -0.554688 23.65625 -1.234375 C 22.757812 -1.910156 22.085938 -2.84375 21.640625 -4.03125 C 21.191406 -5.226562 20.96875 -6.800781 20.96875 -8.75 L 20.96875 -52.265625 Z M 4.15625 -52.265625 "/></g></g></g><g fill="#563a2c" fill-opacity="1"><g transform="translate(434.395163, 822.08434)"><g><path d="M 5.390625 -69.65625 C 5.390625 -72.488281 6.34375 -74.878906 8.25 -76.828125 C 10.15625 -78.773438 12.675781 -79.75 15.8125 -79.75 C 18.957031 -79.75 21.484375 -78.773438 23.390625 -76.828125 C 25.296875 -74.878906 26.25 -72.488281 26.25 -69.65625 C 26.25 -66.8125 25.296875 -64.414062 23.390625 -62.46875 C 21.484375 -60.53125 18.957031 -59.5625 15.8125 -59.5625 C 12.675781 -59.5625 10.15625 -60.53125 8.25 -62.46875 C 6.34375 -64.414062 5.390625 -66.8125 5.390625 -69.65625 Z M 25.34375 -0.109375 C 24.519531 0.0351562 23.304688 0.238281 21.703125 0.5 C 20.097656 0.757812 18.472656 0.890625 16.828125 0.890625 C 15.179688 0.890625 13.703125 0.773438 12.390625 0.546875 C 11.085938 0.328125 9.984375 -0.113281 9.078125 -0.78125 C 8.179688 -1.457031 7.488281 -2.375 7 -3.53125 C 6.519531 -4.6875 6.28125 -6.203125 6.28125 -8.078125 L 6.28125 -53.71875 C 7.101562 -53.875 8.316406 -54.082031 9.921875 -54.34375 C 11.535156 -54.601562 13.160156 -54.734375 14.796875 -54.734375 C 16.441406 -54.734375 17.921875 -54.617188 19.234375 -54.390625 C 20.546875 -54.171875 21.648438 -53.722656 22.546875 -53.046875 C 23.441406 -52.378906 24.128906 -51.460938 24.609375 -50.296875 C 25.097656 -49.140625 25.34375 -47.628906 25.34375 -45.765625 Z M 25.34375 -0.109375 "/></g></g></g><g fill="#563a2c" fill-opacity="1"><g transform="translate(459.289656, 822.08434)"><g><path d="M 36.5625 -41.15625 C 34.695312 -41.15625 32.921875 -40.851562 31.234375 -40.25 C 29.554688 -39.65625 28.097656 -38.78125 26.859375 -37.625 C 25.628906 -36.46875 24.640625 -35.03125 23.890625 -33.3125 C 23.140625 -31.59375 22.765625 -29.570312 22.765625 -27.25 C 22.765625 -22.613281 24.09375 -19.132812 26.75 -16.8125 C 29.40625 -14.5 32.640625 -13.34375 36.453125 -13.34375 C 38.691406 -13.34375 40.632812 -13.601562 42.28125 -14.125 C 43.925781 -14.65625 45.382812 -15.21875 46.65625 -15.8125 C 48.15625 -14.769531 49.273438 -13.628906 50.015625 -12.390625 C 50.765625 -11.160156 51.140625 -9.6875 51.140625 -7.96875 C 51.140625 -4.894531 49.679688 -2.515625 46.765625 -0.828125 C 43.847656 0.847656 39.8125 1.6875 34.65625 1.6875 C 29.945312 1.6875 25.6875 0.992188 21.875 -0.390625 C 18.0625 -1.773438 14.789062 -3.71875 12.0625 -6.21875 C 9.332031 -8.726562 7.21875 -11.738281 5.71875 -15.25 C 4.226562 -18.769531 3.484375 -22.660156 3.484375 -26.921875 C 3.484375 -31.847656 4.285156 -36.160156 5.890625 -39.859375 C 7.492188 -43.566406 9.675781 -46.613281 12.4375 -49 C 15.207031 -51.394531 18.40625 -53.191406 22.03125 -54.390625 C 25.664062 -55.585938 29.5 -56.1875 33.53125 -56.1875 C 38.914062 -56.1875 43.066406 -55.210938 45.984375 -53.265625 C 48.898438 -51.328125 50.359375 -48.828125 50.359375 -45.765625 C 50.359375 -44.335938 50.019531 -43.003906 49.34375 -41.765625 C 48.675781 -40.535156 47.894531 -39.472656 47 -38.578125 C 45.726562 -39.179688 44.191406 -39.757812 42.390625 -40.3125 C 40.597656 -40.875 38.65625 -41.15625 36.5625 -41.15625 Z M 36.5625 -41.15625 "/></g></g></g><g fill="#563a2c" fill-opacity="1"><g transform="translate(507.397864, 822.08434)"><g><path d="M 25.234375 -0.109375 C 24.410156 0.0351562 23.191406 0.238281 21.578125 0.5 C 19.972656 0.757812 18.351562 0.890625 16.71875 0.890625 C 15.070312 0.890625 13.59375 0.773438 12.28125 0.546875 C 10.96875 0.328125 9.863281 -0.113281 8.96875 -0.78125 C 8.070312 -1.457031 7.378906 -2.375 6.890625 -3.53125 C 6.410156 -4.6875 6.171875 -6.203125 6.171875 -8.078125 L 6.171875 -73.125 C 6.992188 -73.269531 8.207031 -73.472656 9.8125 -73.734375 C 11.414062 -74.003906 13.039062 -74.140625 14.6875 -74.140625 C 16.332031 -74.140625 17.804688 -74.023438 19.109375 -73.796875 C 20.421875 -73.578125 21.523438 -73.128906 22.421875 -72.453125 C 23.328125 -71.773438 24.019531 -70.859375 24.5 -69.703125 C 24.988281 -68.546875 25.234375 -67.03125 25.234375 -65.15625 Z M 25.234375 -0.109375 "/></g></g></g><g fill="#563a2c" fill-opacity="1"><g transform="translate(532.068091, 822.08434)"><g><path d="M 34.65625 1.796875 C 30.238281 1.796875 26.144531 1.179688 22.375 -0.046875 C 18.601562 -1.285156 15.3125 -3.140625 12.5 -5.609375 C 9.695312 -8.078125 7.492188 -11.179688 5.890625 -14.921875 C 4.285156 -18.660156 3.484375 -23.03125 3.484375 -28.03125 C 3.484375 -32.96875 4.285156 -37.210938 5.890625 -40.765625 C 7.492188 -44.316406 9.601562 -47.234375 12.21875 -49.515625 C 14.84375 -51.796875 17.835938 -53.476562 21.203125 -54.5625 C 24.566406 -55.644531 28.003906 -56.1875 31.515625 -56.1875 C 35.472656 -56.1875 39.078125 -55.585938 42.328125 -54.390625 C 45.585938 -53.191406 48.394531 -51.546875 50.75 -49.453125 C 53.101562 -47.367188 54.929688 -44.867188 56.234375 -41.953125 C 57.546875 -39.035156 58.203125 -35.851562 58.203125 -32.40625 C 58.203125 -29.863281 57.492188 -27.921875 56.078125 -26.578125 C 54.660156 -25.234375 52.679688 -24.375 50.140625 -24 L 22.4375 -19.859375 C 23.257812 -17.390625 24.941406 -15.535156 27.484375 -14.296875 C 30.023438 -13.066406 32.9375 -12.453125 36.21875 -12.453125 C 39.289062 -12.453125 42.191406 -12.84375 44.921875 -13.625 C 47.648438 -14.40625 49.875 -15.320312 51.59375 -16.375 C 52.789062 -15.625 53.800781 -14.578125 54.625 -13.234375 C 55.445312 -11.890625 55.859375 -10.46875 55.859375 -8.96875 C 55.859375 -5.601562 54.285156 -3.097656 51.140625 -1.453125 C 48.742188 -0.179688 46.050781 0.675781 43.0625 1.125 C 40.070312 1.570312 37.269531 1.796875 34.65625 1.796875 Z M 31.515625 -42.28125 C 29.722656 -42.28125 28.171875 -41.976562 26.859375 -41.375 C 25.554688 -40.78125 24.492188 -40.015625 23.671875 -39.078125 C 22.847656 -38.148438 22.226562 -37.101562 21.8125 -35.9375 C 21.40625 -34.78125 21.160156 -33.601562 21.078125 -32.40625 L 40.265625 -35.546875 C 40.035156 -37.046875 39.210938 -38.539062 37.796875 -40.03125 C 36.378906 -41.53125 34.285156 -42.28125 31.515625 -42.28125 Z M 31.515625 -42.28125 "/></g></g></g><g fill="#563a2c" fill-opacity="1"><g transform="translate(586.904904, 822.08434)"><g><path d="M 51.8125 -16.265625 C 51.8125 -10.578125 49.679688 -6.125 45.421875 -2.90625 C 41.160156 0.300781 34.878906 1.90625 26.578125 1.90625 C 23.441406 1.90625 20.523438 1.679688 17.828125 1.234375 C 15.140625 0.785156 12.84375 0.09375 10.9375 -0.84375 C 9.03125 -1.78125 7.535156 -2.957031 6.453125 -4.375 C 5.367188 -5.789062 4.828125 -7.472656 4.828125 -9.421875 C 4.828125 -11.210938 5.195312 -12.722656 5.9375 -13.953125 C 6.6875 -15.191406 7.585938 -16.222656 8.640625 -17.046875 C 10.804688 -15.847656 13.289062 -14.78125 16.09375 -13.84375 C 18.894531 -12.914062 22.128906 -12.453125 25.796875 -12.453125 C 28.109375 -12.453125 29.878906 -12.785156 31.109375 -13.453125 C 32.347656 -14.128906 32.96875 -15.03125 32.96875 -16.15625 C 32.96875 -17.195312 32.519531 -18.015625 31.625 -18.609375 C 30.726562 -19.210938 29.234375 -19.703125 27.140625 -20.078125 L 23.78125 -20.75 C 17.269531 -22.019531 12.425781 -24.019531 9.25 -26.75 C 6.070312 -29.476562 4.484375 -33.382812 4.484375 -38.46875 C 4.484375 -41.238281 5.082031 -43.742188 6.28125 -45.984375 C 7.476562 -48.222656 9.160156 -50.085938 11.328125 -51.578125 C 13.492188 -53.078125 16.09375 -54.238281 19.125 -55.0625 C 22.15625 -55.882812 25.5 -56.296875 29.15625 -56.296875 C 31.925781 -56.296875 34.523438 -56.085938 36.953125 -55.671875 C 39.378906 -55.265625 41.488281 -54.648438 43.28125 -53.828125 C 45.082031 -53.003906 46.503906 -51.9375 47.546875 -50.625 C 48.597656 -49.320312 49.125 -47.773438 49.125 -45.984375 C 49.125 -44.265625 48.804688 -42.785156 48.171875 -41.546875 C 47.535156 -40.316406 46.734375 -39.289062 45.765625 -38.46875 C 45.160156 -38.84375 44.257812 -39.234375 43.0625 -39.640625 C 41.875 -40.054688 40.566406 -40.429688 39.140625 -40.765625 C 37.722656 -41.109375 36.285156 -41.390625 34.828125 -41.609375 C 33.367188 -41.835938 32.039062 -41.953125 30.84375 -41.953125 C 28.375 -41.953125 26.46875 -41.671875 25.125 -41.109375 C 23.78125 -40.546875 23.109375 -39.664062 23.109375 -38.46875 C 23.109375 -37.644531 23.476562 -36.972656 24.21875 -36.453125 C 24.96875 -35.929688 26.390625 -35.445312 28.484375 -35 L 31.96875 -34.203125 C 39.144531 -32.554688 44.242188 -30.296875 47.265625 -27.421875 C 50.296875 -24.546875 51.8125 -20.828125 51.8125 -16.265625 Z M 51.8125 -16.265625 "/></g></g></g></svg>