<svg xmlns="http://www.w3.org/2000/svg" xmlns:xlink="http://www.w3.org/1999/xlink" width="200" zoomAndPan="magnify" viewBox="0 0 150 60" height="80" preserveAspectRatio="xMidYMid meet" version="1.0"><defs><g/><clipPath id="9f9b456c77"><path d="M 82.1875 13 L 150 13 L 150 31 L 82.1875 31 Z M 82.1875 13 " clip-rule="nonzero"/></clipPath></defs><g fill="#ff8d55" fill-opacity="0.4"><g transform="translate(-0.746384, 29.37696)"><g><path d="M 14.003906 -12.96875 L 12.484375 -5.359375 L 10.230469 -12.984375 L 7.5625 -12.984375 L 7.5625 -12.96875 L 5.328125 -5.359375 L 3.789062 -12.96875 L 1.132812 -12.96875 L 3.757812 0 L 6.410156 0 L 8.90625 -8.453125 L 11.398438 0 L 14.054688 0 L 16.660156 -12.96875 Z M 14.003906 -12.96875 "/></g></g></g><g fill="#ff8d55" fill-opacity="0.4"><g transform="translate(17.041158, 29.37696)"><g><path d="M 8.824219 -12.855469 L 8.824219 -6.945312 L 3.5625 -6.945312 L 3.5625 -12.855469 L 1.132812 -12.855469 L 1.132812 0.113281 L 3.5625 0.113281 L 3.5625 -4.535156 L 8.824219 -4.535156 L 8.824219 0.113281 L 11.234375 0.113281 L 11.234375 -12.855469 Z M 8.824219 -12.855469 "/></g></g></g><g fill="#ff8d55" fill-opacity="0.4"><g transform="translate(29.406656, 29.37696)"><g><path d="M 1.132812 -12.953125 L 3.5625 -12.953125 L 3.5625 -0.046875 L 1.132812 -0.046875 Z M 1.132812 -12.953125 "/></g></g></g><g fill="#ff8d55" fill-opacity="0.4"><g transform="translate(34.100363, 29.37696)"><g><path d="M 6.507812 0.160156 L 6.800781 0.160156 C 9.585938 0.144531 11.171875 -1.667969 11.285156 -3.464844 C 11.414062 -5.34375 9.988281 -7.449219 6.558594 -7.886719 L 6.523438 -7.886719 C 5.277344 -8.03125 3.984375 -8.644531 4.046875 -9.550781 C 4.097656 -10.199219 5.066406 -10.800781 6.832031 -10.71875 L 6.882812 -10.71875 C 7.851562 -10.71875 9.019531 -10.25 9.617188 -9.8125 L 11.007812 -11.753906 C 10.085938 -12.417969 8.46875 -13.097656 6.914062 -13.097656 C 3.480469 -13.277344 1.8125 -11.527344 1.667969 -9.746094 C 1.585938 -8.710938 2.023438 -7.691406 2.867188 -6.914062 C 3.691406 -6.152344 4.875 -5.667969 6.265625 -5.519531 C 8.160156 -5.261719 8.953125 -4.386719 8.90625 -3.625 C 8.855469 -2.929688 8.113281 -2.234375 6.769531 -2.234375 L 6.6875 -2.234375 C 6.671875 -2.234375 4.90625 -2.136719 3.820312 -3.027344 C 3.546875 -3.238281 3.320312 -3.496094 3.109375 -3.804688 L 1.132812 -2.460938 C 1.457031 -1.976562 1.863281 -1.539062 2.316406 -1.164062 C 3.789062 0.03125 5.730469 0.160156 6.507812 0.160156 Z M 6.507812 0.160156 "/></g></g></g><g fill="#ff8d55" fill-opacity="0.4"><g transform="translate(46.514417, 29.37696)"><g><path d="M 8.355469 0 L 11.253906 0 L 6.652344 -6.800781 L 11.105469 -12.953125 L 8.339844 -12.953125 L 3.5625 -6.378906 L 3.5625 -12.953125 L 1.132812 -12.953125 L 1.132812 0 L 3.5625 0 L 3.5625 -2.558594 L 5.164062 -4.777344 Z M 8.355469 0 "/></g></g></g><g fill="#ff8d55" fill-opacity="0.4"><g transform="translate(58.896097, 29.37696)"><g><path d="M 8.644531 -10.554688 L 8.644531 -12.96875 L 1.132812 -12.96875 L 1.132812 0 L 8.644531 0 L 8.644531 -2.414062 L 3.5625 -2.414062 L 3.5625 -5.292969 L 6.589844 -5.292969 L 6.589844 -7.707031 L 3.5625 -7.707031 L 3.5625 -10.554688 Z M 8.644531 -10.554688 "/></g></g></g><g fill="#ff8d55" fill-opacity="0.4"><g transform="translate(68.671956, 29.37696)"><g><path d="M 11.253906 -8.09375 C 11.253906 -10.78125 10.023438 -12.953125 6.71875 -12.953125 L 1.132812 -12.953125 L 1.132812 0 L 3.5625 0 L 3.5625 -3.222656 L 6.71875 -3.222656 C 7.011719 -3.222656 7.285156 -3.238281 7.542969 -3.269531 L 8.710938 0 L 11.253906 0 L 9.777344 -4.144531 C 10.847656 -5.035156 11.253906 -6.476562 11.253906 -8.09375 Z M 3.5625 -5.652344 L 3.5625 -10.539062 L 6.71875 -10.539062 C 7.917969 -10.539062 8.242188 -10.136719 8.355469 -10.003906 C 8.660156 -9.617188 8.824219 -8.9375 8.824219 -8.09375 C 8.824219 -7.203125 8.660156 -6.523438 8.371094 -6.167969 C 8.09375 -5.8125 7.542969 -5.652344 6.71875 -5.652344 Z M 3.5625 -5.652344 "/></g></g></g><g fill="#ce8460" fill-opacity="1"><g transform="translate(0.198673, 29.014186)"><g><path d="M 14.003906 -12.96875 L 12.484375 -5.359375 L 10.230469 -12.984375 L 7.5625 -12.984375 L 7.5625 -12.96875 L 5.328125 -5.359375 L 3.789062 -12.96875 L 1.132812 -12.96875 L 3.757812 0 L 6.410156 0 L 8.90625 -8.453125 L 11.398438 0 L 14.054688 0 L 16.660156 -12.96875 Z M 14.003906 -12.96875 "/></g></g></g><g fill="#ce8460" fill-opacity="1"><g transform="translate(17.986215, 29.014186)"><g><path d="M 8.824219 -12.855469 L 8.824219 -6.945312 L 3.5625 -6.945312 L 3.5625 -12.855469 L 1.132812 -12.855469 L 1.132812 0.113281 L 3.5625 0.113281 L 3.5625 -4.535156 L 8.824219 -4.535156 L 8.824219 0.113281 L 11.234375 0.113281 L 11.234375 -12.855469 Z M 8.824219 -12.855469 "/></g></g></g><g fill="#ce8460" fill-opacity="1"><g transform="translate(30.351713, 29.014186)"><g><path d="M 1.132812 -12.953125 L 3.5625 -12.953125 L 3.5625 -0.046875 L 1.132812 -0.046875 Z M 1.132812 -12.953125 "/></g></g></g><g fill="#ce8460" fill-opacity="1"><g transform="translate(35.04542, 29.014186)"><g><path d="M 6.507812 0.160156 L 6.800781 0.160156 C 9.585938 0.144531 11.171875 -1.667969 11.285156 -3.464844 C 11.414062 -5.34375 9.988281 -7.449219 6.558594 -7.886719 L 6.523438 -7.886719 C 5.277344 -8.03125 3.984375 -8.644531 4.046875 -9.550781 C 4.097656 -10.199219 5.066406 -10.800781 6.832031 -10.71875 L 6.882812 -10.71875 C 7.851562 -10.71875 9.019531 -10.25 9.617188 -9.8125 L 11.007812 -11.753906 C 10.085938 -12.417969 8.46875 -13.097656 6.914062 -13.097656 C 3.480469 -13.277344 1.8125 -11.527344 1.667969 -9.746094 C 1.585938 -8.710938 2.023438 -7.691406 2.867188 -6.914062 C 3.691406 -6.152344 4.875 -5.667969 6.265625 -5.519531 C 8.160156 -5.261719 8.953125 -4.386719 8.90625 -3.625 C 8.855469 -2.929688 8.113281 -2.234375 6.769531 -2.234375 L 6.6875 -2.234375 C 6.671875 -2.234375 4.90625 -2.136719 3.820312 -3.027344 C 3.546875 -3.238281 3.320312 -3.496094 3.109375 -3.804688 L 1.132812 -2.460938 C 1.457031 -1.976562 1.863281 -1.539062 2.316406 -1.164062 C 3.789062 0.03125 5.730469 0.160156 6.507812 0.160156 Z M 6.507812 0.160156 "/></g></g></g><g fill="#ce8460" fill-opacity="1"><g transform="translate(47.459474, 29.014186)"><g><path d="M 8.355469 0 L 11.253906 0 L 6.652344 -6.800781 L 11.105469 -12.953125 L 8.339844 -12.953125 L 3.5625 -6.378906 L 3.5625 -12.953125 L 1.132812 -12.953125 L 1.132812 0 L 3.5625 0 L 3.5625 -2.558594 L 5.164062 -4.777344 Z M 8.355469 0 "/></g></g></g><g fill="#ce8460" fill-opacity="1"><g transform="translate(59.841153, 29.014186)"><g><path d="M 8.644531 -10.554688 L 8.644531 -12.96875 L 1.132812 -12.96875 L 1.132812 0 L 8.644531 0 L 8.644531 -2.414062 L 3.5625 -2.414062 L 3.5625 -5.292969 L 6.589844 -5.292969 L 6.589844 -7.707031 L 3.5625 -7.707031 L 3.5625 -10.554688 Z M 8.644531 -10.554688 "/></g></g></g><g fill="#ce8460" fill-opacity="1"><g transform="translate(69.617013, 29.014186)"><g><path d="M 11.253906 -8.09375 C 11.253906 -10.78125 10.023438 -12.953125 6.71875 -12.953125 L 1.132812 -12.953125 L 1.132812 0 L 3.5625 0 L 3.5625 -3.222656 L 6.71875 -3.222656 C 7.011719 -3.222656 7.285156 -3.238281 7.542969 -3.269531 L 8.710938 0 L 11.253906 0 L 9.777344 -4.144531 C 10.847656 -5.035156 11.253906 -6.476562 11.253906 -8.09375 Z M 3.5625 -5.652344 L 3.5625 -10.539062 L 6.71875 -10.539062 C 7.917969 -10.539062 8.242188 -10.136719 8.355469 -10.003906 C 8.660156 -9.617188 8.824219 -8.9375 8.824219 -8.09375 C 8.824219 -7.203125 8.660156 -6.523438 8.371094 -6.167969 C 8.09375 -5.8125 7.542969 -5.652344 6.71875 -5.652344 Z M 3.5625 -5.652344 "/></g></g></g><g clip-path="url(#9f9b456c77)"><path fill="#ffffff" d="M 125.648438 29.109375 C 121.992188 30.40625 116.675781 28.273438 116.53125 23.953125 C 127.632812 18.765625 122.898438 8.835938 116.3125 15.054688 C 112.273438 9.648438 104.128906 15.964844 115.375 23.683594 C 115.226562 28.539062 108.417969 31.175781 104.769531 28.347656 C 104.601562 28.191406 104.453125 28.019531 104.320312 27.828125 C 103.71875 27.148438 103.039062 28.050781 103.585938 28.644531 C 106.796875 32.570312 114.144531 30.800781 115.992188 26.292969 C 117.609375 29.773438 122 31.480469 125.613281 30.527344 C 126.664062 30.1875 129.046875 29.230469 128.3125 27.828125 C 127.546875 26.96875 127.0625 28.789062 125.648438 29.109375 Z M 108.824219 21.378906 C 108.828125 21.386719 108.832031 21.390625 108.835938 21.398438 C 109.320312 22.265625 109.246094 22.496094 109.109375 22.613281 C 109.0625 22.65625 109.003906 22.675781 108.9375 22.675781 C 108.753906 22.675781 108.550781 22.511719 108.441406 22.421875 C 108.433594 22.414062 108.425781 22.40625 108.417969 22.398438 C 104.265625 17.75 98.0625 15.246094 89.464844 14.75 C 89.339844 14.742188 89.277344 14.675781 89.273438 14.550781 C 89.273438 14.425781 89.335938 14.359375 89.457031 14.347656 C 92.761719 14.082031 96.628906 14.570312 100.066406 15.691406 C 102.8125 16.589844 106.5625 18.300781 108.824219 21.378906 Z M 82.492188 20.738281 C 82.375 20.773438 82.296875 20.738281 82.25 20.625 C 82.203125 20.511719 82.234375 20.425781 82.34375 20.371094 C 88.96875 16.945312 101.046875 17.988281 106.726562 22.472656 C 107.640625 23.277344 107.625 23.496094 107.53125 23.648438 C 107.46875 23.742188 107.382812 23.785156 107.273438 23.777344 C 107.125 23.777344 106.941406 23.710938 106.765625 23.640625 C 106.757812 23.636719 106.75 23.632812 106.738281 23.625 C 98.945312 18.996094 91.015625 18.050781 82.492188 20.738281 Z M 105.332031 25.40625 C 98.050781 23.332031 92.472656 23.589844 86.671875 26.265625 C 86.5625 26.316406 86.480469 26.292969 86.417969 26.1875 C 86.355469 26.082031 86.375 25.996094 86.472656 25.925781 C 90.75 22.742188 100.203125 21.945312 105.199219 24.347656 C 105.945312 24.78125 106.058594 24.996094 106 25.1875 C 105.917969 25.449219 105.550781 25.425781 105.375 25.414062 C 105.359375 25.414062 105.34375 25.410156 105.332031 25.40625 Z M 142.726562 14.347656 C 142.851562 14.359375 142.914062 14.425781 142.910156 14.550781 C 142.910156 14.675781 142.847656 14.742188 142.722656 14.75 C 134.121094 15.246094 127.921875 17.75 123.769531 22.398438 C 123.761719 22.40625 123.753906 22.414062 123.746094 22.421875 C 123.632812 22.511719 123.433594 22.675781 123.25 22.675781 C 123.183594 22.675781 123.125 22.65625 123.074219 22.613281 C 122.941406 22.496094 122.867188 22.265625 123.347656 21.398438 C 123.351562 21.390625 123.359375 21.386719 123.363281 21.378906 C 125.621094 18.300781 129.371094 16.589844 132.121094 15.691406 C 135.558594 14.570312 139.421875 14.082031 142.726562 14.347656 Z M 149.9375 20.625 C 149.890625 20.738281 149.808594 20.777344 149.691406 20.738281 C 141.171875 18.050781 133.238281 18.996094 125.445312 23.628906 C 125.4375 23.632812 125.429688 23.636719 125.417969 23.640625 C 125.246094 23.710938 125.0625 23.777344 124.914062 23.777344 C 124.800781 23.785156 124.714844 23.746094 124.65625 23.648438 C 124.5625 23.496094 124.546875 23.277344 125.453125 22.480469 C 131.136719 17.988281 143.214844 16.945312 149.84375 20.371094 C 149.949219 20.425781 149.980469 20.511719 149.9375 20.625 Z M 145.714844 25.925781 C 145.808594 25.996094 145.828125 26.082031 145.765625 26.1875 C 145.707031 26.292969 145.621094 26.316406 145.511719 26.265625 C 139.714844 23.589844 134.132812 23.332031 126.855469 25.40625 C 126.839844 25.410156 126.828125 25.414062 126.8125 25.414062 C 126.636719 25.425781 126.265625 25.449219 126.1875 25.1875 C 126.128906 24.996094 126.242188 24.78125 126.972656 24.355469 C 131.984375 21.945312 141.433594 22.742188 145.714844 25.925781 Z M 145.714844 25.925781 " fill-opacity="1" fill-rule="nonzero"/></g><g fill="#ffffff" fill-opacity="0.4"><g transform="translate(43.295096, 46.287678)"><g><path d="M 1.484375 -10.609375 L 3.890625 -1.796875 L 3.921875 -1.796875 L 6.53125 -10.609375 L 7.9375 -10.609375 L 10.53125 -1.796875 L 10.5625 -1.796875 L 13.015625 -10.609375 L 14.34375 -10.609375 L 11.21875 0 L 9.859375 0 L 7.234375 -8.984375 L 7.203125 -8.984375 L 4.5625 0 L 3.1875 0 L 0.09375 -10.609375 Z M 1.484375 -10.609375 "/></g></g></g><g fill="#ffffff" fill-opacity="0.4"><g transform="translate(57.717523, 46.287678)"><g><path d="M 6.25 -10.875 C 7.84375 -10.875 9.160156 -10.347656 10.203125 -9.296875 C 11.242188 -8.253906 11.773438 -6.921875 11.796875 -5.296875 C 11.785156 -3.648438 11.25 -2.3125 10.1875 -1.28125 C 9.125 -0.257812 7.8125 0.253906 6.25 0.265625 C 4.644531 0.265625 3.320312 -0.257812 2.28125 -1.3125 C 1.25 -2.363281 0.722656 -3.691406 0.703125 -5.296875 C 0.703125 -6.898438 1.222656 -8.222656 2.265625 -9.265625 C 3.304688 -10.316406 4.632812 -10.851562 6.25 -10.875 Z M 2.046875 -5.296875 C 2.046875 -4.035156 2.445312 -2.988281 3.25 -2.15625 C 4.050781 -1.332031 5.050781 -0.914062 6.25 -0.90625 C 7.445312 -0.90625 8.441406 -1.320312 9.234375 -2.15625 C 10.023438 -3 10.425781 -4.046875 10.4375 -5.296875 C 10.4375 -6.523438 10.046875 -7.5625 9.265625 -8.40625 C 8.492188 -9.257812 7.484375 -9.691406 6.234375 -9.703125 C 5.015625 -9.691406 4.015625 -9.265625 3.234375 -8.421875 C 2.460938 -7.578125 2.066406 -6.535156 2.046875 -5.296875 Z M 2.046875 -5.296875 "/></g></g></g><g fill="#ffffff" fill-opacity="0.4"><g transform="translate(70.207971, 46.287678)"><g><path d="M 2.90625 -10.609375 L 9.046875 -1.796875 L 9.078125 -1.796875 L 9.078125 -10.609375 L 10.34375 -10.609375 L 10.34375 0 L 8.75 0 L 2.609375 -8.8125 L 2.578125 -8.8125 L 2.578125 0 L 1.3125 0 L 1.3125 -10.609375 Z M 2.90625 -10.609375 "/></g></g></g><g fill="#ffffff" fill-opacity="0.4"><g transform="translate(81.859738, 46.287678)"><g><path d="M 5.078125 -10.609375 C 6.628906 -10.609375 7.898438 -10.117188 8.890625 -9.140625 C 9.878906 -8.171875 10.382812 -6.890625 10.40625 -5.296875 C 10.40625 -3.722656 9.90625 -2.453125 8.90625 -1.484375 C 7.914062 -0.515625 6.648438 -0.0195312 5.109375 0 L 1.125 0 L 1.125 -10.609375 Z M 4.78125 -1.171875 C 6.101562 -1.171875 7.140625 -1.519531 7.890625 -2.21875 C 8.648438 -2.925781 9.035156 -3.953125 9.046875 -5.296875 C 9.046875 -6.597656 8.675781 -7.609375 7.9375 -8.328125 C 7.195312 -9.046875 6.144531 -9.414062 4.78125 -9.4375 L 2.375 -9.4375 L 2.375 -1.171875 Z M 4.78125 -1.171875 "/></g></g></g><g fill="#ffffff" fill-opacity="0.4"><g transform="translate(92.957371, 46.287678)"><g><path d="M 7.984375 -10.609375 L 7.984375 -9.4375 L 2.578125 -9.4375 L 2.578125 -6.109375 L 7.625 -6.109375 L 7.625 -4.9375 L 2.578125 -4.9375 L 2.578125 -1.171875 L 8.25 -1.171875 L 8.25 0 L 1.3125 0 L 1.3125 -10.609375 Z M 7.984375 -10.609375 "/></g></g></g><g fill="#ffffff" fill-opacity="0.4"><g transform="translate(101.838467, 46.287678)"><g><path d="M 4.203125 -10.609375 C 5.597656 -10.609375 6.617188 -10.378906 7.265625 -9.921875 C 7.921875 -9.460938 8.25 -8.722656 8.25 -7.703125 C 8.25 -6.953125 8.023438 -6.332031 7.578125 -5.84375 C 7.140625 -5.363281 6.484375 -5.046875 5.609375 -4.890625 L 8.609375 0 L 7.078125 0 L 4.203125 -4.765625 L 2.578125 -4.765625 L 2.578125 0 L 1.3125 0 L 1.3125 -10.609375 Z M 4.078125 -5.9375 C 5.066406 -5.9375 5.785156 -6.070312 6.234375 -6.34375 C 6.679688 -6.625 6.90625 -7.070312 6.90625 -7.6875 C 6.90625 -8.289062 6.703125 -8.734375 6.296875 -9.015625 C 5.890625 -9.296875 5.265625 -9.4375 4.421875 -9.4375 L 2.578125 -9.4375 L 2.578125 -5.9375 Z M 4.078125 -5.9375 "/></g></g></g><g fill="#ffffff" fill-opacity="0.4"><g transform="translate(110.98915, 46.287678)"><g><path d="M 4.421875 -10.875 C 5.710938 -10.875 6.703125 -10.460938 7.390625 -9.640625 L 6.359375 -8.734375 C 5.953125 -9.367188 5.304688 -9.691406 4.421875 -9.703125 C 3.753906 -9.703125 3.207031 -9.539062 2.78125 -9.21875 C 2.363281 -8.90625 2.15625 -8.472656 2.15625 -7.921875 C 2.15625 -7.441406 2.3125 -7.0625 2.625 -6.78125 C 2.945312 -6.507812 3.550781 -6.238281 4.4375 -5.96875 C 5.570312 -5.632812 6.375 -5.226562 6.84375 -4.75 C 7.320312 -4.28125 7.5625 -3.640625 7.5625 -2.828125 C 7.5625 -1.890625 7.210938 -1.140625 6.515625 -0.578125 C 5.816406 -0.0234375 4.925781 0.253906 3.84375 0.265625 C 3.101562 0.265625 2.445312 0.132812 1.875 -0.125 C 1.3125 -0.382812 0.875 -0.742188 0.5625 -1.203125 L 1.640625 -2.078125 C 1.878906 -1.703125 2.203125 -1.410156 2.609375 -1.203125 C 3.015625 -1.003906 3.445312 -0.90625 3.90625 -0.90625 C 4.539062 -0.90625 5.082031 -1.082031 5.53125 -1.4375 C 5.988281 -1.789062 6.21875 -2.222656 6.21875 -2.734375 C 6.21875 -3.210938 6.082031 -3.582031 5.8125 -3.84375 C 5.550781 -4.113281 5.117188 -4.347656 4.515625 -4.546875 L 3.296875 -4.9375 C 2.390625 -5.25 1.75 -5.632812 1.375 -6.09375 C 1 -6.5625 0.8125 -7.140625 0.8125 -7.828125 C 0.8125 -8.722656 1.144531 -9.453125 1.8125 -10.015625 C 2.476562 -10.578125 3.347656 -10.863281 4.421875 -10.875 Z M 4.421875 -10.875 "/></g></g></g><g fill="#ffffff" fill-opacity="1"><g transform="translate(44.169556, 45.952006)"><g><path d="M 1.484375 -10.609375 L 3.890625 -1.796875 L 3.921875 -1.796875 L 6.53125 -10.609375 L 7.9375 -10.609375 L 10.53125 -1.796875 L 10.5625 -1.796875 L 13.015625 -10.609375 L 14.34375 -10.609375 L 11.21875 0 L 9.859375 0 L 7.234375 -8.984375 L 7.203125 -8.984375 L 4.5625 0 L 3.1875 0 L 0.09375 -10.609375 Z M 1.484375 -10.609375 "/></g></g></g><g fill="#ffffff" fill-opacity="1"><g transform="translate(58.591984, 45.952006)"><g><path d="M 6.25 -10.875 C 7.84375 -10.875 9.160156 -10.347656 10.203125 -9.296875 C 11.242188 -8.253906 11.773438 -6.921875 11.796875 -5.296875 C 11.785156 -3.648438 11.25 -2.3125 10.1875 -1.28125 C 9.125 -0.257812 7.8125 0.253906 6.25 0.265625 C 4.644531 0.265625 3.320312 -0.257812 2.28125 -1.3125 C 1.25 -2.363281 0.722656 -3.691406 0.703125 -5.296875 C 0.703125 -6.898438 1.222656 -8.222656 2.265625 -9.265625 C 3.304688 -10.316406 4.632812 -10.851562 6.25 -10.875 Z M 2.046875 -5.296875 C 2.046875 -4.035156 2.445312 -2.988281 3.25 -2.15625 C 4.050781 -1.332031 5.050781 -0.914062 6.25 -0.90625 C 7.445312 -0.90625 8.441406 -1.320312 9.234375 -2.15625 C 10.023438 -3 10.425781 -4.046875 10.4375 -5.296875 C 10.4375 -6.523438 10.046875 -7.5625 9.265625 -8.40625 C 8.492188 -9.257812 7.484375 -9.691406 6.234375 -9.703125 C 5.015625 -9.691406 4.015625 -9.265625 3.234375 -8.421875 C 2.460938 -7.578125 2.066406 -6.535156 2.046875 -5.296875 Z M 2.046875 -5.296875 "/></g></g></g><g fill="#ffffff" fill-opacity="1"><g transform="translate(71.082431, 45.952006)"><g><path d="M 2.90625 -10.609375 L 9.046875 -1.796875 L 9.078125 -1.796875 L 9.078125 -10.609375 L 10.34375 -10.609375 L 10.34375 0 L 8.75 0 L 2.609375 -8.8125 L 2.578125 -8.8125 L 2.578125 0 L 1.3125 0 L 1.3125 -10.609375 Z M 2.90625 -10.609375 "/></g></g></g><g fill="#ffffff" fill-opacity="1"><g transform="translate(82.734198, 45.952006)"><g><path d="M 5.078125 -10.609375 C 6.628906 -10.609375 7.898438 -10.117188 8.890625 -9.140625 C 9.878906 -8.171875 10.382812 -6.890625 10.40625 -5.296875 C 10.40625 -3.722656 9.90625 -2.453125 8.90625 -1.484375 C 7.914062 -0.515625 6.648438 -0.0195312 5.109375 0 L 1.125 0 L 1.125 -10.609375 Z M 4.78125 -1.171875 C 6.101562 -1.171875 7.140625 -1.519531 7.890625 -2.21875 C 8.648438 -2.925781 9.035156 -3.953125 9.046875 -5.296875 C 9.046875 -6.597656 8.675781 -7.609375 7.9375 -8.328125 C 7.195312 -9.046875 6.144531 -9.414062 4.78125 -9.4375 L 2.375 -9.4375 L 2.375 -1.171875 Z M 4.78125 -1.171875 "/></g></g></g><g fill="#ffffff" fill-opacity="1"><g transform="translate(93.831831, 45.952006)"><g><path d="M 7.984375 -10.609375 L 7.984375 -9.4375 L 2.578125 -9.4375 L 2.578125 -6.109375 L 7.625 -6.109375 L 7.625 -4.9375 L 2.578125 -4.9375 L 2.578125 -1.171875 L 8.25 -1.171875 L 8.25 0 L 1.3125 0 L 1.3125 -10.609375 Z M 7.984375 -10.609375 "/></g></g></g><g fill="#ffffff" fill-opacity="1"><g transform="translate(102.712927, 45.952006)"><g><path d="M 4.203125 -10.609375 C 5.597656 -10.609375 6.617188 -10.378906 7.265625 -9.921875 C 7.921875 -9.460938 8.25 -8.722656 8.25 -7.703125 C 8.25 -6.953125 8.023438 -6.332031 7.578125 -5.84375 C 7.140625 -5.363281 6.484375 -5.046875 5.609375 -4.890625 L 8.609375 0 L 7.078125 0 L 4.203125 -4.765625 L 2.578125 -4.765625 L 2.578125 0 L 1.3125 0 L 1.3125 -10.609375 Z M 4.078125 -5.9375 C 5.066406 -5.9375 5.785156 -6.070312 6.234375 -6.34375 C 6.679688 -6.625 6.90625 -7.070312 6.90625 -7.6875 C 6.90625 -8.289062 6.703125 -8.734375 6.296875 -9.015625 C 5.890625 -9.296875 5.265625 -9.4375 4.421875 -9.4375 L 2.578125 -9.4375 L 2.578125 -5.9375 Z M 4.078125 -5.9375 "/></g></g></g><g fill="#ffffff" fill-opacity="1"><g transform="translate(111.863611, 45.952006)"><g><path d="M 4.421875 -10.875 C 5.710938 -10.875 6.703125 -10.460938 7.390625 -9.640625 L 6.359375 -8.734375 C 5.953125 -9.367188 5.304688 -9.691406 4.421875 -9.703125 C 3.753906 -9.703125 3.207031 -9.539062 2.78125 -9.21875 C 2.363281 -8.90625 2.15625 -8.472656 2.15625 -7.921875 C 2.15625 -7.441406 2.3125 -7.0625 2.625 -6.78125 C 2.945312 -6.507812 3.550781 -6.238281 4.4375 -5.96875 C 5.570312 -5.632812 6.375 -5.226562 6.84375 -4.75 C 7.320312 -4.28125 7.5625 -3.640625 7.5625 -2.828125 C 7.5625 -1.890625 7.210938 -1.140625 6.515625 -0.578125 C 5.816406 -0.0234375 4.925781 0.253906 3.84375 0.265625 C 3.101562 0.265625 2.445312 0.132812 1.875 -0.125 C 1.3125 -0.382812 0.875 -0.742188 0.5625 -1.203125 L 1.640625 -2.078125 C 1.878906 -1.703125 2.203125 -1.410156 2.609375 -1.203125 C 3.015625 -1.003906 3.445312 -0.90625 3.90625 -0.90625 C 4.539062 -0.90625 5.082031 -1.082031 5.53125 -1.4375 C 5.988281 -1.789062 6.21875 -2.222656 6.21875 -2.734375 C 6.21875 -3.210938 6.082031 -3.582031 5.8125 -3.84375 C 5.550781 -4.113281 5.117188 -4.347656 4.515625 -4.546875 L 3.296875 -4.9375 C 2.390625 -5.25 1.75 -5.632812 1.375 -6.09375 C 1 -6.5625 0.8125 -7.140625 0.8125 -7.828125 C 0.8125 -8.722656 1.144531 -9.453125 1.8125 -10.015625 C 2.476562 -10.578125 3.347656 -10.863281 4.421875 -10.875 Z M 4.421875 -10.875 "/></g></g></g></svg>