<svg xmlns="http://www.w3.org/2000/svg" xmlns:xlink="http://www.w3.org/1999/xlink" width="144" zoomAndPan="magnify" viewBox="0 0 108 57.749997" height="76" preserveAspectRatio="xMidYMid meet" version="1.0"><defs><clipPath id="30b774b1ca"><path d="M 11.890625 1.253906 L 96.277344 1.253906 L 96.277344 55.765625 L 11.890625 55.765625 Z M 11.890625 1.253906 " clip-rule="nonzero"/></clipPath><clipPath id="08a9f5d377"><path d="M 12 2 L 96 2 L 96 55.765625 L 12 55.765625 Z M 12 2 " clip-rule="nonzero"/></clipPath></defs><g clip-path="url(#30b774b1ca)"><path fill="#563a2c" d="M 95.644531 20.292969 C 94.902344 18.667969 93.148438 18.015625 90.429688 18.351562 C 89.242188 18.515625 88.101562 18.839844 87.007812 19.324219 C 86.425781 19.570312 85.90625 19.816406 85.417969 20.074219 C 85.164062 20.210938 84.890625 20.363281 84.625 20.539062 C 83.09375 18.601562 81.339844 16.882812 79.367188 15.390625 C 78.261719 14.554688 77.109375 13.800781 75.902344 13.121094 C 76.136719 12.722656 76.335938 12.308594 76.496094 11.878906 C 76.621094 11.550781 76.761719 11.222656 76.90625 10.878906 C 77.15625 10.316406 77.375 9.742188 77.566406 9.15625 C 77.707031 8.699219 77.8125 8.230469 77.882812 7.753906 C 77.910156 7.597656 77.949219 7.441406 78 7.289062 C 78.074219 7.054688 78.125 6.8125 78.160156 6.570312 C 78.203125 6.230469 78.285156 5.035156 77.59375 4.210938 C 76.945312 3.429688 75.96875 3.359375 75.191406 3.304688 L 74.871094 3.28125 C 73.691406 3.144531 72.515625 3.195312 71.351562 3.433594 C 69.230469 3.902344 67.3125 4.988281 65.527344 6.0625 C 64.488281 6.679688 63.484375 7.351562 62.519531 8.074219 C 61.6875 8.703125 60.914062 9.398438 60.203125 10.160156 C 57.085938 10.839844 54.503906 12.40625 52.734375 14.695312 C 52.5 15 52.28125 15.3125 52.078125 15.640625 C 51.8125 15.21875 51.523438 14.820312 51.207031 14.4375 C 49.820312 12.769531 48.101562 11.5625 46.050781 10.820312 C 44.175781 6.695312 39.523438 4.453125 35.761719 2.640625 L 35.105469 2.324219 C 34.246094 1.902344 32.953125 1.265625 31.820312 2.125 C 31.132812 2.65625 30.765625 3.582031 30.722656 4.957031 C 30.699219 6.210938 30.785156 7.453125 30.980469 8.691406 C 31.160156 9.714844 31.4375 10.707031 31.820312 11.675781 C 29.199219 12.757812 26.792969 14.199219 24.605469 15.992188 C 23.699219 16.730469 22.839844 17.523438 22.027344 18.363281 C 20.890625 17.375 19.660156 16.523438 18.332031 15.804688 L 18.011719 15.636719 C 16.675781 14.882812 14.4375 13.621094 12.875 14.953125 C 12.234375 15.464844 11.921875 16.285156 11.890625 17.433594 C 11.890625 18.445312 11.953125 19.449219 12.078125 20.449219 L 12.109375 20.746094 C 12.171875 21.367188 12.222656 22.003906 12.28125 22.621094 C 12.371094 24.082031 12.542969 25.535156 12.796875 26.976562 C 13.332031 29.703125 14.089844 31.855469 15.113281 33.550781 C 15.113281 36.617188 16.070312 39.378906 17.863281 41.558594 C 20.296875 44.503906 24.109375 46.128906 28.597656 46.125 C 28.96875 46.125 29.34375 46.117188 29.726562 46.09375 C 29.929688 47.765625 31.214844 49.40625 32.507812 50.234375 C 33.761719 51.023438 35.128906 51.347656 36.609375 51.199219 C 37.140625 52.585938 38.523438 53.683594 40.367188 54.160156 C 42.175781 54.628906 44.652344 55.269531 46.828125 54.550781 C 47.074219 54.46875 47.3125 54.371094 47.542969 54.257812 C 47.984375 54.71875 48.652344 55.101562 49.539062 55.394531 C 50.351562 55.644531 51.179688 55.761719 52.027344 55.746094 C 52.480469 55.746094 52.894531 55.722656 53.25 55.691406 L 53.386719 55.679688 C 55.273438 55.519531 57.875 55.300781 59.019531 53.1875 C 59.117188 53.007812 59.199219 52.824219 59.273438 52.636719 C 59.488281 52.730469 59.710938 52.804688 59.933594 52.890625 C 60.832031 53.21875 61.757812 53.398438 62.714844 53.433594 C 64.601562 53.511719 66.34375 53.058594 67.945312 52.070312 C 69.769531 50.914062 72.324219 48.199219 72.296875 45.359375 C 73.195312 45.511719 74.101562 45.601562 75.007812 45.636719 C 75.257812 45.644531 75.507812 45.652344 75.757812 45.652344 C 80.527344 45.652344 84.507812 43.902344 86.960938 40.726562 C 88.101562 39.242188 88.847656 37.582031 89.195312 35.75 C 89.695312 35.300781 90.15625 34.8125 90.570312 34.28125 L 90.761719 34.046875 C 91.480469 33.195312 92.152344 32.3125 92.777344 31.390625 C 93.921875 29.703125 94.65625 27.941406 95.40625 25.804688 C 96.203125 23.550781 96.28125 21.695312 95.644531 20.292969 Z M 95.644531 20.292969 " fill-opacity="1" fill-rule="nonzero"/></g><path fill="#fffcf8" d="M 52.273438 20.449219 C 52.171875 19.570312 52 18.703125 51.757812 17.851562 C 51.371094 16.664062 50.746094 15.613281 49.878906 14.707031 C 49.015625 13.800781 47.992188 13.121094 46.816406 12.671875 C 46.488281 12.570312 46.175781 12.433594 45.875 12.261719 C 45.359375 11.921875 45.042969 11.367188 44.722656 10.84375 C 42.238281 6.792969 37.910156 3.824219 33.160156 3.277344 C 32.984375 3.238281 32.8125 3.253906 32.644531 3.324219 C 32.421875 3.441406 32.339844 3.714844 32.285156 3.964844 C 31.835938 6.117188 31.925781 8.246094 32.558594 10.355469 C 32.789062 11.125 33.074219 12.046875 32.542969 12.660156 C 32.308594 12.9375 31.953125 13.082031 31.621094 13.222656 C 28.308594 14.632812 25.480469 16.691406 23.132812 19.402344 C 23.132812 19.402344 20.726562 41.113281 20.726562 41.445312 C 20.746094 42.523438 21.90625 43.167969 22.90625 43.59375 C 23.691406 43.949219 24.5 44.242188 25.332031 44.460938 C 26.207031 44.648438 27.09375 44.730469 27.988281 44.710938 C 32.089844 44.703125 35.933594 43.710938 39.519531 41.738281 C 41.199219 40.839844 42.703125 39.710938 44.035156 38.355469 C 44.121094 38.261719 44.203125 38.167969 44.289062 38.070312 C 44.351562 38.023438 44.414062 37.980469 44.476562 37.933594 C 45.242188 37.335938 45.785156 36.5 46.503906 35.851562 C 47.425781 35.015625 48.628906 34.488281 49.394531 33.515625 C 49.972656 32.78125 50.242188 31.863281 50.503906 30.96875 L 51.964844 25.921875 C 52.203125 25.1875 52.375 24.4375 52.480469 23.675781 C 52.582031 22.597656 52.4375 21.515625 52.273438 20.449219 Z M 52.273438 20.449219 " fill-opacity="1" fill-rule="nonzero"/><path fill="#fffcf8" d="M 84.023438 36.105469 C 83.644531 33.890625 82.167969 24.089844 82.476562 21.421875 C 82.527344 21.160156 82.53125 20.902344 82.484375 20.640625 C 82.375 20.328125 82.199219 20.058594 81.949219 19.835938 C 81.144531 18.984375 77.886719 15.835938 77.214844 15.441406 L 74.5625 13.910156 C 74.464844 13.851562 74.335938 13.164062 74.503906 12.941406 C 76.050781 10.894531 77.089844 8.355469 76.929688 5.796875 C 76.929688 5.617188 76.886719 5.453125 76.789062 5.300781 C 76.667969 5.164062 76.511719 5.070312 76.332031 5.027344 C 74.875 4.539062 73.398438 4.476562 71.90625 4.84375 C 70.988281 5.105469 70.097656 5.445312 69.242188 5.867188 L 66.839844 6.957031 C 66.152344 7.269531 63.507812 9.09375 62.863281 9.664062 C 61.394531 10.945312 56.0625 13.582031 56.0625 13.582031 C 54.234375 14.96875 52.296875 16.707031 52.21875 18.988281 C 52.191406 19.679688 52.65625 22.917969 52.625 23.859375 C 52.59375 24.882812 52.453125 25.921875 52.539062 26.949219 C 52.660156 28.390625 53.226562 29.761719 53.921875 31.039062 C 56.300781 35.347656 60.28125 38.589844 64.5625 41.058594 C 66.796875 42.351562 69.183594 43.476562 71.738281 43.878906 C 73.945312 44.222656 76.03125 44.609375 78.265625 44.375 C 79.386719 44.253906 80.6875 43.542969 81.738281 43.128906 C 82.789062 42.714844 83.757812 41.980469 84.207031 40.953125 C 84.859375 39.429688 84.296875 37.71875 84.023438 36.105469 Z M 84.023438 36.105469 " fill-opacity="1" fill-rule="nonzero"/><path fill="#ffa05f" d="M 31.046875 44.933594 C 31.195312 45.5625 31.433594 46.15625 31.753906 46.714844 C 32.078125 47.273438 32.46875 47.777344 32.9375 48.226562 C 33.402344 48.675781 33.921875 49.050781 34.496094 49.351562 C 35.070312 49.652344 35.675781 49.867188 36.3125 49.996094 C 36.542969 50.027344 36.761719 50.085938 36.972656 50.179688 C 37.148438 50.289062 37.304688 50.417969 37.441406 50.570312 C 38.042969 51.144531 38.707031 51.632812 39.433594 52.035156 C 40.160156 52.4375 40.925781 52.738281 41.730469 52.945312 C 42.539062 53.148438 43.355469 53.25 44.191406 53.242188 C 45.023438 53.238281 45.839844 53.125 46.644531 52.910156 C 46.9375 52.804688 47.246094 52.742188 47.558594 52.726562 C 47.972656 52.726562 48.359375 52.917969 48.738281 53.082031 C 50.335938 53.761719 52.003906 54.058594 53.738281 53.96875 C 55.105469 53.902344 56.613281 53.46875 57.269531 52.277344 C 57.375 52.042969 57.5 51.820312 57.652344 51.613281 C 58.25 50.933594 59.355469 51.273438 60.230469 51.542969 C 63.875 52.640625 68.203125 50.84375 69.914062 47.46875 C 70.464844 46.375 70.734375 44.988281 70.046875 43.972656 C 69.261719 43.957031 68.613281 43.394531 67.929688 43.011719 C 66.785156 42.378906 65.433594 42.230469 64.21875 41.742188 C 63.050781 41.273438 62.039062 40.496094 61.042969 39.730469 C 59.15625 38.285156 57.253906 36.816406 55.796875 34.945312 C 54.832031 33.703125 54.078125 32.3125 53.335938 30.929688 L 52.035156 28.507812 C 50.964844 31.257812 49.460938 33.75 47.523438 35.984375 C 45.589844 38.21875 43.332031 40.066406 40.753906 41.53125 C 37.832031 43.179688 34.605469 44.242188 31.40625 45.28125 " fill-opacity="1" fill-rule="nonzero"/><path fill="#ffd2a1" d="M 24.046875 18.339844 C 24.019531 18.261719 23.777344 18.507812 23.742188 18.542969 C 23.371094 18.882812 23.003906 19.238281 22.621094 19.566406 C 21.921875 20.164062 21.164062 19.621094 20.570312 19.152344 C 19.976562 18.6875 19.394531 18.128906 18.765625 17.660156 C 17.355469 16.628906 15.644531 16.1875 13.972656 15.785156 C 13.941406 15.773438 13.917969 15.78125 13.898438 15.800781 C 13.4375 16.316406 13.265625 16.9375 13.175781 17.613281 C 13.050781 18.574219 12.992188 19.539062 13.003906 20.507812 C 13 22.484375 13.238281 24.433594 13.714844 26.355469 C 14.148438 28.113281 14.722656 30.140625 15.773438 31.652344 C 16.019531 31.992188 16.453125 33.820312 16.519531 34.371094 C 16.644531 35.414062 17.636719 39.28125 18.101562 40.046875 C 18.570312 40.8125 19.25 41.429688 19.941406 42 C 20.3125 42.300781 20.808594 42.867188 21.351562 42.699219 C 22.003906 42.5 22.453125 41.394531 22.761719 40.871094 C 23.261719 40.015625 23.703125 39.128906 24.089844 38.21875 C 24.433594 37.394531 24.855469 36.492188 24.949219 35.59375 C 25.042969 34.691406 24.554688 34.015625 24.3125 33.175781 C 24.011719 32.152344 23.902344 30.542969 24.746094 29.714844 C 25.082031 29.382812 26.121094 28.488281 26.15625 28.21875 C 26.257812 27.214844 26.03125 26.109375 25.878906 25.113281 C 25.527344 22.785156 24.917969 20.527344 24.046875 18.339844 Z M 24.046875 18.339844 " fill-opacity="1" fill-rule="nonzero"/><path fill="#ffd2a1" d="M 94.4375 20.324219 C 93.179688 18.554688 90.675781 19.265625 88.972656 19.78125 C 87.945312 20.089844 86.914062 20.421875 85.980469 20.972656 C 85.730469 21.121094 85.488281 21.289062 85.257812 21.464844 C 84.945312 21.707031 84.894531 21.839844 84.464844 21.757812 C 83.75 21.625 83.175781 20.761719 82.78125 20.199219 C 82.757812 20.164062 82.726562 20.15625 82.6875 20.167969 L 82.570312 19.871094 L 82.597656 19.824219 C 82.636719 19.753906 82.523438 19.691406 82.484375 19.761719 C 81.96875 20.695312 81.445312 21.636719 81.09375 22.644531 C 80.726562 23.6875 80.625 24.761719 80.589844 25.859375 C 80.492188 28.015625 80.539062 30.167969 80.722656 32.316406 C 80.890625 34.332031 81.304688 36.296875 81.96875 38.210938 C 82.300781 39.140625 82.710938 40.035156 83.199219 40.894531 C 83.488281 41.402344 83.78125 42.035156 84.429688 41.660156 C 85.878906 40.824219 87.210938 39.320312 87.800781 37.765625 C 87.953125 37.3125 88.066406 36.851562 88.144531 36.378906 C 88.273438 35.71875 88.542969 35.121094 88.957031 34.582031 C 89.699219 33.59375 90.453125 32.609375 91.203125 31.625 C 92.53125 29.871094 93.894531 28.144531 94.523438 26 C 94.816406 25 94.960938 23.976562 94.960938 22.933594 C 94.964844 22.082031 94.949219 21.042969 94.4375 20.324219 Z M 94.4375 20.324219 " fill-opacity="1" fill-rule="nonzero"/><path fill="#ffd2a1" d="M 50.375 26.8125 C 49.101562 27.007812 48.191406 27.976562 47.902344 29.199219 C 47.570312 30.601562 48.136719 32.019531 48.960938 33.144531 C 48.949219 33.175781 49.125 33.171875 49.113281 33.160156 C 49.980469 31.578125 50.832031 29.9375 51.542969 28.289062 C 51.675781 27.988281 52.171875 27.21875 51.886719 26.871094 C 51.605469 26.523438 50.71875 26.753906 50.375 26.8125 Z M 50.375 26.8125 " fill-opacity="1" fill-rule="nonzero"/><path fill="#ffd2a1" d="M 57.820312 12.457031 C 57.210938 12.714844 56.613281 13 56.027344 13.308594 C 55.707031 13.476562 54.957031 13.953125 54.996094 14.011719 C 55.757812 15.359375 57.726562 16.296875 59.242188 15.660156 C 60.835938 14.988281 61.542969 12.933594 61.472656 11.347656 C 61.46875 11.289062 58.964844 11.96875 57.820312 12.457031 Z M 57.820312 12.457031 " fill-opacity="1" fill-rule="nonzero"/><path fill="#d32d4d" d="M 66.074219 33.605469 C 66.015625 33.703125 65.933594 33.78125 65.832031 33.835938 C 65.542969 34.023438 65.25 34.207031 64.949219 34.382812 C 64.738281 34.507812 64.519531 34.628906 64.304688 34.746094 C 63.722656 35.0625 63.101562 35.359375 62.433594 35.359375 C 62.324219 35.371094 62.226562 35.347656 62.136719 35.289062 C 61.992188 35.171875 62.011719 34.945312 62.054688 34.777344 C 62.351562 33.496094 62.886719 32.324219 63.664062 31.261719 L 63.90625 31.441406 C 64.140625 31.660156 64.421875 31.792969 64.742188 31.832031 C 64.917969 31.832031 65.082031 31.867188 65.238281 31.9375 C 65.339844 32.015625 65.421875 32.113281 65.476562 32.226562 C 65.632812 32.484375 65.789062 32.738281 65.945312 32.996094 C 66.058594 33.179688 66.179688 33.410156 66.074219 33.605469 Z M 66.074219 33.605469 " fill-opacity="1" fill-rule="nonzero"/><path fill="#ff5f76" d="M 64.949219 34.382812 C 64.738281 34.507812 64.519531 34.628906 64.304688 34.746094 C 63.722656 35.0625 63.101562 35.359375 62.433594 35.359375 C 62.324219 35.371094 62.226562 35.347656 62.136719 35.289062 C 61.992188 35.171875 62.011719 34.945312 62.054688 34.777344 C 62.230469 34.003906 62.503906 33.265625 62.863281 32.5625 C 63.164062 32.636719 63.414062 32.789062 63.621094 33.015625 C 63.804688 33.214844 63.871094 33.445312 64.089844 33.605469 C 64.292969 33.71875 64.488281 33.851562 64.671875 34 C 64.78125 34.113281 64.875 34.242188 64.949219 34.382812 Z M 64.949219 34.382812 " fill-opacity="1" fill-rule="nonzero"/><path fill="#cca37a" d="M 17.285156 28.34375 C 16.257812 26.039062 15.683594 22.617188 15.636719 20.09375 C 15.628906 19.664062 15.746094 19.105469 16.179688 19.0625 C 16.402344 19.039062 16.605469 19.183594 16.78125 19.324219 C 17.839844 20.164062 18.804688 21.097656 19.679688 22.125 C 19.75 22.335938 19.753906 22.542969 19.691406 22.753906 C 18.675781 24.527344 17.875 26.390625 17.285156 28.34375 " fill-opacity="1" fill-rule="nonzero"/><path fill="#cca37a" d="M 85.90625 24.261719 C 87.230469 23.414062 88.652344 22.789062 90.175781 22.390625 C 90.585938 22.28125 91.082031 22.21875 91.363281 22.53125 C 91.496094 22.714844 91.5625 22.914062 91.5625 23.140625 C 91.617188 23.957031 91.371094 24.765625 91.074219 25.527344 C 90.363281 27.359375 89.375 29.035156 88.117188 30.550781 C 87.691406 28.476562 86.957031 26.519531 85.90625 24.675781 " fill-opacity="1" fill-rule="nonzero"/><path fill="#ffd2a1" d="M 35.4375 11.492188 C 35.484375 11.539062 35.355469 11.527344 35.335938 11.464844 C 34.847656 9.890625 34.609375 8.277344 34.617188 6.628906 C 34.617188 6.507812 34.636719 6.359375 34.75 6.316406 C 34.816406 6.296875 34.878906 6.304688 34.941406 6.328125 C 35.773438 6.589844 36.457031 7.140625 37.144531 7.679688 C 38.320312 8.617188 39.511719 9.574219 40.347656 10.820312 C 39.355469 11.042969 35.816406 11.253906 35.453125 11.84375 " fill-opacity="1" fill-rule="nonzero"/><path fill="#ffd2a1" d="M 65.15625 11.011719 C 67.320312 9.449219 70.011719 8 72.601562 7.34375 C 72.804688 7.265625 73 7.269531 73.199219 7.355469 C 73.398438 7.476562 73.449219 7.742188 73.449219 7.976562 C 73.460938 9.171875 72.792969 10.238281 72.144531 11.234375 C 71.917969 11.589844 71.65625 11.964844 71.253906 12.085938 C 70.949219 12.15625 70.644531 12.144531 70.34375 12.058594 L 65.15625 11.007812 " fill-opacity="1" fill-rule="nonzero"/><path fill="#000000" d="M 52.609375 17.765625 C 53.292969 18.316406 53.675781 19.167969 53.847656 20.027344 C 54.019531 20.882812 54.019531 21.765625 54.066406 22.640625 C 54.308594 26.730469 55.910156 30.699219 58.3125 34.039062 C 60.71875 37.378906 63.898438 40.125 67.394531 42.324219 C 66.019531 41.667969 64.667969 40.96875 63.335938 40.230469 C 62.5625 39.800781 61.796875 39.359375 61.074219 38.859375 C 57.496094 36.371094 55.132812 32.550781 52.867188 28.847656 C 52.554688 28.335938 52.234375 27.804688 52.167969 27.210938 C 52.113281 26.707031 52.25 26.203125 52.339844 25.707031 C 52.855469 23.109375 52.484375 20.425781 52.101562 17.804688 " fill-opacity="0.149" fill-rule="nonzero"/><path fill="#000000" d="M 49.382812 14.582031 C 50.148438 15.53125 50.355469 16.796875 50.53125 17.992188 C 50.746094 19.460938 50.964844 20.9375 50.941406 22.421875 C 50.894531 25.972656 49.46875 29.410156 47.421875 32.324219 C 45.375 35.242188 42.726562 37.691406 39.996094 39.996094 C 38.734375 41.050781 37.453125 42.082031 36.152344 43.085938 L 40.726562 40.730469 C 41.234375 40.484375 41.722656 40.203125 42.191406 39.886719 C 42.523438 39.644531 42.839844 39.386719 43.144531 39.113281 C 45.25 37.277344 47.371094 35.425781 49.0625 33.207031 C 50.722656 31.023438 51.953125 28.460938 52.25 25.742188 C 52.40625 24.332031 52.308594 22.90625 52.210938 21.492188 C 52.179688 20.78125 52.101562 20.074219 51.980469 19.371094 C 51.710938 17.945312 51.125 16.65625 50.226562 15.507812 " fill-opacity="0.149" fill-rule="nonzero"/><path fill="#d6844c" d="M 70.828125 44.898438 C 70.816406 44.785156 70.484375 43.875 70.230469 43.65625 C 69.914062 43.378906 67.085938 42.386719 66.074219 42.03125 C 65.476562 41.835938 64.886719 41.609375 64.3125 41.351562 C 63.828125 41.121094 58.601562 37.398438 56.839844 35.398438 C 56.667969 35.707031 55.550781 39.410156 55.589844 39.523438 C 55.773438 40.046875 53.148438 44.296875 51.515625 45.976562 C 51.070312 46.4375 50.59375 46.90625 50.382812 47.511719 C 50.292969 47.800781 50.230469 48.097656 50.191406 48.398438 C 49.902344 50.039062 49.21875 51.492188 48.140625 52.765625 C 48.105469 52.851562 48.105469 52.941406 48.140625 53.03125 C 48.332031 53.273438 49.035156 54.039062 49.164062 53.914062 C 49.164062 53.914062 50.378906 52.753906 50.644531 52.121094 C 50.996094 51.277344 51.257812 50.40625 51.429688 49.511719 C 51.464844 49.261719 51.523438 49.015625 51.601562 48.777344 C 51.75 48.445312 51.9375 48.140625 52.175781 47.863281 L 55.359375 43.753906 C 56.171875 45.304688 56.9375 46.898438 57.273438 48.609375 C 57.617188 50.398438 57.453125 52.359375 56.441406 53.878906 C 57.160156 53.421875 57.726562 52.828125 58.144531 52.089844 C 58.558594 51.355469 58.777344 50.5625 58.792969 49.71875 C 58.792969 49.035156 56.613281 42.800781 56.375 42.101562 C 56.597656 41.515625 57.3125 39.667969 57.574219 39.425781 C 57.734375 39.277344 57.925781 39.191406 58.144531 39.171875 C 59.320312 40.644531 63.070312 43.046875 65.113281 43.972656 C 66.203125 44.457031 67.347656 44.765625 68.539062 44.890625 C 68.808594 45.023438 68.972656 45.234375 69.035156 45.527344 C 69.089844 45.878906 68.875 46.207031 68.660156 46.5 C 67.636719 47.839844 66.398438 48.941406 64.941406 49.800781 C 63.484375 50.660156 61.917969 51.21875 60.242188 51.46875 C 61.925781 52.042969 63.628906 52.125 65.355469 51.710938 C 66.917969 51.339844 68.390625 50.53125 69.429688 49.328125 C 70.46875 48.121094 71.027344 46.476562 70.828125 44.898438 Z M 70.828125 44.898438 " fill-opacity="1" fill-rule="nonzero"/><path fill="#d6844c" d="M 46.21875 36.792969 C 44.5 38.355469 42.78125 39.917969 40.847656 41.214844 C 37.785156 43.273438 34.171875 44.621094 30.46875 44.691406 C 30.59375 45.308594 30.796875 45.902344 31.078125 46.464844 C 31.078125 46.464844 32.109375 47.96875 32.691406 48.378906 C 32.863281 48.492188 33.859375 49.433594 34.320312 49.460938 C 33.832031 48.96875 33.550781 48.378906 33.476562 47.6875 C 33.429688 47.371094 33.480469 47.066406 33.632812 46.78125 C 33.660156 46.738281 33.695312 46.695312 33.730469 46.652344 C 34.898438 46.605469 36.03125 46.382812 37.128906 45.984375 C 37.699219 45.78125 38.253906 45.542969 38.796875 45.273438 C 40.667969 44.628906 42.300781 43.609375 43.703125 42.21875 C 44.199219 41.722656 44.65625 41.183594 45.113281 40.644531 C 46.390625 39.132812 47.671875 37.617188 48.695312 35.925781 C 49.105469 35.246094 49.351562 34.234375 49.441406 33.449219 C 48.828125 34.023438 46.808594 36.257812 46.21875 36.792969 Z M 46.21875 36.792969 " fill-opacity="1" fill-rule="nonzero"/><path fill="#d6844c" d="M 56.488281 34.746094 C 56.335938 34.304688 56.003906 33.949219 55.6875 33.605469 C 54.160156 31.949219 52.519531 30.054688 52.21875 27.832031 C 51.851562 28.769531 50.363281 31.425781 50.082031 31.921875 C 49.824219 32.378906 49.375 34.410156 49.238281 34.925781 C 48.988281 35.859375 47.785156 40.207031 47.0625 41.441406 C 46.761719 41.976562 46.429688 42.488281 46.066406 42.984375 C 45.621094 43.550781 45.136719 44.078125 44.613281 44.574219 C 42.457031 46.675781 40.105469 48.53125 37.558594 50.144531 C 37.792969 50.796875 38.15625 51.363281 38.644531 51.851562 C 38.707031 51.910156 38.769531 51.96875 38.839844 52.019531 C 38.90625 52.234375 39.144531 52.363281 39.355469 52.4375 C 40.335938 52.789062 41.414062 52.789062 42.402344 53.117188 C 42.828125 53.261719 43.269531 53.472656 43.714844 53.386719 L 42.613281 52.6875 C 42.179688 52.414062 41.703125 52.058594 41.679688 51.550781 C 41.675781 51.363281 41.722656 51.183594 41.8125 51.015625 C 42.875 50.304688 43.820312 49.390625 44.703125 48.460938 C 45.085938 48.058594 45.460938 47.652344 45.8125 47.226562 C 46.957031 45.84375 47.867188 44.324219 48.542969 42.664062 C 49.363281 44.605469 49.8125 46.628906 49.898438 48.734375 C 50.179688 45.644531 50.367188 42.464844 49.496094 39.492188 C 49.53125 39.296875 50.464844 35.019531 51.0625 33.09375 C 51.324219 32.925781 51.578125 32.753906 51.828125 32.570312 C 52.808594 34.484375 54.261719 35.933594 56.183594 36.917969 C 56.460938 36.230469 56.730469 35.457031 56.488281 34.746094 Z M 56.488281 34.746094 " fill-opacity="1" fill-rule="nonzero"/><path fill="#563a2c" d="M 40.847656 33.753906 C 40.851562 33.6875 40.824219 33.640625 40.757812 33.617188 C 40.695312 33.59375 40.640625 33.605469 40.601562 33.660156 C 40.21875 34.191406 39.363281 34.511719 38.820312 34.222656 C 38.453125 34.03125 37.757812 33.15625 37.636719 33.058594 C 37.925781 32.324219 38.121094 31.265625 37.574219 30.648438 C 36.902344 29.890625 36.0625 30.582031 35.480469 31.070312 C 35.023438 31.457031 34.105469 32.433594 34.546875 33.09375 C 34.773438 33.433594 36.4375 33.605469 36.804688 33.542969 C 36.894531 33.699219 36.992188 33.851562 37.097656 33.996094 C 37.367188 34.378906 37.527344 34.800781 37.582031 35.265625 C 37.625 35.738281 37.550781 36.128906 37.113281 36.371094 C 36.820312 36.523438 36.511719 36.640625 36.191406 36.722656 C 36.121094 36.746094 36.089844 36.789062 36.09375 36.859375 C 36.09375 36.929688 36.132812 36.972656 36.203125 36.988281 C 36.949219 37.144531 38.414062 36.949219 38.566406 35.8125 C 38.585938 35.613281 38.585938 35.414062 38.566406 35.210938 C 38.808594 35.308594 39.058594 35.355469 39.320312 35.347656 C 39.523438 35.324219 39.714844 35.269531 39.894531 35.179688 C 40.078125 35.089844 40.238281 34.972656 40.375 34.828125 C 40.515625 34.679688 40.625 34.515625 40.707031 34.332031 C 40.789062 34.148438 40.835938 33.953125 40.847656 33.753906 Z M 40.847656 33.753906 " fill-opacity="1" fill-rule="nonzero"/><path fill="#563a2c" d="M 30.496094 28.953125 C 29.589844 28.382812 28.605469 28.070312 27.539062 28.007812 C 26.601562 27.9375 25.351562 27.96875 24.554688 28.53125 C 23.652344 29.167969 23.316406 30.578125 23.5 31.816406 C 23.5 32.308594 23.945312 34.050781 24.171875 34.464844 C 24.371094 35.019531 24.722656 35.457031 25.21875 35.773438 C 27.058594 36.855469 29.171875 34.722656 30.285156 33.492188 C 30.90625 32.808594 31.621094 31.972656 31.671875 31.011719 C 31.722656 30.140625 31.199219 29.421875 30.496094 28.953125 Z M 25.671875 33.089844 C 25.5 33.089844 25.332031 33.058594 25.171875 32.992188 C 25.011719 32.925781 24.871094 32.832031 24.75 32.710938 C 24.625 32.589844 24.53125 32.449219 24.464844 32.289062 C 24.398438 32.128906 24.367188 31.964844 24.367188 31.792969 C 24.367188 31.621094 24.398438 31.457031 24.464844 31.296875 C 24.53125 31.136719 24.628906 31 24.75 30.875 C 24.871094 30.753906 25.015625 30.660156 25.175781 30.597656 C 25.335938 30.53125 25.5 30.496094 25.675781 30.496094 C 25.847656 30.496094 26.015625 30.53125 26.175781 30.597656 C 26.335938 30.664062 26.476562 30.753906 26.597656 30.878906 C 26.722656 31 26.816406 31.140625 26.882812 31.296875 C 26.949219 31.457031 26.980469 31.621094 26.980469 31.792969 C 26.980469 31.964844 26.949219 32.132812 26.882812 32.289062 C 26.816406 32.449219 26.71875 32.589844 26.597656 32.710938 C 26.476562 32.832031 26.332031 32.925781 26.171875 32.992188 C 26.011719 33.058594 25.84375 33.089844 25.671875 33.089844 Z M 27.5625 31.9375 C 27.457031 31.9375 27.367188 31.902344 27.292969 31.828125 C 27.21875 31.753906 27.179688 31.664062 27.179688 31.558594 C 27.179688 31.453125 27.21875 31.363281 27.292969 31.289062 C 27.367188 31.21875 27.457031 31.179688 27.5625 31.179688 C 27.667969 31.179688 27.757812 31.21875 27.832031 31.292969 C 27.90625 31.367188 27.945312 31.457031 27.941406 31.5625 C 27.941406 31.664062 27.90625 31.753906 27.832031 31.828125 C 27.757812 31.902344 27.667969 31.9375 27.5625 31.9375 Z M 27.5625 31.9375 " fill-opacity="1" fill-rule="nonzero"/><path fill="#563a2c" d="M 42.28125 20.089844 C 41.457031 19.414062 40.519531 18.980469 39.46875 18.789062 C 38.546875 18.601562 37.300781 18.480469 36.441406 18.941406 C 35.464844 19.449219 34.953125 20.8125 34.980469 22.070312 C 34.914062 22.554688 35.152344 24.339844 35.324219 24.78125 C 35.453125 25.355469 35.746094 25.828125 36.199219 26.207031 C 37.886719 27.507812 40.246094 25.652344 41.511719 24.570312 C 42.210938 23.96875 43.03125 23.230469 43.199219 22.28125 C 43.347656 21.421875 42.921875 20.640625 42.28125 20.089844 Z M 36.972656 23.601562 C 36.800781 23.582031 36.640625 23.527344 36.492188 23.441406 C 36.339844 23.355469 36.210938 23.246094 36.105469 23.109375 C 36 22.976562 35.921875 22.824219 35.878906 22.65625 C 35.832031 22.492188 35.820312 22.324219 35.84375 22.152344 C 35.863281 21.984375 35.917969 21.824219 36.003906 21.671875 C 36.089844 21.523438 36.199219 21.398438 36.335938 21.292969 C 36.472656 21.1875 36.625 21.109375 36.792969 21.066406 C 36.960938 21.019531 37.128906 21.007812 37.300781 21.027344 C 37.472656 21.050781 37.632812 21.105469 37.785156 21.1875 C 37.9375 21.273438 38.0625 21.382812 38.171875 21.519531 C 38.277344 21.65625 38.351562 21.804688 38.398438 21.972656 C 38.445312 22.136719 38.457031 22.304688 38.4375 22.476562 C 38.414062 22.648438 38.363281 22.808594 38.277344 22.957031 C 38.191406 23.105469 38.078125 23.234375 37.941406 23.339844 C 37.804688 23.445312 37.652344 23.523438 37.484375 23.566406 C 37.316406 23.613281 37.148438 23.625 36.972656 23.601562 Z M 38.996094 22.691406 C 38.890625 22.679688 38.808594 22.628906 38.742188 22.546875 C 38.675781 22.464844 38.652344 22.371094 38.664062 22.269531 C 38.675781 22.164062 38.726562 22.082031 38.808594 22.015625 C 38.890625 21.953125 38.984375 21.925781 39.089844 21.941406 C 39.195312 21.953125 39.28125 22 39.34375 22.082031 C 39.410156 22.167969 39.433594 22.257812 39.421875 22.363281 C 39.40625 22.464844 39.359375 22.550781 39.277344 22.613281 C 39.195312 22.675781 39.101562 22.703125 38.996094 22.691406 Z M 38.996094 22.691406 " fill-opacity="1" fill-rule="nonzero"/><path fill="#563a2c" d="M 66.941406 22.101562 C 67.21875 22.640625 67.351562 23.273438 67.683594 23.78125 C 67.722656 23.847656 67.785156 23.878906 67.863281 23.867188 C 67.941406 23.855469 67.992188 23.8125 68.015625 23.738281 C 68.445312 22.46875 67.449219 20.855469 66.597656 19.980469 C 65.460938 18.816406 64.089844 18.378906 62.488281 18.402344 C 62.273438 18.402344 62.207031 18.742188 62.4375 18.789062 C 63.785156 19.066406 64.945312 19.691406 65.914062 20.664062 C 66.324219 21.09375 66.667969 21.574219 66.941406 22.101562 Z M 66.941406 22.101562 " fill-opacity="1" fill-rule="nonzero"/><path fill="#563a2c" d="M 75.113281 29.652344 C 74.984375 29.65625 74.914062 29.722656 74.894531 29.847656 C 74.878906 29.972656 74.929688 30.058594 75.050781 30.097656 C 76.171875 30.402344 77.144531 30.96875 77.960938 31.789062 C 78.355469 32.175781 78.699219 32.605469 78.992188 33.074219 C 79.320312 33.652344 79.386719 34.347656 79.707031 34.925781 C 79.777344 35.054688 79.941406 34.976562 79.957031 34.859375 C 80.128906 33.550781 79.515625 31.960938 78.582031 31.039062 C 78.128906 30.578125 77.597656 30.226562 76.996094 29.984375 C 76.390625 29.742188 75.761719 29.632812 75.113281 29.652344 Z M 75.113281 29.652344 " fill-opacity="1" fill-rule="nonzero"/><g clip-path="url(#08a9f5d377)"><path fill="#563a2c" d="M 95.019531 20.574219 C 94.246094 18.882812 92.132812 18.824219 90.515625 19.023438 C 89.390625 19.183594 88.3125 19.492188 87.277344 19.953125 C 86.761719 20.171875 86.246094 20.410156 85.746094 20.675781 C 85.457031 20.824219 85.179688 20.988281 84.910156 21.171875 C 84.769531 21.277344 84.636719 21.394531 84.515625 21.523438 C 82.925781 19.398438 81.070312 17.535156 78.949219 15.929688 C 77.679688 14.960938 76.335938 14.105469 74.921875 13.359375 C 75.308594 12.824219 75.621094 12.25 75.855469 11.632812 C 76.199219 10.746094 76.632812 9.855469 76.914062 8.949219 C 77.042969 8.523438 77.140625 8.089844 77.203125 7.648438 C 77.261719 7.25 77.429688 6.882812 77.480469 6.480469 C 77.554688 5.882812 77.464844 5.117188 77.066406 4.636719 C 76.527344 3.992188 75.574219 4.023438 74.804688 3.957031 C 73.695312 3.828125 72.597656 3.875 71.503906 4.089844 C 69.5 4.53125 67.628906 5.585938 65.886719 6.632812 C 64.871094 7.242188 63.890625 7.902344 62.945312 8.613281 C 62.085938 9.261719 61.292969 9.984375 60.570312 10.777344 C 57.527344 11.394531 55.015625 12.871094 53.285156 15.105469 C 52.816406 15.710938 52.414062 16.359375 52.082031 17.050781 C 51.703125 16.265625 51.234375 15.539062 50.675781 14.863281 C 49.296875 13.214844 47.585938 12.042969 45.539062 11.355469 C 43.777344 7.125 38.875 4.90625 34.984375 3.027344 C 34.164062 2.632812 33.09375 2.019531 32.234375 2.671875 C 31.566406 3.183594 31.433594 4.207031 31.40625 4.984375 C 31.382812 6.191406 31.46875 7.394531 31.660156 8.589844 C 31.84375 9.796875 32.257812 10.925781 32.691406 12.058594 C 29.902344 13.140625 27.355469 14.625 25.046875 16.519531 C 23.980469 17.382812 22.984375 18.316406 22.050781 19.320312 C 20.828125 18.171875 19.472656 17.195312 17.992188 16.394531 C 16.789062 15.734375 14.617188 14.347656 13.3125 15.449219 C 12.734375 15.941406 12.597656 16.734375 12.578125 17.453125 C 12.582031 18.535156 12.652344 19.613281 12.789062 20.691406 C 13 22.753906 13.0625 24.820312 13.460938 26.859375 C 13.894531 29.074219 14.574219 31.429688 15.792969 33.367188 C 15.757812 36.34375 16.636719 39.015625 18.386719 41.132812 C 20.707031 43.941406 24.296875 45.449219 28.589844 45.449219 C 29.023438 45.449219 29.464844 45.433594 29.914062 45.402344 C 30.070312 45.390625 30.230469 45.378906 30.386719 45.363281 C 30.214844 47.011719 31.589844 48.847656 32.871094 49.664062 C 33.5 50.058594 34.179688 50.324219 34.910156 50.457031 C 35.640625 50.59375 36.371094 50.589844 37.101562 50.449219 C 37.417969 52.097656 38.964844 53.097656 40.535156 53.503906 C 42.4375 53.996094 44.675781 54.546875 46.605469 53.910156 C 47.007812 53.777344 47.382812 53.597656 47.738281 53.371094 C 48.082031 54.089844 49.042969 54.515625 49.753906 54.75 C 50.847656 55.113281 52.046875 55.113281 53.191406 55.015625 C 55.046875 54.859375 57.421875 54.699219 58.414062 52.871094 C 58.621094 52.480469 58.765625 52.070312 58.84375 51.636719 C 59.257812 51.898438 59.699219 52.101562 60.167969 52.25 C 61.394531 52.691406 62.660156 52.84375 63.957031 52.710938 C 65.257812 52.578125 66.460938 52.171875 67.574219 51.492188 C 69.65625 50.171875 72.132812 47.164062 71.511719 44.515625 C 72.671875 44.757812 73.847656 44.90625 75.035156 44.953125 C 75.277344 44.960938 75.515625 44.964844 75.753906 44.964844 C 80.316406 44.964844 84.082031 43.328125 86.40625 40.308594 C 87.535156 38.839844 88.253906 37.195312 88.5625 35.375 C 89.203125 34.882812 89.71875 34.222656 90.234375 33.609375 C 90.9375 32.777344 91.597656 31.914062 92.210938 31.015625 C 93.363281 29.3125 94.089844 27.5 94.765625 25.585938 C 95.296875 24.066406 95.714844 22.101562 95.019531 20.574219 Z M 66.328125 7.628906 C 68.265625 6.496094 70.390625 5.328125 72.65625 5.050781 C 73.285156 4.976562 73.914062 4.9375 74.546875 4.9375 C 75.078125 4.9375 75.789062 4.839844 76.277344 5.0625 C 77.097656 5.4375 76.984375 6.871094 76.785156 7.589844 C 76.496094 8.632812 76.230469 9.886719 75.617188 10.792969 C 75.125 11.519531 74.539062 12.1875 74.015625 12.894531 C 70.945312 11.417969 67.75 10.582031 64.660156 10.464844 C 63.710938 10.429688 62.765625 10.46875 61.824219 10.578125 C 63.300781 9.566406 64.773438 8.535156 66.320312 7.628906 Z M 55.867188 35.726562 C 55.820312 36.316406 55.730469 36.898438 55.601562 37.472656 C 55.480469 38.023438 55.328125 38.570312 55.175781 39.113281 C 55.003906 39.722656 54.859375 40.386719 54.589844 40.960938 C 54.089844 42.023438 53.472656 43.011719 52.742188 43.929688 C 52.140625 44.683594 51.4375 45.371094 50.761719 46.070312 C 50.796875 45.304688 50.796875 44.566406 50.78125 43.890625 C 50.714844 41.351562 50.300781 38.867188 49.550781 36.441406 C 49.570312 36.359375 49.589844 36.269531 49.609375 36.191406 C 49.953125 34.75 50.417969 33.292969 50.597656 31.816406 C 51.207031 30.738281 51.722656 29.621094 52.144531 28.460938 C 53.058594 30.796875 54.320312 32.929688 55.921875 34.867188 C 55.886719 35.140625 55.871094 35.421875 55.859375 35.726562 Z M 32.464844 5.980469 C 32.449219 5.488281 32.429688 5.003906 32.394531 4.515625 C 32.359375 4.003906 32.40625 3.222656 33.109375 3.195312 C 33.640625 3.167969 34.214844 3.574219 34.675781 3.796875 C 35.167969 4.023438 35.652344 4.257812 36.140625 4.507812 C 38 5.441406 39.734375 6.5625 41.347656 7.875 C 42.511719 8.855469 43.59375 9.925781 44.59375 11.078125 C 42.804688 10.617188 40.988281 10.457031 39.148438 10.605469 C 37.078125 10.757812 35.070312 11.195312 33.125 11.90625 C 32.574219 10.027344 32.519531 7.910156 32.464844 5.980469 Z M 15.921875 31.5625 C 15.503906 29.972656 15.003906 28.394531 14.617188 26.800781 C 14.058594 24.480469 13.503906 22.199219 13.523438 19.796875 C 13.523438 19.25 13.546875 18.699219 13.5625 18.152344 C 13.5625 17.671875 13.53125 17.085938 13.714844 16.617188 C 14.203125 15.394531 15.925781 16.398438 16.691406 16.789062 C 18.40625 17.667969 19.976562 18.757812 21.394531 20.054688 C 19.015625 22.8125 17.300781 25.902344 16.425781 29.074219 C 16.199219 29.890625 16.03125 30.71875 15.921875 31.5625 Z M 28.609375 44.355469 C 24.789062 44.355469 21.410156 43.066406 19.238281 40.433594 C 16.914062 37.621094 16.289062 33.6875 17.484375 29.355469 C 18.289062 26.445312 19.84375 23.597656 22 21.03125 C 22.117188 20.890625 22.804688 20.117188 22.859375 20.054688 C 23.753906 19.089844 24.71875 18.191406 25.742188 17.359375 C 30.390625 13.582031 35.757812 11.640625 40.453125 11.640625 C 44.277344 11.640625 47.652344 12.925781 49.824219 15.558594 C 52.152344 18.371094 52.773438 22.304688 51.578125 26.636719 C 50.363281 31.03125 47.429688 35.292969 43.320312 38.632812 C 38.671875 42.410156 33.304688 44.355469 28.609375 44.355469 Z M 34.964844 49.367188 C 33.890625 49.0625 33.023438 48.460938 32.367188 47.5625 C 31.835938 46.832031 31.65625 46.039062 31.378906 45.238281 C 35.726562 44.621094 40.160156 42.605469 44.007812 39.472656 C 45.953125 37.902344 47.660156 36.105469 49.125 34.082031 C 49.054688 34.421875 48.984375 34.75 48.910156 35.078125 C 48.835938 35.40625 48.171875 37.632812 48.027344 38.019531 C 47.320312 39.941406 46.332031 41.710938 45.0625 43.324219 C 43.746094 44.941406 42.25 46.378906 40.582031 47.640625 C 38.929688 48.921875 37.121094 49.957031 34.972656 49.367188 Z M 43.027344 52.925781 C 41.941406 52.734375 40.726562 52.527344 39.722656 52.066406 C 38.863281 51.675781 38.347656 50.953125 37.746094 50.289062 C 38.140625 50.175781 38.515625 50.023438 38.878906 49.835938 C 39.9375 49.296875 40.878906 48.515625 41.820312 47.792969 C 42.800781 47.070312 43.730469 46.289062 44.609375 45.445312 C 46.25 43.808594 47.527344 41.925781 48.453125 39.808594 C 48.625 39.421875 48.769531 39.035156 48.902344 38.644531 C 49.332031 40.410156 49.621094 42.199219 49.761719 44.011719 C 49.933594 46.242188 50.105469 48.886719 48.871094 50.871094 C 47.589844 52.960938 45.316406 53.339844 43.035156 52.925781 Z M 57.984375 51.554688 C 57.265625 53.445312 55.175781 53.554688 53.441406 53.726562 C 52.425781 53.832031 51.378906 53.886719 50.390625 53.640625 C 49.691406 53.472656 49.117188 53.03125 48.484375 52.773438 C 49.789062 51.515625 50.375 49.597656 50.609375 47.660156 C 50.753906 47.652344 50.875 47.59375 50.972656 47.488281 C 51.875 46.578125 52.570312 45.578125 53.289062 44.535156 C 54.058594 43.449219 54.753906 42.320312 55.375 41.144531 C 55.421875 41.050781 55.472656 40.960938 55.519531 40.867188 C 55.796875 42.503906 56.378906 44.128906 56.875 45.691406 C 57.460938 47.515625 58.738281 49.605469 57.992188 51.554688 Z M 70.496094 46.203125 C 70.316406 46.875 70.027344 47.496094 69.625 48.066406 C 69.226562 48.617188 68.765625 49.109375 68.246094 49.550781 C 67.730469 49.988281 67.164062 50.359375 66.554688 50.660156 C 65.941406 50.960938 65.304688 51.1875 64.636719 51.335938 C 63.972656 51.480469 63.296875 51.546875 62.617188 51.53125 C 61.878906 51.511719 61.15625 51.398438 60.449219 51.199219 C 59.953125 51.0625 59.449219 50.800781 58.9375 50.691406 C 58.96875 49.382812 58.613281 48.019531 58.351562 46.796875 C 58.089844 45.574219 57.691406 44.410156 57.320312 43.234375 C 56.964844 42.082031 56.632812 40.921875 56.058594 39.851562 C 56.128906 39.71875 56.191406 39.582031 56.25 39.441406 C 56.484375 38.871094 56.65625 38.28125 56.765625 37.675781 C 56.878906 37.167969 56.960938 36.65625 57.019531 36.140625 C 58.15625 37.363281 59.390625 38.480469 60.722656 39.488281 C 63.570312 41.683594 66.730469 43.257812 70.203125 44.214844 C 70.527344 44.839844 70.675781 45.488281 70.5 46.203125 Z M 85.535156 39.644531 C 82.511719 43.566406 76.882812 44.730469 70.929688 43.269531 C 70.695312 43.207031 70.503906 43.152344 70.316406 43.113281 C 67.054688 42.183594 64.082031 40.6875 61.398438 38.621094 C 57.09375 35.351562 54.011719 31.125 52.6875 26.695312 C 53.464844 23.734375 53.441406 20.9375 52.652344 18.515625 C 53 17.527344 53.496094 16.617188 54.136719 15.789062 C 56.371094 12.898438 60.085938 11.402344 64.605469 11.570312 C 67.613281 11.683594 70.734375 12.519531 73.710938 13.984375 C 73.792969 14.058594 73.882812 14.105469 73.992188 14.125 C 75.496094 14.890625 76.921875 15.785156 78.265625 16.808594 C 86.933594 23.378906 90.191406 33.628906 85.539062 39.644531 Z M 94.523438 23.699219 C 94.371094 24.835938 94.042969 25.921875 93.550781 26.957031 C 93.050781 27.9375 92.480469 28.878906 91.847656 29.78125 C 91.160156 30.777344 90.410156 31.722656 89.640625 32.65625 C 89.359375 32.996094 89.050781 33.335938 88.757812 33.675781 C 88.820312 31.804688 88.5625 29.976562 87.984375 28.191406 C 87.277344 25.980469 86.246094 23.925781 84.890625 22.03125 C 85.046875 21.996094 85.199219 21.949219 85.347656 21.890625 C 85.605469 21.777344 85.863281 21.652344 86.117188 21.53125 C 86.664062 21.269531 87.207031 21.019531 87.773438 20.796875 C 88.855469 20.382812 89.96875 20.097656 91.117188 19.9375 C 92.226562 19.785156 93.671875 19.664062 94.28125 20.804688 C 94.746094 21.667969 94.664062 22.761719 94.523438 23.699219 Z M 94.523438 23.699219 " fill-opacity="1" fill-rule="nonzero"/></g><path fill="#563a2c" d="M 66.503906 28.472656 C 66.355469 28.429688 66.210938 28.445312 66.074219 28.523438 C 65.582031 28.992188 65.640625 30.273438 65.824219 30.65625 C 65.738281 30.746094 65.160156 31.226562 64.890625 31.269531 C 64.140625 31.382812 63.664062 30.757812 63.4375 30.105469 C 63.410156 30.039062 63.363281 30.011719 63.292969 30.015625 C 63.222656 30.023438 63.183594 30.0625 63.171875 30.132812 C 63.058594 30.820312 63.171875 31.816406 64.28125 32.246094 C 64.558594 32.308594 64.835938 32.308594 65.113281 32.246094 C 65.128906 32.527344 65.179688 32.796875 65.261719 33.0625 C 65.753906 34.027344 66.714844 34.246094 67.453125 34.128906 C 67.523438 34.113281 67.558594 34.074219 67.566406 34.003906 C 67.574219 33.933594 67.542969 33.886719 67.476562 33.863281 C 66.605469 33.558594 66.066406 33.035156 66.070312 32.332031 C 66.070312 32.089844 66.566406 31.492188 66.695312 31.34375 C 67.621094 31.820312 68.585938 31.734375 68.910156 31.363281 C 69.097656 30.613281 68.324219 30.066406 67.855469 29.535156 C 67.351562 28.96875 66.746094 28.527344 66.503906 28.472656 Z M 66.503906 28.472656 " fill-opacity="1" fill-rule="nonzero"/><path fill="#ff5f76" d="M 77.261719 36.5 C 76.851562 35.9375 76.34375 35.476562 75.738281 35.121094 C 75.386719 34.917969 74.503906 34.484375 74.078125 34.691406 C 73.757812 34.847656 73.90625 35.328125 74.011719 35.585938 C 74.039062 35.664062 74.074219 35.734375 74.113281 35.804688 C 74.210938 36.160156 74.496094 36.445312 74.761719 36.726562 C 75.277344 37.28125 75.824219 37.726562 76.566406 37.9375 C 76.910156 38.035156 77.566406 38.28125 77.757812 37.855469 C 77.9375 37.460938 77.480469 36.792969 77.261719 36.5 Z M 77.261719 36.5 " fill-opacity="1" fill-rule="nonzero"/><path fill="#ff5f76" d="M 59.996094 19.628906 C 59.640625 19.425781 58.757812 18.992188 58.332031 19.199219 C 58.011719 19.355469 58.160156 19.835938 58.265625 20.097656 C 58.296875 20.171875 58.328125 20.242188 58.371094 20.3125 C 58.46875 20.667969 58.753906 20.953125 59.015625 21.238281 C 59.53125 21.789062 60.082031 22.234375 60.820312 22.445312 C 61.15625 22.542969 61.820312 22.789062 62.011719 22.363281 C 62.195312 21.96875 61.734375 21.304688 61.515625 21.011719 C 61.105469 20.445312 60.597656 19.984375 59.996094 19.628906 Z M 59.996094 19.628906 " fill-opacity="1" fill-rule="nonzero"/><path fill="#ff5f76" d="M 47.058594 23.175781 C 46.671875 22.886719 45.929688 23.269531 45.585938 23.460938 C 44.972656 23.796875 44.457031 24.234375 44.027344 24.78125 C 43.773438 25.121094 43.242188 25.917969 43.386719 26.371094 C 43.476562 26.65625 43.816406 26.632812 44.074219 26.59375 C 44.21875 26.574219 44.359375 26.535156 44.492188 26.484375 C 44.933594 26.425781 45.320312 26.09375 45.675781 25.828125 C 46.207031 25.460938 46.613281 24.988281 46.894531 24.410156 C 47.03125 24.117188 47.402344 23.445312 47.058594 23.175781 Z M 47.058594 23.175781 " fill-opacity="1" fill-rule="nonzero"/><path fill="#ff5f76" d="M 29.65625 36.808594 C 29.269531 36.519531 28.527344 36.902344 28.183594 37.09375 C 27.574219 37.429688 27.054688 37.871094 26.625 38.414062 C 26.371094 38.753906 25.839844 39.550781 25.984375 40 C 26.074219 40.289062 26.414062 40.265625 26.671875 40.226562 C 26.816406 40.207031 26.957031 40.167969 27.089844 40.113281 C 27.53125 40.058594 27.917969 39.726562 28.277344 39.460938 C 28.804688 39.09375 29.210938 38.621094 29.492188 38.042969 C 29.632812 37.75 30.003906 37.074219 29.65625 36.808594 Z M 29.65625 36.808594 " fill-opacity="1" fill-rule="nonzero"/><path fill="#ff5f76" d="M 36.871094 31.277344 C 36.722656 31.195312 36.574219 31.203125 36.433594 31.300781 C 36.023438 31.5 35.699219 31.789062 35.460938 32.175781 C 35.390625 32.28125 35.339844 32.433594 35.421875 32.527344 L 35.375 32.515625 L 35.429688 32.535156 C 35.476562 32.570312 35.527344 32.585938 35.585938 32.582031 C 35.839844 32.660156 36.101562 32.710938 36.367188 32.738281 C 36.476562 32.753906 36.585938 32.746094 36.691406 32.707031 C 36.847656 32.617188 36.941406 32.480469 36.972656 32.304688 C 37.042969 32.039062 37.046875 31.777344 36.988281 31.507812 C 36.976562 31.417969 36.9375 31.34375 36.871094 31.277344 Z M 36.871094 31.277344 " fill-opacity="1" fill-rule="nonzero"/><path fill="#ff5f76" d="M 67.898438 30.722656 C 67.8125 30.4375 67.660156 30.191406 67.445312 29.984375 C 67.230469 29.785156 67 29.605469 66.757812 29.445312 C 66.722656 29.414062 66.679688 29.402344 66.632812 29.410156 C 66.578125 29.421875 66.5625 29.492188 66.558594 29.546875 C 66.535156 29.78125 66.554688 30.011719 66.617188 30.242188 C 66.632812 30.382812 66.6875 30.5 66.789062 30.601562 C 66.882812 30.671875 66.988281 30.722656 67.101562 30.75 C 67.238281 30.789062 67.375 30.816406 67.511719 30.839844 C 67.625 30.871094 67.742188 30.871094 67.855469 30.839844 C 67.875 30.835938 67.886719 30.824219 67.902344 30.8125 C 67.914062 30.78125 67.914062 30.75 67.898438 30.722656 Z M 67.898438 30.722656 " fill-opacity="1" fill-rule="nonzero"/></svg>