<svg xmlns="http://www.w3.org/2000/svg" xmlns:xlink="http://www.w3.org/1999/xlink" width="284" zoomAndPan="magnify" viewBox="0 0 212.87999 89.999999" height="120" preserveAspectRatio="xMidYMid meet" version="1.0"><defs><g/><clipPath id="0062b67b3e"><path d="M 80 17.191406 L 107.472656 17.191406 L 107.472656 70 L 80 70 Z M 80 17.191406 " clip-rule="nonzero"/></clipPath><clipPath id="e80c1085bd"><path d="M 103.027344 25.539062 L 145 25.539062 L 145 43 L 103.027344 43 Z M 103.027344 25.539062 " clip-rule="nonzero"/></clipPath><clipPath id="b2a6d7a603"><path d="M 103.027344 51 L 145 51 L 145 68.121094 L 103.027344 68.121094 Z M 103.027344 51 " clip-rule="nonzero"/></clipPath><clipPath id="46f6e8d8e7"><path d="M 137 24 L 183.34375 24 L 183.34375 42 L 137 42 Z M 137 24 " clip-rule="nonzero"/></clipPath><clipPath id="30d71d9a73"><path d="M 137 52 L 183.34375 52 L 183.34375 70.351562 L 137 70.351562 Z M 137 52 " clip-rule="nonzero"/></clipPath><clipPath id="a45ca39414"><path d="M 175.578125 41.449219 L 212 41.449219 L 212 51 L 175.578125 51 Z M 175.578125 41.449219 " clip-rule="nonzero"/></clipPath></defs><g clip-path="url(#0062b67b3e)"><path fill="#ffffff" d="M 89.960938 53.511719 C 91.703125 57.875 92.863281 63.777344 91.359375 69.457031 L 101.375 69.457031 C 101.5625 66.929688 101.660156 62.847656 100.914062 58.578125 C 99.785156 52.117188 97.050781 46.183594 93.335938 40.828125 C 92.230469 39.238281 91.074219 37.742188 90.957031 35.722656 C 90.804688 33.058594 91.949219 29.703125 94.722656 28.910156 C 95.890625 28.578125 97.382812 28.5 98.496094 28.957031 C 100.144531 29.636719 101.835938 30.726562 103.671875 30.09375 C 105.320312 29.527344 106.859375 28.003906 107.097656 26.234375 C 107.390625 24.101562 106.316406 22.027344 104.761719 20.679688 C 103.742188 19.796875 102.515625 19.113281 101.332031 18.671875 C 97.328125 17.179688 92.878906 17.890625 89.25 19.84375 C 83.066406 23.167969 79.839844 30.328125 81.21875 36.578125 C 82.597656 42.824219 88.070312 48.773438 89.960938 53.511719 " fill-opacity="1" fill-rule="nonzero"/></g><path fill="#ffffff" d="M 68.550781 33.621094 C 67.289062 33.941406 66.082031 34.777344 65.039062 35.632812 C 62.570312 37.660156 60.230469 39.984375 57.761719 42.011719 C 57.136719 42.523438 56.496094 43.046875 55.753906 43.304688 C 54.230469 43.839844 52.617188 43.179688 51.050781 42.859375 C 49.570312 42.554688 46.257812 42.460938 45.414062 42.445312 C 44.570312 42.460938 41.257812 42.554688 39.777344 42.859375 C 38.210938 43.179688 36.597656 43.839844 35.074219 43.304688 C 34.332031 43.046875 33.691406 42.523438 33.066406 42.011719 C 30.597656 39.984375 28.257812 37.660156 25.789062 35.632812 C 24.75 34.777344 23.539062 33.941406 22.28125 33.621094 C 17.207031 32.332031 17.902344 40.441406 18.660156 43.617188 C 19.308594 46.335938 20.929688 48.996094 21.167969 51.792969 C 21.222656 52.445312 18.132812 58.980469 19.886719 69.261719 C 19.910156 69.386719 32.558594 69.453125 45.414062 69.457031 C 58.269531 69.453125 70.921875 69.386719 70.941406 69.261719 C 72.699219 58.980469 69.605469 52.445312 69.664062 51.792969 C 69.898438 48.996094 71.519531 46.335938 72.167969 43.617188 C 72.929688 40.441406 73.621094 32.332031 68.550781 33.621094 " fill-opacity="1" fill-rule="nonzero"/><path fill="#ad6d2f" d="M 58.59375 66.320312 C 61.390625 64.820312 62.089844 60.6875 62.089844 60.6875 C 62.089844 60.6875 58.253906 58.984375 55.457031 60.484375 C 52.660156 61.988281 51.960938 66.121094 51.960938 66.121094 C 51.960938 66.121094 55.796875 67.824219 58.59375 66.320312 " fill-opacity="1" fill-rule="nonzero"/><path fill="#ffffff" d="M 58.351562 63.441406 C 58.304688 65.171875 56.871094 66.539062 56.871094 66.539062 C 56.871094 66.539062 55.515625 65.101562 55.5625 63.367188 C 55.605469 61.632812 57.039062 60.265625 57.039062 60.265625 C 57.039062 60.265625 58.398438 61.707031 58.351562 63.441406 " fill-opacity="1" fill-rule="nonzero"/><path fill="#ad6d2f" d="M 32.238281 66.320312 C 29.441406 64.820312 28.738281 60.6875 28.738281 60.6875 C 28.738281 60.6875 32.574219 58.984375 35.371094 60.484375 C 38.167969 61.988281 38.867188 66.121094 38.867188 66.121094 C 38.867188 66.121094 35.035156 67.824219 32.238281 66.320312 " fill-opacity="1" fill-rule="nonzero"/><path fill="#ffffff" d="M 32.457031 63.441406 C 32.503906 65.199219 33.957031 66.585938 33.957031 66.585938 C 33.957031 66.585938 35.335938 65.125 35.289062 63.367188 C 35.242188 61.609375 33.789062 60.222656 33.789062 60.222656 C 33.789062 60.222656 32.410156 61.683594 32.457031 63.441406 " fill-opacity="1" fill-rule="nonzero"/><path fill="#ffffff" d="M 17.863281 68.910156 C 17.132812 66.886719 13.941406 65.246094 10.039062 65.058594 C 5.785156 64.851562 2.203125 66.4375 1.679688 68.671875 C 0.839844 69.453125 0.277344 70.609375 0.214844 71.929688 C 0.09375 74.410156 1.777344 76.507812 3.972656 76.613281 C 4.925781 76.660156 5.816406 76.324219 6.53125 75.730469 C 7.179688 77.003906 8.371094 77.886719 9.773438 77.953125 C 11.128906 78.019531 12.359375 77.3125 13.132812 76.179688 C 13.765625 76.761719 14.5625 77.125 15.441406 77.167969 C 17.640625 77.277344 19.519531 75.351562 19.640625 72.871094 C 19.71875 71.222656 19 69.75 17.863281 68.910156 " fill-opacity="1" fill-rule="nonzero"/><path fill="#ffffff" d="M 72.964844 68.910156 C 73.699219 66.886719 76.890625 65.246094 80.792969 65.058594 C 85.042969 64.851562 88.625 66.4375 89.148438 68.671875 C 89.988281 69.453125 90.554688 70.609375 90.617188 71.929688 C 90.738281 74.410156 89.050781 76.507812 86.855469 76.613281 C 85.90625 76.660156 85.015625 76.324219 84.300781 75.730469 C 83.652344 77.003906 82.460938 77.886719 81.054688 77.953125 C 79.699219 78.019531 78.46875 77.3125 77.695312 76.179688 C 77.0625 76.761719 76.265625 77.125 75.386719 77.167969 C 73.1875 77.277344 71.308594 75.351562 71.191406 72.871094 C 71.109375 71.222656 71.828125 69.75 72.964844 68.910156 " fill-opacity="1" fill-rule="nonzero"/><g clip-path="url(#e80c1085bd)"><path fill="#ffffff" d="M 120.457031 26.1875 C 119.546875 26.929688 119.171875 27.867188 117.664062 32.988281 C 115.59375 40.082031 115.125 40.5 108.757812 40.4375 C 107.199219 40.378906 105.640625 40.433594 104.085938 40.597656 C 103.757812 40.742188 103.59375 41 103.59375 41.371094 C 103.59375 41.738281 103.757812 41.996094 104.085938 42.144531 C 104.367188 42.242188 113.496094 42.335938 124.4375 42.335938 C 141.9375 42.335938 144.320312 42.273438 144.664062 41.855469 C 145.480469 40.824219 144.539062 40.566406 139.367188 40.402344 C 135.601562 40.273438 134.285156 40.113281 133.847656 39.757812 C 133.0625 39.082031 132.121094 36.792969 130.585938 31.796875 C 129.832031 29.316406 128.984375 27.15625 128.546875 26.640625 C 127.824219 25.769531 127.636719 25.738281 124.53125 25.640625 C 121.617188 25.542969 121.207031 25.578125 120.457031 26.1875 Z M 124.847656 39.308594 C 124.722656 40.046875 124.03125 40.273438 123.78125 39.628906 C 123.53125 38.984375 124.25 37.984375 124.691406 38.4375 C 124.871094 38.703125 124.921875 38.992188 124.847656 39.308594 Z M 124.847656 39.308594 " fill-opacity="1" fill-rule="nonzero"/></g><g clip-path="url(#b2a6d7a603)"><path fill="#ffffff" d="M 103.867188 52.199219 C 103.144531 53.101562 104.304688 53.617188 107.035156 53.617188 C 109.574219 53.617188 110.171875 53.910156 110.171875 55.101562 C 109.722656 56.964844 109.160156 58.792969 108.476562 60.582031 C 107.730469 62.597656 107.09375 64.648438 106.5625 66.738281 L 106.34375 68.121094 L 109.792969 68.121094 C 111.707031 68.121094 113.621094 67.992188 114.058594 67.800781 C 115.03125 67.445312 115.625 66.285156 116.316406 63.417969 C 116.722656 61.804688 117.132812 60.902344 117.882812 60.128906 L 118.886719 59.097656 L 123.9375 59.097656 C 130.679688 59.097656 131.273438 59.453125 132.152344 63.675781 C 132.96875 67.671875 133.628906 68.121094 138.457031 68.121094 C 140.964844 68.121094 142.15625 67.992188 142.15625 67.769531 C 142.15625 66.898438 141.058594 63.253906 139.804688 59.839844 C 137.671875 54.199219 137.859375 53.617188 141.75 53.617188 C 144.257812 53.617188 145.386719 53.070312 144.699219 52.199219 C 144.320312 51.75 142.28125 51.683594 124.28125 51.683594 C 106.28125 51.683594 104.242188 51.75 103.867188 52.199219 Z M 103.867188 52.199219 " fill-opacity="1" fill-rule="nonzero"/></g><g clip-path="url(#46f6e8d8e7)"><path fill="#ffffff" d="M 137.917969 41.765625 C 138.234375 41.871094 148.300781 41.972656 160.351562 41.972656 C 172.40625 41.972656 182.472656 41.871094 182.785156 41.765625 C 182.953125 41.695312 183.089844 41.582031 183.191406 41.429688 C 183.292969 41.28125 183.34375 41.113281 183.34375 40.929688 C 183.34375 40.746094 183.292969 40.578125 183.191406 40.425781 C 183.089844 40.273438 182.953125 40.164062 182.785156 40.09375 C 182.472656 39.988281 178.710938 39.882812 174.425781 39.882812 L 166.585938 39.882812 L 165.75 39.011719 C 164.878906 38.175781 164.878906 38.109375 164.878906 31.769531 C 164.878906 23.859375 165.089844 24.207031 160.109375 24.207031 C 157.285156 24.207031 156.519531 24.3125 156.136719 24.800781 C 155.753906 25.21875 155.613281 26.996094 155.546875 31.90625 L 155.441406 38.457031 L 154.535156 39.1875 C 153.699219 39.847656 153.140625 39.882812 146.035156 39.882812 C 141.890625 39.882812 138.234375 39.988281 137.917969 40.09375 C 137.75 40.164062 137.617188 40.273438 137.515625 40.425781 C 137.414062 40.578125 137.363281 40.746094 137.363281 40.929688 C 137.363281 41.113281 137.414062 41.277344 137.515625 41.429688 C 137.617188 41.582031 137.75 41.695312 137.917969 41.765625 Z M 137.917969 41.765625 " fill-opacity="1" fill-rule="nonzero"/></g><g clip-path="url(#30d71d9a73)"><path fill="#ffffff" d="M 182.785156 52.285156 C 182.472656 52.179688 172.335938 52.074219 160.179688 52.074219 C 140.742188 52.074219 138.09375 52.144531 137.710938 52.597656 C 136.734375 53.78125 137.78125 53.992188 146.035156 54.164062 C 153.246094 54.339844 154.082031 54.410156 154.742188 55 C 155.441406 55.628906 155.476562 56.011719 155.476562 62.074219 C 155.476562 68.414062 155.476562 68.480469 156.347656 69.316406 C 157.113281 70.121094 157.460938 70.1875 160.179688 70.1875 C 162.894531 70.1875 163.242188 70.121094 164.007812 69.316406 C 164.878906 68.480469 164.878906 68.414062 164.878906 62.175781 C 164.878906 55.941406 164.878906 55.871094 165.75 55.035156 L 166.585938 54.164062 L 174.425781 54.164062 C 178.710938 54.164062 182.472656 54.0625 182.785156 53.957031 C 182.953125 53.886719 183.089844 53.773438 183.191406 53.625 C 183.292969 53.472656 183.34375 53.304688 183.34375 53.121094 C 183.34375 52.9375 183.292969 52.769531 183.191406 52.617188 C 183.089844 52.464844 182.953125 52.355469 182.785156 52.285156 Z M 182.785156 52.285156 " fill-opacity="1" fill-rule="nonzero"/></g><g clip-path="url(#a45ca39414)"><path fill="#ce8460" d="M 210.230469 47.019531 C 209.132812 46.609375 207.953125 46.546875 206.808594 46.410156 C 203.292969 46.050781 199.765625 46.621094 196.351562 47.511719 C 192.039062 48.625 186.261719 50.941406 182.117188 48.351562 C 183.53125 47.15625 185.269531 45.644531 185.894531 43.765625 C 186.320312 42.4375 185.308594 41.449219 184.164062 42.148438 C 183.363281 42.648438 182.960938 43.601562 182.625 44.5 C 182.328125 43.558594 181.152344 42.355469 180.328125 43.347656 C 179.394531 44.875 180.242188 47.265625 181.453125 48.34375 C 180.394531 49.128906 179.230469 49.792969 177.964844 50.0625 C 177.457031 50.175781 176.9375 50.214844 176.417969 50.199219 C 176.246094 50.214844 176.039062 50.121094 175.886719 50.226562 C 175.597656 50.65625 176.246094 50.617188 176.480469 50.621094 C 178.40625 50.691406 180.230469 49.792969 181.777344 48.609375 C 186.246094 51.585938 192.492188 48.851562 197.175781 47.738281 C 200.515625 46.902344 203.96875 46.460938 207.386719 46.894531 C 208.230469 47.007812 209.089844 47.074219 209.910156 47.339844 C 210.367188 47.515625 210.824219 47.695312 211.269531 47.910156 C 211.425781 47.964844 211.703125 48.238281 211.839844 47.984375 C 212.054688 47.589844 210.542969 47.191406 210.234375 47.019531 Z M 180.34375 45.179688 C 180.3125 44.597656 180.300781 43.851562 180.773438 43.472656 C 181.613281 43.113281 182.238281 44.390625 182.410156 45.125 C 181.671875 47.113281 183.214844 47.179688 182.8125 45.144531 C 183.15625 44.179688 183.503906 43.070312 184.359375 42.511719 C 185.058594 42.082031 185.757812 42.5 185.574219 43.414062 C 185.144531 45.253906 183.128906 46.96875 181.785156 48.097656 C 180.957031 47.398438 180.445312 46.308594 180.339844 45.179688 Z M 180.34375 45.179688 " fill-opacity="1" fill-rule="nonzero"/></g><g fill="#ce8460" fill-opacity="1"><g transform="translate(109.378493, 55.678245)"><g><path d="M 6.058594 0 C 6.132812 0 6.203125 -0.0234375 6.253906 -0.046875 C 5.71875 -0.996094 5.425781 -2.992188 5.425781 -4.089844 C 5.351562 -5.765625 5.402344 -7.421875 5.695312 -9.078125 C 5.765625 -9.441406 5.742188 -9.417969 6.109375 -9.417969 C 6.496094 -9.394531 6.886719 -9.394531 7.300781 -9.367188 C 7.6875 -9.34375 8.078125 -9.320312 8.492188 -9.296875 C 8.664062 -9.296875 8.855469 -9.296875 9.027344 -9.296875 C 9.199219 -9.269531 9.394531 -9.269531 9.5625 -9.269531 C 9.929688 -9.269531 10.246094 -9.296875 10.609375 -9.367188 C 10.683594 -9.394531 10.78125 -9.441406 10.878906 -9.464844 C 10.949219 -9.488281 10.972656 -9.539062 10.972656 -9.613281 C 10.972656 -9.660156 10.972656 -9.710938 10.949219 -9.78125 C 10.925781 -9.855469 10.878906 -9.878906 10.804688 -9.878906 L 10.730469 -9.878906 C 10.269531 -9.710938 9.78125 -9.683594 9.296875 -9.683594 C 9.222656 -9.683594 9.125 -9.683594 9.027344 -9.683594 C 8.929688 -9.683594 8.832031 -9.683594 8.734375 -9.710938 C 8.320312 -9.734375 7.933594 -9.734375 7.519531 -9.757812 C 7.105469 -9.78125 6.691406 -9.78125 6.277344 -9.804688 C 6.230469 -9.832031 6.15625 -9.832031 6.058594 -9.832031 C 5.914062 -9.855469 5.863281 -9.929688 5.890625 -10.074219 L 5.960938 -10.585938 C 6.351562 -12.238281 6.765625 -13.84375 7.25 -15.5 C 7.277344 -15.621094 7.324219 -15.742188 7.347656 -15.867188 C 7.371094 -15.988281 7.398438 -16.109375 7.421875 -16.230469 C 7.445312 -16.402344 7.421875 -16.546875 7.324219 -16.667969 C 7.300781 -16.742188 7.25 -16.765625 7.128906 -16.765625 C 7.082031 -16.765625 7.058594 -16.765625 7.03125 -16.742188 L 6.789062 -16.523438 C 5.5 -14.699219 4.308594 -12.238281 3.601562 -10.148438 C 3.480469 -9.832031 3.285156 -9.660156 2.96875 -9.613281 C 1.898438 -9.34375 0.972656 -8.953125 0.269531 -8.078125 C 0.0976562 -7.910156 0 -7.738281 0 -7.46875 C -0.0742188 -7.058594 0.269531 -6.742188 0.65625 -6.742188 C 0.730469 -6.742188 0.804688 -6.742188 0.851562 -6.765625 C 0.875 -6.765625 0.898438 -6.789062 0.898438 -6.863281 C 0.898438 -6.886719 0.875 -6.933594 0.851562 -6.960938 L 0.585938 -7.03125 C 0.316406 -7.082031 0.242188 -7.226562 0.339844 -7.46875 C 0.730469 -8.347656 2.117188 -8.980469 3.015625 -9.171875 C 3.042969 -9.171875 3.089844 -9.148438 3.1875 -9.125 L 3.042969 -8.613281 L 1.726562 -4.597656 C 1.65625 -4.355469 1.582031 -4.113281 1.507812 -3.867188 C 1.4375 -3.625 1.339844 -3.382812 1.265625 -3.140625 C 1.242188 -3.066406 1.214844 -2.96875 1.191406 -2.894531 C 1.167969 -2.824219 1.09375 -2.75 0.996094 -2.726562 C 0.972656 -2.945312 1.023438 -3.164062 1.144531 -3.429688 C 1.167969 -3.503906 1.144531 -3.550781 1.070312 -3.578125 C 1.046875 -3.601562 0.996094 -3.625 0.949219 -3.625 C 0.851562 -3.625 0.777344 -3.578125 0.753906 -3.457031 C 0.632812 -3.089844 0.558594 -2.726562 0.585938 -2.410156 C 0.609375 -2.140625 0.730469 -2.066406 0.949219 -1.996094 C 1.121094 -1.996094 1.265625 -2.09375 1.339844 -2.261719 C 1.507812 -2.578125 1.679688 -2.96875 1.800781 -3.429688 C 2.066406 -4.332031 2.359375 -5.207031 2.652344 -6.109375 C 2.945312 -6.984375 3.238281 -7.859375 3.503906 -8.761719 L 3.648438 -9.171875 C 3.699219 -9.296875 3.773438 -9.34375 3.867188 -9.367188 C 4.332031 -9.441406 4.648438 -9.464844 5.109375 -9.464844 C 5.230469 -9.441406 5.28125 -9.394531 5.28125 -9.269531 C 5.257812 -9.101562 5.230469 -8.980469 5.230469 -8.808594 C 5.207031 -8.589844 5.160156 -8.371094 5.132812 -8.175781 C 5.109375 -7.957031 5.085938 -7.738281 5.0625 -7.519531 C 4.964844 -6.058594 4.867188 -4.671875 5.035156 -3.238281 C 5.132812 -2.382812 5.207031 -1.605469 5.476562 -0.828125 C 5.546875 -0.609375 5.621094 -0.390625 5.742188 -0.195312 C 5.816406 -0.0742188 5.9375 0 6.058594 0 Z M 4.136719 -9.832031 C 3.992188 -9.832031 3.917969 -9.878906 3.941406 -9.976562 C 3.964844 -10.050781 4.015625 -10.21875 4.089844 -10.4375 C 4.746094 -12.140625 5.523438 -13.773438 6.425781 -15.328125 C 6.496094 -15.453125 6.570312 -15.550781 6.644531 -15.671875 C 6.691406 -15.769531 6.789062 -15.867188 6.910156 -15.9375 C 6.933594 -15.839844 6.960938 -15.769531 6.933594 -15.695312 C 6.910156 -15.621094 6.886719 -15.550781 6.863281 -15.476562 C 6.351562 -13.722656 5.890625 -12.046875 5.5 -10.292969 C 5.476562 -10.269531 5.476562 -10.246094 5.476562 -10.21875 C 5.476562 -10.195312 5.476562 -10.148438 5.449219 -10.121094 C 5.425781 -9.976562 5.351562 -9.902344 5.183594 -9.902344 C 5.0625 -9.902344 4.964844 -9.902344 4.867188 -9.902344 C 4.746094 -9.902344 4.648438 -9.902344 4.550781 -9.878906 C 4.355469 -9.855469 4.234375 -9.832031 4.136719 -9.832031 Z M 4.136719 -9.832031 "/></g></g></g><g fill="#ce8460" fill-opacity="1"><g transform="translate(119.793241, 55.678245)"><g/></g></g><g fill="#ce8460" fill-opacity="1"><g transform="translate(125.876615, 55.678245)"><g><path d="M 1.242188 -2.726562 C 1.339844 -2.726562 1.410156 -2.75 1.507812 -2.773438 C 1.921875 -2.921875 2.261719 -3.1875 2.480469 -3.601562 C 2.554688 -3.722656 2.53125 -3.820312 2.382812 -3.894531 C 2.359375 -3.917969 2.335938 -3.941406 2.3125 -3.941406 C 2.261719 -3.941406 2.214844 -3.894531 2.164062 -3.820312 C 1.996094 -3.601562 1.824219 -3.382812 1.558594 -3.210938 C 1.339844 -3.089844 1.167969 -3.042969 1.09375 -3.042969 C 0.925781 -3.042969 0.804688 -3.210938 0.730469 -3.578125 C 0.65625 -4.136719 0.65625 -4.695312 0.753906 -5.207031 C 1.121094 -7.179688 2.238281 -8.855469 3.480469 -10.414062 L 3.773438 -10.78125 C 3.867188 -10.902344 3.867188 -11.046875 3.773438 -11.191406 C 3.746094 -11.265625 3.675781 -11.316406 3.578125 -11.316406 C 3.550781 -11.316406 3.480469 -11.289062 3.382812 -11.265625 C 3.359375 -11.265625 3.332031 -11.265625 3.332031 -11.265625 C 3.308594 -11.242188 3.285156 -11.242188 3.261719 -11.242188 C 2.480469 -10.878906 1.753906 -10.535156 0.996094 -10.074219 C 0.949219 -10.195312 0.949219 -10.269531 1.023438 -10.339844 C 1.070312 -10.4375 1.121094 -10.535156 1.191406 -10.632812 C 1.242188 -10.707031 1.289062 -10.804688 1.339844 -10.878906 C 1.558594 -11.242188 1.753906 -11.605469 1.921875 -11.996094 C 1.972656 -12.214844 1.945312 -12.386719 1.875 -12.554688 C 1.800781 -12.675781 1.679688 -12.75 1.558594 -12.75 C 1.484375 -12.75 1.4375 -12.75 1.386719 -12.726562 C 0.4375 -12.289062 -0.363281 -11 -0.828125 -10.097656 C -0.851562 -10.050781 -0.898438 -9.953125 -0.925781 -9.832031 C -0.996094 -9.5625 -0.972656 -9.367188 -0.828125 -9.199219 C -0.707031 -9.078125 -0.558594 -9.003906 -0.390625 -9.003906 C -0.121094 -9.003906 0.339844 -9.222656 0.535156 -9.34375 C 1.242188 -9.734375 1.945312 -10.097656 2.652344 -10.464844 C 2.675781 -10.488281 2.726562 -10.511719 2.773438 -10.535156 C 2.796875 -10.5625 2.847656 -10.5625 2.871094 -10.5625 C 2.871094 -10.5625 2.894531 -10.535156 2.96875 -10.511719 C 2.945312 -10.4375 2.921875 -10.367188 2.871094 -10.292969 C 2.796875 -10.21875 2.75 -10.171875 2.699219 -10.097656 C 1.558594 -8.492188 0.632812 -7.058594 0.316406 -5.085938 C 0.242188 -4.5 0.242188 -3.917969 0.414062 -3.332031 C 0.585938 -2.921875 0.851562 -2.726562 1.242188 -2.726562 Z M -0.488281 -9.394531 C -0.558594 -9.417969 -0.585938 -9.441406 -0.585938 -9.515625 C -0.390625 -10.316406 0.65625 -11.753906 1.386719 -12.214844 C 1.386719 -12.214844 1.410156 -12.214844 1.484375 -12.214844 C 1.507812 -12.191406 1.53125 -12.140625 1.53125 -12.117188 C 1.363281 -11.65625 1.144531 -11.265625 0.875 -10.851562 C 0.804688 -10.683594 0.707031 -10.535156 0.609375 -10.390625 C 0.488281 -10.246094 0.390625 -10.097656 0.316406 -9.929688 C 0.144531 -9.613281 -0.121094 -9.488281 -0.4375 -9.394531 Z M 0.972656 -10.074219 L 0.972656 -10.097656 L 0.996094 -10.074219 Z M 0.972656 -10.074219 "/></g></g></g><g fill="#ce8460" fill-opacity="1"><g transform="translate(129.769982, 55.678245)"><g/></g></g><g fill="#ce8460" fill-opacity="1"><g transform="translate(135.853355, 55.678245)"><g><path d="M 0.609375 -0.414062 C 0.898438 -0.414062 1.046875 -0.558594 1.046875 -0.851562 C 1.046875 -0.949219 0.996094 -1.023438 0.925781 -1.046875 C 0.898438 -1.046875 0.898438 -1.046875 0.898438 -1.070312 C 0.875 -1.070312 0.875 -1.070312 0.851562 -1.070312 C 0.804688 -1.070312 0.753906 -1.046875 0.730469 -0.996094 C 0.707031 -0.972656 0.679688 -0.925781 0.65625 -0.875 C 0.632812 -0.828125 0.609375 -0.804688 0.535156 -0.804688 C 0.21875 -1.121094 0.0234375 -2.945312 0.0234375 -3.40625 C -0.046875 -5.035156 0 -6.617188 0.269531 -8.25 C 0.363281 -8.613281 0.488281 -8.953125 0.65625 -9.320312 C 0.972656 -10 1.289062 -10.65625 1.628906 -11.316406 C 1.945312 -11.972656 2.289062 -12.628906 2.628906 -13.308594 C 2.699219 -13.480469 2.824219 -13.554688 2.96875 -13.554688 C 2.992188 -13.554688 3.015625 -13.554688 3.042969 -13.554688 C 3.042969 -13.53125 3.066406 -13.53125 3.089844 -13.53125 C 4.089844 -13.359375 5.5 -13.214844 6.546875 -13.214844 C 7.324219 -13.214844 8.128906 -13.285156 8.832031 -13.652344 C 9.003906 -13.722656 9.027344 -13.917969 8.929688 -14.089844 C 8.90625 -14.136719 8.882812 -14.160156 8.832031 -14.160156 C 8.808594 -14.160156 8.785156 -14.136719 8.761719 -14.113281 C 8.734375 -14.089844 8.6875 -14.066406 8.664062 -14.039062 C 8.589844 -14.015625 8.492188 -13.992188 8.417969 -13.96875 C 8.347656 -13.941406 8.25 -13.894531 8.175781 -13.871094 C 7.617188 -13.75 7.058594 -13.675781 6.519531 -13.675781 C 6.449219 -13.675781 6.351562 -13.675781 6.277344 -13.675781 C 6.179688 -13.675781 6.082031 -13.675781 6.011719 -13.699219 C 5.644531 -13.722656 5.304688 -13.773438 4.964844 -13.796875 C 4.597656 -13.820312 4.257812 -13.84375 3.917969 -13.871094 C 3.84375 -13.894531 3.773438 -13.894531 3.699219 -13.894531 C 3.625 -13.894531 3.527344 -13.917969 3.457031 -13.941406 C 3.382812 -13.96875 3.308594 -13.96875 3.238281 -13.96875 C 3.164062 -13.96875 3.113281 -13.992188 3.042969 -14.066406 C 3.066406 -14.160156 3.089844 -14.257812 3.140625 -14.332031 C 3.164062 -14.40625 3.210938 -14.476562 3.238281 -14.550781 C 3.550781 -15.304688 3.84375 -16.011719 4.113281 -16.789062 C 4.136719 -16.910156 4.183594 -17.058594 4.234375 -17.203125 C 4.257812 -17.324219 4.28125 -17.472656 4.28125 -17.617188 C 4.308594 -17.789062 4.28125 -17.957031 4.210938 -18.105469 C 4.160156 -18.25 4.0625 -18.324219 3.917969 -18.324219 C 3.089844 -18.324219 1.824219 -15.550781 1.484375 -14.625 C 1.363281 -14.332031 1.3125 -14.234375 1.121094 -14.234375 C 1.023438 -14.234375 0.925781 -14.234375 0.851562 -14.257812 C 0.0976562 -14.382812 -0.609375 -14.453125 -1.289062 -14.453125 C -2.507812 -14.453125 -4.792969 -14.257812 -5.792969 -13.578125 C -5.914062 -13.503906 -5.9375 -13.40625 -5.890625 -13.285156 C -5.863281 -13.117188 -5.765625 -13.042969 -5.546875 -13.042969 C -5.425781 -13.042969 -5.351562 -13.089844 -5.328125 -13.1875 C -5.257812 -13.96875 -1.65625 -14.015625 -1.3125 -14.015625 C -0.925781 -14.015625 0.828125 -13.96875 1.070312 -13.722656 C 1.144531 -13.601562 1.09375 -13.503906 1.023438 -13.382812 C 0.363281 -11.144531 -0.0976562 -9.078125 -0.316406 -6.742188 C -0.414062 -5.28125 -0.460938 -3.867188 -0.292969 -2.410156 C -0.21875 -1.945312 -0.144531 -1.582031 -0.0234375 -1.121094 C 0.046875 -0.898438 0.0976562 -0.707031 0.292969 -0.535156 C 0.363281 -0.460938 0.488281 -0.414062 0.609375 -0.414062 Z M 0.707031 -10.511719 C 0.707031 -10.511719 0.707031 -10.535156 0.679688 -10.5625 C 0.679688 -10.902344 1.167969 -12.773438 1.386719 -13.261719 C 1.410156 -13.285156 1.410156 -13.335938 1.4375 -13.382812 C 1.460938 -13.433594 1.460938 -13.480469 1.484375 -13.53125 C 1.53125 -13.652344 1.628906 -13.699219 1.753906 -13.699219 L 2.191406 -13.625 C 2.214844 -13.625 2.238281 -13.625 2.238281 -13.601562 C 2.238281 -13.578125 2.238281 -13.578125 2.261719 -13.554688 L 2.261719 -13.457031 L 0.949219 -10.78125 L 0.804688 -10.535156 C 0.777344 -10.511719 0.753906 -10.511719 0.707031 -10.511719 Z M 2.335938 -14.089844 C 2.164062 -14.089844 2.066406 -14.089844 2.019531 -14.113281 C 1.824219 -14.136719 1.753906 -14.234375 1.824219 -14.429688 C 2.191406 -15.378906 2.578125 -16.253906 3.1875 -17.105469 C 3.359375 -17.375 3.550781 -17.640625 3.820312 -17.835938 C 3.894531 -17.835938 3.917969 -17.835938 3.917969 -17.835938 C 3.941406 -17.835938 3.964844 -17.8125 3.964844 -17.761719 C 3.941406 -17.691406 3.941406 -17.59375 3.941406 -17.519531 C 3.941406 -17.421875 3.917969 -17.324219 3.894531 -17.253906 C 3.578125 -16.253906 3.1875 -15.304688 2.726562 -14.355469 C 2.652344 -14.1875 2.507812 -14.089844 2.335938 -14.089844 Z M 2.335938 -14.089844 "/></g></g></g><g fill="#ce8460" fill-opacity="1"><g transform="translate(137.921701, 55.678245)"><g/></g></g><g fill="#ce8460" fill-opacity="1"><g transform="translate(144.005074, 55.678245)"><g><path d="M 0.0234375 -6.082031 C 0.144531 -6.082031 0.242188 -6.109375 0.363281 -6.15625 C 0.4375 -6.179688 0.488281 -6.230469 0.535156 -6.253906 C 0.585938 -6.277344 0.632812 -6.328125 0.707031 -6.351562 C 0.898438 -6.472656 3.867188 -9.222656 3.867188 -9.613281 C 3.84375 -9.710938 3.796875 -9.855469 3.675781 -9.855469 C 3.648438 -9.855469 3.601562 -9.832031 3.578125 -9.804688 C 3.503906 -9.734375 3.457031 -9.660156 3.382812 -9.613281 C 3.308594 -9.539062 3.261719 -9.464844 3.1875 -9.394531 L 1.582031 -7.6875 C 1.265625 -7.324219 0.875 -7.007812 0.4375 -6.742188 C 0.269531 -6.59375 0.121094 -6.496094 -0.046875 -6.472656 L -0.144531 -6.449219 C -0.292969 -6.449219 -0.363281 -6.519531 -0.363281 -6.691406 C -0.390625 -6.933594 -0.363281 -7.203125 -0.316406 -7.46875 C -0.0976562 -8.25 0.195312 -8.980469 0.679688 -9.636719 C 0.730469 -9.710938 0.777344 -9.804688 0.851562 -9.929688 C 0.925781 -10 0.777344 -10.195312 0.707031 -10.195312 C 0.632812 -10.21875 0.558594 -10.171875 0.511719 -10.097656 C -0.0976562 -9.246094 -0.585938 -8.371094 -0.753906 -7.324219 C -0.777344 -7.152344 -0.777344 -6.960938 -0.753906 -6.765625 C -0.679688 -6.351562 -0.363281 -6.082031 0.0234375 -6.082031 Z M 1.046875 -10.851562 C 1.09375 -10.828125 1.144531 -10.851562 1.191406 -10.902344 C 1.507812 -11.289062 1.753906 -11.730469 2.019531 -12.191406 C 2.042969 -12.214844 2.042969 -12.265625 2.042969 -12.363281 C 2.019531 -12.386719 2.019531 -12.410156 2.019531 -12.433594 C 2.019531 -12.457031 1.996094 -12.457031 1.972656 -12.484375 C 1.945312 -12.507812 1.921875 -12.507812 1.898438 -12.507812 C 1.847656 -12.507812 1.800781 -12.484375 1.777344 -12.410156 C 1.703125 -12.289062 1.628906 -12.191406 1.582031 -12.070312 C 1.507812 -11.949219 1.4375 -11.851562 1.363281 -11.730469 C 1.265625 -11.558594 1.144531 -11.386719 1.023438 -11.191406 L 0.949219 -11.046875 C 0.925781 -10.972656 0.972656 -10.925781 1.046875 -10.851562 Z M 1.046875 -10.851562 "/></g></g></g><g fill="#ce8460" fill-opacity="1"><g transform="translate(147.314452, 55.678245)"><g/></g></g><g fill="#ce8460" fill-opacity="1"><g transform="translate(153.397825, 55.678245)"><g><path d="M 0.777344 -5.132812 C 1.582031 -5.132812 2.871094 -6.230469 3.382812 -6.863281 C 3.722656 -7.25 4.039062 -7.664062 4.332031 -8.101562 C 4.625 -8.515625 4.914062 -8.953125 5.230469 -9.367188 C 5.304688 -9.441406 5.351562 -9.539062 5.351562 -9.636719 C 5.328125 -9.734375 5.28125 -9.804688 5.257812 -9.832031 C 5.230469 -9.855469 5.207031 -9.855469 5.183594 -9.855469 C 5.160156 -9.855469 5.109375 -9.832031 5.0625 -9.78125 L 4.625 -9.246094 C 4.160156 -8.636719 3.722656 -8.003906 3.261719 -7.398438 C 2.796875 -6.714844 1.410156 -5.476562 0.535156 -5.476562 C 0.0234375 -5.476562 -0.121094 -6.132812 -0.121094 -6.546875 C -0.144531 -6.910156 -0.0976562 -7.203125 -0.0234375 -7.566406 C 0.242188 -8.785156 0.925781 -10.488281 2.019531 -11.144531 C 2.09375 -11.191406 2.191406 -11.242188 2.289062 -11.316406 C 2.359375 -11.363281 2.457031 -11.386719 2.53125 -11.386719 C 2.605469 -11.386719 2.652344 -11.363281 2.675781 -11.339844 C 2.773438 -11.265625 2.796875 -11.144531 2.75 -11.023438 C 2.675781 -10.902344 2.628906 -10.78125 2.605469 -10.65625 C 2.578125 -10.511719 2.507812 -10.414062 2.359375 -10.367188 C 2.261719 -10.339844 2.238281 -10.292969 2.289062 -10.246094 C 2.3125 -10.195312 2.359375 -10.148438 2.410156 -10.121094 L 2.507812 -10.121094 C 2.605469 -10.121094 2.675781 -10.148438 2.726562 -10.21875 C 2.992188 -10.511719 3.042969 -10.878906 3.042969 -11.242188 C 3.042969 -11.289062 3.015625 -11.386719 2.945312 -11.507812 C 2.847656 -11.679688 2.699219 -11.777344 2.507812 -11.777344 C 2.433594 -11.777344 2.382812 -11.777344 2.359375 -11.753906 C 0.679688 -11.316406 -0.339844 -8.6875 -0.488281 -7.082031 C -0.511719 -6.425781 -0.460938 -6.132812 -0.292969 -5.839844 C -0.0742188 -5.378906 0.292969 -5.132812 0.777344 -5.132812 Z M 0.777344 -5.132812 "/></g></g></g><g fill="#ce8460" fill-opacity="1"><g transform="translate(158.191527, 55.678245)"><g/></g></g><g fill="#ce8460" fill-opacity="1"><g transform="translate(164.274901, 55.678245)"><g><path d="M 1.214844 -1.4375 C 1.289062 -1.4375 1.339844 -1.4375 1.363281 -1.460938 C 1.4375 -1.484375 1.460938 -1.558594 1.460938 -1.65625 C 1.460938 -1.726562 1.4375 -1.800781 1.410156 -1.875 L 1.363281 -1.921875 C 0.949219 -2.164062 0.730469 -3.699219 0.65625 -4.28125 C 0.488281 -5.765625 0.390625 -7.25 0.511719 -8.785156 C 0.585938 -9.171875 0.609375 -9.515625 0.777344 -9.878906 C 1.875 -12.117188 2.96875 -14.40625 3.722656 -16.765625 C 3.773438 -16.9375 3.820312 -17.128906 3.867188 -17.300781 C 3.894531 -17.472656 3.941406 -17.640625 3.992188 -17.8125 C 4.015625 -18.03125 3.992188 -18.175781 3.917969 -18.296875 C 3.867188 -18.421875 3.796875 -18.492188 3.675781 -18.492188 C 3.601562 -18.492188 3.527344 -18.46875 3.457031 -18.421875 C 3.359375 -18.347656 3.285156 -18.25 3.210938 -18.128906 C 3.140625 -18.007812 3.042969 -17.910156 2.96875 -17.789062 C 1.3125 -15.378906 0.535156 -12.554688 0.21875 -9.710938 C 0.195312 -9.585938 0.144531 -9.464844 0.0742188 -9.367188 C 0 -9.269531 -0.0234375 -9.148438 0.0234375 -9.027344 C 0.0976562 -8.761719 0.0976562 -8.492188 0.0976562 -8.226562 L 0.0976562 -6.984375 C 0.0742188 -6.082031 0.121094 -5.183594 0.242188 -4.308594 C 0.390625 -3.457031 0.535156 -2.214844 0.972656 -1.558594 C 0.996094 -1.484375 1.09375 -1.4375 1.214844 -1.4375 Z M 0.898438 -11.121094 C 0.851562 -11.167969 0.851562 -11.265625 0.875 -11.386719 C 1.289062 -13.625 2.019531 -15.988281 3.457031 -17.835938 C 3.480469 -17.859375 3.503906 -17.859375 3.527344 -17.886719 C 3.550781 -17.910156 3.578125 -17.886719 3.601562 -17.859375 C 3.625 -17.835938 3.625 -17.8125 3.625 -17.761719 C 3.015625 -15.5 2.066406 -13.40625 1.023438 -11.265625 C 0.996094 -11.242188 0.996094 -11.191406 0.996094 -11.167969 C 0.972656 -11.121094 0.949219 -11.097656 0.898438 -11.121094 Z M 0.898438 -11.121094 "/></g></g></g><g fill="#ce8460" fill-opacity="1"><g transform="translate(166.464908, 55.678245)"><g/></g></g><g fill="#ce8460" fill-opacity="1"><g transform="translate(172.548282, 55.678245)"><g><path d="M 1.144531 -6.59375 C 1.265625 -6.59375 1.363281 -6.617188 1.484375 -6.667969 C 2.699219 -7.082031 3.550781 -8.371094 4.160156 -9.441406 C 4.234375 -9.539062 4.257812 -9.636719 4.234375 -9.710938 C 4.234375 -9.804688 4.210938 -9.855469 4.136719 -9.878906 C 4.113281 -9.902344 4.089844 -9.902344 4.0625 -9.902344 C 4.015625 -9.902344 3.964844 -9.878906 3.941406 -9.804688 L 3.675781 -9.367188 C 3.1875 -8.46875 2.214844 -7.347656 1.265625 -7.03125 C 1.144531 -7.007812 1.046875 -6.984375 1.023438 -6.984375 C 0.679688 -6.984375 0.460938 -7.179688 0.339844 -7.542969 C 0.316406 -7.617188 0.316406 -7.6875 0.316406 -7.761719 C 0.316406 -7.835938 0.316406 -7.910156 0.292969 -7.980469 C 0.292969 -8.445312 0.460938 -9.367188 0.753906 -9.734375 C 0.804688 -9.660156 0.851562 -9.585938 0.898438 -9.515625 C 0.925781 -9.441406 0.972656 -9.367188 1.023438 -9.296875 C 1.070312 -9.199219 1.144531 -9.148438 1.265625 -9.148438 C 1.3125 -9.148438 1.363281 -9.148438 1.386719 -9.171875 C 1.777344 -9.34375 2.261719 -9.953125 2.289062 -10.414062 C 2.3125 -10.828125 2.066406 -11.121094 1.703125 -11.121094 C 0.632812 -11.121094 -0.046875 -9.199219 -0.046875 -8.226562 C -0.0742188 -7.617188 0.144531 -7.152344 0.632812 -6.789062 C 0.804688 -6.667969 0.972656 -6.59375 1.144531 -6.59375 Z M 1.242188 -9.585938 C 1.191406 -9.636719 1.167969 -9.660156 1.167969 -9.636719 C 1.144531 -9.710938 1.09375 -9.78125 1.023438 -9.832031 C 0.949219 -9.855469 0.898438 -9.929688 0.925781 -10 C 0.949219 -10.195312 1.070312 -10.316406 1.242188 -10.4375 C 1.410156 -10.609375 1.605469 -10.707031 1.777344 -10.730469 C 1.945312 -10.753906 1.996094 -10.707031 1.972656 -10.535156 C 1.898438 -10.171875 1.65625 -9.855469 1.242188 -9.585938 Z M 1.242188 -9.585938 "/></g></g></g></svg>